<?xml version="1.0" encoding="utf-8"?>
<!-- Generator: Adobe Illustrator 22.0.0, SVG Export Plug-In . SVG Version: 6.00 Build 0)  -->
<!DOCTYPE svg PUBLIC "-//W3C//DTD SVG 1.1 Tiny//EN" "http://www.w3.org/Graphics/SVG/1.1/DTD/svg11-tiny.dtd">
<svg version="1.1" baseProfile="tiny"
	 id="svg3336" inkscape:version="0.91 r13725" sodipodi:docname="AutodafeKnobRed.svg" xmlns:cc="http://creativecommons.org/ns#" xmlns:dc="http://purl.org/dc/elements/1.1/" xmlns:inkscape="http://www.inkscape.org/namespaces/inkscape" xmlns:rdf="http://www.w3.org/1999/02/22-rdf-syntax-ns#" xmlns:sodipodi="http://sodipodi.sourceforge.net/DTD/sodipodi-0.dtd" xmlns:svg="http://www.w3.org/2000/svg"
	 xmlns="http://www.w3.org/2000/svg" xmlns:xlink="http://www.w3.org/1999/xlink" x="0px" y="0px" viewBox="0 0 35 35"
	 xml:space="preserve">
<sodipodi:namedview  bordercolor="#666666" borderopacity="1" gridtolerance="10" guidetolerance="10" id="namedview3355" inkscape:current-layer="layer1" inkscape:cx="-1.6298557" inkscape:cy="20.598942" inkscape:pageopacity="0" inkscape:pageshadow="2" inkscape:window-height="997" inkscape:window-maximized="1" inkscape:window-width="1920" inkscape:window-x="0" inkscape:window-y="1" inkscape:zoom="11.313708" objecttolerance="10" pagecolor="#ffffff" showgrid="false">
	</sodipodi:namedview>
<g id="svg3405" transform="translate(0,-0.700002)" inkscape:version="0.91 r13725" sodipodi:docname="AutodafeKnob.svg" display="none">
</g>
<g>
	<g id="Layer_2_1_" transform="matrix(0.90215002,0,0,0.90400901,1.3402371,1.4949719)">
		<rect id="rect3340" x="-1.5" y="-1.7" fill="#E6E6E6" width="38.8" height="38.7"/>
	</g>
	<circle fill="#B70000" cx="17.5" cy="17.5" r="17.2"/>
	<path fill="#9C0000" d="M5.6,8.6L1.4,23.7c2.5,6.5,8.8,11.1,16.1,11.1c7.3,0,13.6-4.6,16.1-11L29.3,8.3L11.5,19L5.6,8.6z"/>
	<g>
		<path fill="#A80000" d="M10.5,30.2c-1.6-3.5-4.1-6.7-7-8.8c-0.5-0.4-0.6-1-0.3-1.5c1.7-3.2,2.5-7.1,2.5-11c0-0.6,0.4-1,1-1.2
			c3.4-0.9,7.1-2.6,10.2-4.9c0.5-0.4,1.1-0.4,1.5,0c3,2.5,6.7,4.2,10.2,4.9c0.6,0.1,1,0.6,1,1.2c-0.1,3.8,0.8,7.7,2.5,11
			c0.3,0.5,0.1,1.1-0.3,1.5c-3,2.3-5.5,5.4-7,8.8c-0.2,0.6-0.8,0.8-1.4,0.7c-4-1-8.1-0.8-11.3,0C11.3,31,10.7,30.8,10.5,30.2z"/>
	</g>
	<g>
		<path fill="#A80000" d="M10.5,30.2c-1.6-3.5-4.1-6.7-7-8.8c-0.5-0.4-0.6-1-0.3-1.5c1.7-3.2,2.5-7.1,2.5-11c0-0.6,0.4-1,1-1.2
			c3.4-0.9,7.1-2.6,10.2-4.9c0.5-0.4,1.1-0.4,1.5,0c3,2.5,6.7,4.2,10.2,4.9c0.6,0.1,1,0.6,1,1.2c-0.1,3.8,0.8,7.7,2.5,11
			c0.3,0.5,0.1,1.1-0.3,1.5c-3,2.3-5.5,5.4-7,8.8c-0.2,0.6-0.8,0.8-1.4,0.7c-4-1-8.1-0.8-11.3,0C11.3,31,10.7,30.8,10.5,30.2z"/>
	</g>
	<path fill="#800000" d="M10.5,30.2c-1.6-3.5-4.1-6.7-7-8.8c-0.5-0.4-0.6-1-0.3-1.5c1.7-3.2,27.1-3.3,28.8,0
		c0.3,0.5,0.1,1.1-0.3,1.5c-3,2.3-5.5,5.4-7,8.8c-0.2,0.6-0.8,0.8-1.4,0.7c-4-1-8.1-0.8-11.3,0C11.3,31,10.7,30.8,10.5,30.2z"/>
	<path fill="#800000" d="M10.5,30.2c-1.6-3.5-4.1-6.7-7-8.8c-0.5-0.4-0.6-1-0.3-1.5c1.7-3.2,27.1-3.3,28.8,0
		c0.3,0.5,0.1,1.1-0.3,1.5c-3,2.3-5.5,5.4-7,8.8c-0.2,0.6-0.8,0.8-1.4,0.7c-4-1-8.1-0.8-11.3,0C11.3,31,10.7,30.8,10.5,30.2z"/>
	<g>
		<path fill="#BF1B21" d="M10.5,30.2c-1.2-3.7-3.7-6.9-7-8.8c-0.5-0.3-0.7-1-0.3-1.5c2.2-3.2,3.1-7.2,2.5-11C5.5,8.3,6,7.7,6.6,7.7
			c3.9-0.3,7.5-2,10.2-4.9c0.4-0.4,1.1-0.4,1.5,0c2.7,2.9,6.3,4.6,10.2,4.9c0.6,0,1,0.6,1,1.2c-0.6,3.9,0.3,7.8,2.5,11
			c0.3,0.5,0.2,1.2-0.3,1.5c-3.4,2-5.9,5.1-7,8.8c-0.2,0.6-0.8,0.9-1.4,0.7c-4-1.5-8.1-1.2-11.3,0C11.3,31.1,10.7,30.8,10.5,30.2z"
			/>
	</g>
	<g>
		<path fill="#FF0000" d="M10.5,30.2c-1.2-3.7-3.7-6.9-7-8.8c-0.5-0.3-0.7-1-0.3-1.5c2.2-3.2,3.1-7.2,2.5-11C5.5,8.3,6,7.7,6.6,7.7
			c3.9-0.3,7.5-2,10.2-4.9c0.4-0.4,1.1-0.4,1.5,0c2.7,2.9,6.3,4.6,10.2,4.9c0.6,0,1,0.6,1,1.2c-0.6,3.9,0.3,7.8,2.5,11
			c0.3,0.5,0.2,1.2-0.3,1.5c-3.4,2-5.9,5.1-7,8.8c-0.2,0.6-0.8,0.9-1.4,0.7c-4-1.5-8.1-1.2-11.3,0C11.3,31.1,10.7,30.8,10.5,30.2z"
			/>
	</g>
	<g>
		<path fill="#D40000" d="M10.6,30c-1.1-3.6-3.6-6.7-6.9-8.6c-0.5-0.3-0.7-1-0.3-1.4c2.4-3,3.3-6.8,2.5-10.7
			C5.7,8.7,6.2,8.2,6.7,8.1c3.9-0.1,7.4-1.9,10-4.8c0.4-0.4,1.1-0.4,1.5,0c2.6,2.9,6.2,4.5,10,4.8c0.6,0,1,0.6,0.9,1.2
			c-0.6,3.7,0.3,7.6,2.5,10.7c0.3,0.5,0.2,1.2-0.3,1.4c-3.3,1.9-5.8,5-6.9,8.6c-0.2,0.6-0.8,0.9-1.4,0.6c-3.9-1.5-7.9-1.2-11.1,0
			C11.4,30.9,10.8,30.6,10.6,30z"/>
	</g>
	<g>
		<path fill="#CB0000" d="M10.5,30.2c-1.2-3.7-3.7-6.8-7-8.7c-0.5-0.3-0.6-1.8-0.2-1.3c5.6,7.4,20.2,9.7,28.5,0
			c0.4-0.5,0.3,1.1-0.2,1.4c-3.4,1.9-5.9,5-7,8.7c-0.2,0.6-0.8,0.9-1.4,0.7c-4-1.5-8.1-1.2-11.3,0C11.3,31.1,10.7,30.8,10.5,30.2z"
			/>
	</g>
	<path fill="#FFE1EA" d="M17.6,17.5h-0.2c-0.3,0-0.6-0.3-0.6-0.6V3.7c0-0.3,0.4-0.6,0.7-0.6h0.1c0.3,0,0.7,0.3,0.7,0.6v13.2
		C18.2,17.2,18,17.5,17.6,17.5z"/>
</g>
</svg>
