<?xml version="1.0" encoding="utf-8"?>
<!-- Generator: Adobe Illustrator 16.0.0, SVG Export Plug-In . SVG Version: 6.00 Build 0)  -->
<!DOCTYPE svg PUBLIC "-//W3C//DTD SVG 1.1//EN" "http://www.w3.org/Graphics/SVG/1.1/DTD/svg11.dtd">
<svg version="1.1" id="Layer_1" xmlns="http://www.w3.org/2000/svg" xmlns:xlink="http://www.w3.org/1999/xlink" x="0px" y="0px"
	 width="35px" height="35px" viewBox="0 0 35 35" enable-background="new 0 0 35 35" xml:space="preserve">
<rect fill="#E6E6E6" width="35" height="35"/>
<g>
	<defs>
		<rect id="SVGID_1_" width="35" height="35"/>
	</defs>
	<clipPath id="SVGID_2_">
		<use xlink:href="#SVGID_1_"  overflow="visible"/>
	</clipPath>
	<path clip-path="url(#SVGID_2_)" fill="#034EA2" d="M34.75,17.5c0,9.527-7.723,17.25-17.25,17.25c-9.527,0-17.25-7.724-17.25-17.25
		c0-9.526,7.723-17.25,17.25-17.25C27.027,0.25,34.75,7.974,34.75,17.5"/>
</g>
<g>
	<defs>
		<rect id="SVGID_3_" width="35" height="35"/>
	</defs>
	<clipPath id="SVGID_4_">
		<use xlink:href="#SVGID_3_"  overflow="visible"/>
	</clipPath>
	<path clip-path="url(#SVGID_4_)" fill="#1C3C77" d="M5.793,8.755L1.63,23.596c2.451,6.377,8.629,10.903,15.871,10.903
		c7.227,0,13.396-4.512,15.855-10.869L29.108,8.428L5.793,8.755z"/>
</g>
<g>
	<defs>
		<rect id="SVGID_5_" width="35" height="35"/>
	</defs>
	<clipPath id="SVGID_6_">
		<use xlink:href="#SVGID_5_"  overflow="visible"/>
	</clipPath>
	<path clip-path="url(#SVGID_6_)" fill="#0066B3" d="M34.501,17.5c0,9.39-7.612,17-17,17c-9.39,0-17-7.61-17-17
		c0-9.389,7.611-17,17-17C26.889,0.5,34.501,8.111,34.501,17.5 M33.021,17.5c0-8.559-6.963-15.521-15.521-15.521
		c-8.56,0-15.522,6.962-15.522,15.521c0,8.56,6.963,15.522,15.522,15.522C26.059,33.021,33.021,26.06,33.021,17.5"/>
	<path clip-path="url(#SVGID_6_)" fill="#004E95" d="M19.548,34.365c0.368-0.044,0.733-0.101,1.094-0.167
		c0.165-0.03,0.329-0.062,0.492-0.098c0.396-0.087,0.787-0.188,1.173-0.301c0.102-0.031,0.207-0.054,0.308-0.086
		c0.474-0.149,0.938-0.321,1.393-0.509c0.138-0.059,0.272-0.123,0.409-0.186c0.319-0.142,0.636-0.294,0.945-0.455
		c0.161-0.085,0.32-0.172,0.479-0.261c0.292-0.165,0.577-0.339,0.857-0.521c0.14-0.09,0.282-0.176,0.418-0.27
		c0.389-0.267,0.767-0.548,1.131-0.845c0.118-0.097,0.229-0.202,0.344-0.302c0.253-0.22,0.502-0.441,0.742-0.675
		c0.147-0.143,0.289-0.29,0.431-0.438c0.201-0.209,0.396-0.424,0.585-0.644c0.137-0.156,0.272-0.312,0.402-0.476
		c0.214-0.265,0.415-0.541,0.613-0.818c0.147-0.207,0.29-0.419,0.428-0.634c0.188-0.292,0.371-0.587,0.541-0.889
		c0.107-0.192,0.206-0.389,0.306-0.585c0.125-0.244,0.244-0.491,0.357-0.742c0.094-0.207,0.185-0.415,0.27-0.625
		c0.031-0.078,0.056-0.158,0.086-0.235l-0.735-2.632c-1.585,6.89-7.753,12.046-15.115,12.046c-7.375,0-13.554-5.176-15.124-12.083
		l-0.739,2.634c0.033,0.086,0.06,0.174,0.095,0.259c0.084,0.209,0.173,0.415,0.265,0.62c0.114,0.256,0.237,0.507,0.364,0.756
		c0.098,0.191,0.193,0.385,0.298,0.572c0.185,0.331,0.383,0.653,0.59,0.971c0.128,0.197,0.262,0.388,0.398,0.58
		c0.193,0.271,0.389,0.54,0.598,0.8c0.129,0.161,0.265,0.316,0.4,0.472c0.191,0.223,0.387,0.439,0.59,0.65
		c0.139,0.145,0.279,0.292,0.424,0.432c0.247,0.241,0.503,0.471,0.764,0.695c0.108,0.092,0.211,0.192,0.322,0.283
		c0.365,0.299,0.745,0.58,1.135,0.849c0.137,0.094,0.281,0.182,0.421,0.272c0.28,0.181,0.564,0.354,0.855,0.519
		c0.158,0.089,0.317,0.176,0.478,0.26c0.312,0.163,0.63,0.316,0.953,0.459c0.134,0.062,0.266,0.125,0.401,0.183
		c0.456,0.188,0.92,0.359,1.393,0.51c0.106,0.033,0.215,0.058,0.321,0.09c0.382,0.111,0.769,0.212,1.161,0.297
		c0.164,0.036,0.33,0.067,0.496,0.099c0.359,0.066,0.724,0.122,1.092,0.167c0.158,0.019,0.314,0.041,0.474,0.056
		c0.519,0.048,1.043,0.079,1.575,0.079c0.531,0,1.056-0.031,1.574-0.079C19.234,34.406,19.391,34.385,19.548,34.365"/>
</g>
<g>
	<defs>
		<rect id="SVGID_7_" width="35" height="35"/>
	</defs>
	<clipPath id="SVGID_8_">
		<use xlink:href="#SVGID_7_"  overflow="visible"/>
	</clipPath>
	<path clip-path="url(#SVGID_8_)" fill="#05438A" d="M10.583,30.032c-1.586-3.473-4.089-6.569-6.937-8.7
		c-0.476-0.356-0.616-0.944-0.335-1.467c1.682-3.136,2.487-7.005,2.476-10.847C5.785,8.426,6.15,7.995,6.725,7.843
		c3.379-0.897,6.972-2.605,10.023-4.828c0.48-0.349,1.047-0.379,1.504,0c3.001,2.484,6.617,4.179,10.023,4.828
		c0.583,0.11,0.953,0.583,0.938,1.175c-0.091,3.732,0.766,7.611,2.476,10.847c0.277,0.524,0.136,1.104-0.335,1.467
		c-2.928,2.248-5.46,5.311-6.937,8.699c-0.237,0.545-0.783,0.799-1.358,0.651c-3.936-1.005-7.976-0.778-11.116-0.002
		C11.363,30.825,10.831,30.575,10.583,30.032"/>
	<path clip-path="url(#SVGID_8_)" fill="#003370" d="M10.583,30.032c-1.586-3.473-4.089-6.569-6.937-8.7
		c-0.476-0.356-0.616-0.944-0.335-1.467c1.682-3.136,26.669-3.236,28.379,0c0.277,0.524,0.136,1.104-0.335,1.467
		c-2.928,2.248-5.46,5.311-6.937,8.699c-0.237,0.545-0.783,0.799-1.358,0.651c-3.936-1.005-7.976-0.778-11.116-0.002
		C11.363,30.825,10.831,30.575,10.583,30.032"/>
</g>
<g>
	<defs>
		<rect id="SVGID_9_" width="35" height="35"/>
	</defs>
	<clipPath id="SVGID_10_">
		<use xlink:href="#SVGID_9_"  overflow="visible"/>
	</clipPath>
	<path clip-path="url(#SVGID_10_)" fill="#034EA2" d="M10.583,30.032c-1.134-3.67-3.613-6.777-6.937-8.7
		c-0.514-0.297-0.669-0.977-0.335-1.467c2.161-3.174,3.045-7.049,2.476-10.847C5.699,8.431,6.132,7.887,6.725,7.843
		c3.829-0.29,7.409-2.015,10.023-4.828c0.404-0.434,1.101-0.434,1.504,0c2.613,2.813,6.195,4.538,10.023,4.828
		c0.592,0.044,1.026,0.588,0.938,1.175c-0.57,3.798,0.314,7.673,2.476,10.847c0.334,0.49,0.179,1.17-0.335,1.467
		c-3.324,1.923-5.803,5.03-6.937,8.699c-0.176,0.567-0.805,0.867-1.358,0.651c-3.905-1.521-7.949-1.228-11.116-0.002
		C11.387,30.896,10.758,30.602,10.583,30.032"/>
	<path clip-path="url(#SVGID_10_)" fill="#007DC0" d="M10.583,30.032c-1.134-3.67-3.613-6.777-6.937-8.7
		c-0.514-0.297-0.669-0.977-0.335-1.467c2.161-3.174,3.045-7.049,2.476-10.847C5.699,8.431,6.132,7.887,6.725,7.843
		c3.829-0.29,7.409-2.015,10.023-4.828c0.404-0.434,1.101-0.434,1.504,0c2.613,2.813,6.195,4.538,10.023,4.828
		c0.592,0.044,1.026,0.588,0.938,1.175c-0.57,3.798,0.314,7.673,2.476,10.847c0.334,0.49,0.179,1.17-0.335,1.467
		c-3.324,1.923-5.803,5.03-6.937,8.699c-0.176,0.567-0.805,0.867-1.358,0.651c-3.905-1.521-7.949-1.228-11.116-0.002
		C11.387,30.896,10.758,30.602,10.583,30.032"/>
	<path clip-path="url(#SVGID_10_)" fill="#034EA2" d="M10.698,29.821c-1.115-3.562-3.552-6.579-6.821-8.444
		c-0.506-0.289-0.69-0.972-0.329-1.425c2.376-2.985,3.258-6.741,2.434-10.529C5.859,8.86,6.321,8.301,6.904,8.281
		c3.811-0.134,7.327-1.833,9.856-4.686c0.384-0.433,1.092-0.43,1.479,0c2.563,2.852,6.123,4.471,9.855,4.686
		c0.582,0.033,1.01,0.572,0.923,1.143c-0.561,3.685,0.31,7.447,2.435,10.528c0.328,0.476,0.176,1.136-0.329,1.425
		c-3.27,1.865-5.706,4.881-6.821,8.444c-0.173,0.551-0.791,0.842-1.336,0.633c-3.839-1.479-7.815-1.194-10.93-0.002
		C11.489,30.661,10.871,30.376,10.698,29.821"/>
	<path clip-path="url(#SVGID_10_)" fill="#064C98" d="M10.583,30.042c-1.134-3.623-3.613-6.691-6.937-8.589
		c-0.514-0.294-0.544-1.771-0.189-1.302c5.538,7.326,19.864,9.524,28.125-0.037c0.385-0.444,0.287,1.045-0.227,1.339
		c-3.324,1.897-5.803,4.965-6.937,8.588c-0.176,0.561-0.805,0.855-1.358,0.644c-3.905-1.503-7.949-1.214-11.116-0.002
		C11.387,30.896,10.758,30.604,10.583,30.042"/>
</g>
<g>
	<defs>
		<rect id="SVGID_11_" width="35" height="35"/>
	</defs>
	<clipPath id="SVGID_12_">
		<use xlink:href="#SVGID_11_"  overflow="visible"/>
	</clipPath>
	<path clip-path="url(#SVGID_12_)" fill="#E1F4FD" d="M17.624,17.608h-0.248c-0.346,0-0.626-0.28-0.626-0.626V4.289
		c0-0.346,0.364-0.626,0.709-0.626h0.08c0.346,0,0.711,0.28,0.711,0.626v12.693C18.25,17.328,17.97,17.608,17.624,17.608"/>
</g>
</svg>
