<?xml version="1.0" encoding="UTF-8" standalone="no"?>
<!-- Created with Inkscape (http://www.inkscape.org/) -->

<svg
   xmlns:dc="http://purl.org/dc/elements/1.1/"
   xmlns:cc="http://creativecommons.org/ns#"
   xmlns:rdf="http://www.w3.org/1999/02/22-rdf-syntax-ns#"
   xmlns:svg="http://www.w3.org/2000/svg"
   xmlns="http://www.w3.org/2000/svg"
   xmlns:sodipodi="http://sodipodi.sourceforge.net/DTD/sodipodi-0.dtd"
   xmlns:inkscape="http://www.inkscape.org/namespaces/inkscape"
   width="31.797722mm"
   height="100.54166mm"
   viewBox="0 0 31.797722 100.54167"
   version="1.1"
   id="svg4541"
   sodipodi:docname="FixedFilterBank.svg"
   inkscape:version="0.91 r13725">
  <defs
     id="defs4535" />
  <sodipodi:namedview
     id="base"
     pagecolor="#ffffff"
     bordercolor="#666666"
     borderopacity="1.0"
     inkscape:pageopacity="0.0"
     inkscape:pageshadow="2"
     inkscape:zoom="5.1811627"
     inkscape:cx="51.937818"
     inkscape:cy="222.79934"
     inkscape:document-units="mm"
     inkscape:current-layer="layer2"
     showgrid="false"
     fit-margin-top="0"
     fit-margin-left="0"
     fit-margin-right="0"
     fit-margin-bottom="0"
     inkscape:window-width="1366"
     inkscape:window-height="715"
     inkscape:window-x="-8"
     inkscape:window-y="-8"
     inkscape:window-maximized="1" />
  <metadata
     id="metadata4538">
    <rdf:RDF>
      <cc:Work
         rdf:about="">
        <dc:format>image/svg+xml</dc:format>
        <dc:type
           rdf:resource="http://purl.org/dc/dcmitype/StillImage" />
        <dc:title></dc:title>
      </cc:Work>
    </rdf:RDF>
  </metadata>
  <g
     inkscape:groupmode="layer"
     id="layer11"
     inkscape:label="SFONDO"
     style="display:inline">
    <rect
       style="fill:#ececec"
       id="rect7273"
       width="217.63713"
       height="398.75797"
       x="-1119.874"
       y="-25.85247" />
    <path
       style="fill:#e6e6e6;fill-opacity:1"
       d="m -2.8222249,-3.2758048 45.9619139,0 0,116.5174748 -45.9619139,0 z"
       id="rect7279" />
  </g>
  <g
     inkscape:label="Layer 1"
     inkscape:groupmode="layer"
     id="layer1"
     transform="translate(-49.620829,-52.061968)"
     style="display:inline">
    <g
       transform="matrix(0.27602379,0,0,0.27602379,354.09618,57.736346)"
       id="g13122"
       style="display:inline;stroke-width:0.9585526">
      <g
         transform="translate(-167.07644,-20.557569)"
         id="g13178"
         style="stroke-width:0.91882312">
        <path
           style="fill:#212121;fill-opacity:1;fill-rule:nonzero;stroke:none;stroke-width:0.91882312"
           d="m -828.96098,297.40625 c 0,-1.55859 -1.27735,-2.83203 -2.83594,-2.83203 l -21.77344,0 c -1.55859,0 -2.83593,1.27344 -2.83593,2.83203 l 0,33.08984 c 0,1.5586 1.27734,2.83594 2.83593,2.83594 l 21.77344,0 c 1.55859,0 2.83594,-1.27734 2.83594,-2.83594 z m 0,0"
           id="path25247"
           inkscape:connector-curvature="0" />
        <path
           inkscape:connector-curvature="0"
           id="path11926"
           d="m -884.35011,302.82517 c 0,0.28125 0.21875,0.5 0.5,0.5 l 2.35937,0 c 0.25,0 0.45313,-0.20312 0.45313,-0.45312 0,-0.25 -0.20313,-0.45313 -0.45313,-0.45313 l -1.85937,0 0,-3.1875 c 0,-0.28125 -0.21875,-0.5 -0.5,-0.5 -0.28125,0 -0.5,0.21875 -0.5,0.5 z m 0,0"
           style="fill:#e6e6e6;fill-opacity:1;stroke:none;stroke-width:0.91882312" />
        <path
           inkscape:connector-curvature="0"
           id="path11922"
           d="m -880.17063,302.85642 c 0,0.28125 0.21875,0.5 0.5,0.5 0.28125,0 0.5,-0.21875 0.5,-0.5 l 0,-0.89062 0.76562,0 c 1.01563,0 1.82813,-0.54688 1.82813,-1.60938 l 0,-0.0156 c 0,-0.92188 -0.65625,-1.5625 -1.73438,-1.5625 l -1.35937,0 c -0.28125,0 -0.5,0.21875 -0.5,0.5 z m 1,-1.78125 0,-1.39062 0.78125,0 c 0.5,0 0.8125,0.23437 0.8125,0.6875 l 0,0.0156 c 0,0.39063 -0.29688,0.6875 -0.79688,0.6875 z m 0,0"
           style="fill:#e6e6e6;fill-opacity:1;stroke:none;stroke-width:0.91882312" />
        <path
           inkscape:connector-curvature="0"
           id="path11918"
           d="m -875.61866,302.85642 c 0,0.28125 0.21875,0.5 0.5,0.5 0.28125,0 0.5,-0.21875 0.5,-0.5 l 0,-1.29687 1.75,0 c 0.26562,0 0.45312,-0.20313 0.45312,-0.45313 0,-0.25 -0.1875,-0.45312 -0.45312,-0.45312 l -1.75,0 0,-0.96875 2.04687,0 c 0.25,0 0.45313,-0.20313 0.45313,-0.45313 0,-0.25 -0.20313,-0.45312 -0.45313,-0.45312 l -2.54687,0 c -0.28125,0 -0.5,0.21875 -0.5,0.5 z m 0,0"
           style="fill:#e6e6e6;fill-opacity:1;stroke:none;stroke-width:0.91882312" />
        <path
           inkscape:connector-curvature="0"
           id="path11794"
           d="m -901.98545,302.9658 c 0,0.21875 0.1875,0.39062 0.40625,0.39062 0.21875,0 0.39062,-0.17187 0.39062,-0.39062 l 0,-2.89063 2.34375,3.03125 c 0.10938,0.14063 0.21875,0.25 0.40625,0.25 l 0.0312,0 c 0.21875,0 0.39063,-0.1875 0.39063,-0.40625 l 0,-3.8125 c 0,-0.21875 -0.17188,-0.39062 -0.39063,-0.39062 -0.21875,0 -0.39062,0.17187 -0.39062,0.39062 l 0,2.79688 -2.28125,-2.95313 c -0.10938,-0.14062 -0.21875,-0.23437 -0.40625,-0.23437 l -0.0937,0 c -0.21875,0 -0.40625,0.1875 -0.40625,0.40625 z m 0,0"
           style="fill:#000000;fill-opacity:1;stroke:none;stroke-width:0.91882312" />
        <g
           style="font-style:normal;font-weight:normal;font-size:40.89825058px;line-height:125%;font-family:sans-serif;letter-spacing:0px;word-spacing:0px;fill:#000000;fill-opacity:1;stroke:none;stroke-width:1px;stroke-linecap:butt;stroke-linejoin:miter;stroke-opacity:1"
           id="text6523" />
      </g>
      <g
         inkscape:groupmode="layer"
         id="layer10"
         inkscape:label="Layer 2"
         style="display:inline" />
    </g>
    <g
       style="font-style:normal;font-weight:normal;font-size:11.28889084px;line-height:125%;font-family:sans-serif;letter-spacing:0px;word-spacing:0px;fill:#000000;fill-opacity:1;stroke:none;stroke-width:1px;stroke-linecap:butt;stroke-linejoin:miter;stroke-opacity:1"
       id="text5438"
       transform="translate(0,1.6933335)">
      <path
         d="m 59.899023,51.880637 -1.00769,0 0,0.645955 0.842326,0 q 0.117133,0 0.173977,0.0534 0.05857,0.05168 0.05857,0.139527 0,0.08785 -0.05857,0.139526 -0.05857,0.05168 -0.173977,0.05168 l -0.842326,0 0,0.83199 q 0,0.158475 -0.07235,0.235989 -0.07062,0.07579 -0.18259,0.07579 -0.113689,0 -0.186036,-0.07751 -0.07062,-0.07752 -0.07062,-0.234267 l 0,-1.943034 q 0,-0.110243 0.03273,-0.179145 0.03273,-0.07062 0.101631,-0.10163 0.07062,-0.03273 0.179145,-0.03273 l 1.205783,0 q 0.122301,0 0.180868,0.05512 0.06029,0.0534 0.06029,0.141249 0,0.08957 -0.06029,0.144694 -0.05857,0.0534 -0.180868,0.0534 z"
         style="font-style:normal;font-variant:normal;font-weight:normal;font-stretch:normal;font-size:3.52777839px;font-family:'Arial Rounded MT Bold';-inkscape-font-specification:'Arial Rounded MT Bold, ';text-align:center;text-anchor:middle"
         id="path5505"
         inkscape:connector-curvature="0" />
      <path
         d="m 60.539811,53.742711 0,-1.989543 q 0,-0.155029 0.07062,-0.232544 0.07062,-0.07751 0.18259,-0.07751 0.11541,0 0.186035,0.07751 0.07235,0.07579 0.07235,0.232544 l 0,1.989543 q 0,0.156752 -0.07235,0.234267 -0.07062,0.07751 -0.186035,0.07751 -0.110243,0 -0.18259,-0.07751 -0.07062,-0.07924 -0.07062,-0.234267 z"
         style="font-style:normal;font-variant:normal;font-weight:normal;font-stretch:normal;font-size:3.52777839px;font-family:'Arial Rounded MT Bold';-inkscape-font-specification:'Arial Rounded MT Bold, ';text-align:center;text-anchor:middle"
         id="path5507"
         inkscape:connector-curvature="0" />
      <path
         d="m 61.528554,53.520503 0.564995,-0.825101 -0.475423,-0.733805 q -0.06718,-0.106798 -0.10163,-0.18259 -0.03273,-0.07751 -0.03273,-0.14814 0,-0.07235 0.06374,-0.129191 0.06546,-0.05857 0.158474,-0.05857 0.106798,0 0.165365,0.06373 0.06029,0.06201 0.165364,0.232544 l 0.378961,0.613227 0.404799,-0.613227 q 0.04995,-0.07751 0.08441,-0.132636 0.03617,-0.05512 0.0689,-0.0913 0.03273,-0.03617 0.07235,-0.0534 0.04134,-0.01895 0.09474,-0.01895 0.09646,0 0.156752,0.05857 0.06201,0.05684 0.06201,0.136082 0,0.11541 -0.132636,0.313503 l -0.497816,0.744141 0.535712,0.825101 q 0.07235,0.10852 0.105076,0.180867 0.03273,0.07062 0.03273,0.134359 0,0.06029 -0.02928,0.110243 -0.02928,0.04995 -0.08268,0.07924 -0.0534,0.02928 -0.120578,0.02928 -0.07235,0 -0.122301,-0.03101 -0.04995,-0.02928 -0.08096,-0.07407 -0.03101,-0.04479 -0.11541,-0.173977 l -0.444418,-0.699355 -0.471978,0.720025 q -0.05512,0.08613 -0.07924,0.120579 -0.02239,0.03445 -0.05512,0.06718 -0.03273,0.03273 -0.07751,0.05168 -0.04479,0.01895 -0.105076,0.01895 -0.09302,0 -0.155029,-0.05685 -0.06029,-0.05684 -0.06029,-0.165364 0,-0.127469 0.125746,-0.311781 z"
         style="font-style:normal;font-variant:normal;font-weight:normal;font-stretch:normal;font-size:3.52777839px;font-family:'Arial Rounded MT Bold';-inkscape-font-specification:'Arial Rounded MT Bold, ';text-align:center;text-anchor:middle"
         id="path5509"
         inkscape:connector-curvature="0" />
      <path
         d="m 65.414622,51.880637 -1.152385,0 0,0.620117 1.06109,0 q 0.117133,0 0.173977,0.0534 0.05857,0.05168 0.05857,0.137804 0,0.08613 -0.05684,0.141249 -0.05684,0.0534 -0.1757,0.0534 l -1.06109,0 0,0.718302 1.192004,0 q 0.120578,0 0.180867,0.05685 0.06201,0.05512 0.06201,0.148139 0,0.08957 -0.06201,0.146416 -0.06029,0.05512 -0.180867,0.05512 l -1.390097,0 q -0.167087,0 -0.241156,-0.07407 -0.07235,-0.07407 -0.07235,-0.239434 l 0,-1.898248 q 0,-0.110243 0.03273,-0.179145 0.03273,-0.07062 0.10163,-0.10163 0.07062,-0.03273 0.179145,-0.03273 l 1.350478,0 q 0.122301,0 0.180868,0.05512 0.06029,0.0534 0.06029,0.141249 0,0.08957 -0.06029,0.144694 -0.05857,0.0534 -0.180868,0.0534 z"
         style="font-style:normal;font-variant:normal;font-weight:normal;font-stretch:normal;font-size:3.52777839px;font-family:'Arial Rounded MT Bold';-inkscape-font-specification:'Arial Rounded MT Bold, ';text-align:center;text-anchor:middle"
         id="path5511"
         inkscape:connector-curvature="0" />
      <path
         d="m 66.424035,51.486173 0.666626,0 q 0.260105,0 0.44614,0.04823 0.186036,0.04823 0.33762,0.180867 0.394463,0.33762 0.394463,1.026639 0,0.227376 -0.03962,0.415134 -0.03962,0.187758 -0.122301,0.339342 -0.08268,0.149862 -0.211874,0.268717 -0.10163,0.0913 -0.222208,0.146417 -0.120579,0.05512 -0.260105,0.07751 -0.137804,0.02239 -0.311781,0.02239 l -0.666626,0 q -0.139527,0 -0.210151,-0.04134 -0.07063,-0.04306 -0.09302,-0.118856 -0.02067,-0.07752 -0.02067,-0.199816 l 0,-1.851739 q 0,-0.165364 0.07407,-0.239434 0.07407,-0.07407 0.239434,-0.07407 z m 0.198093,0.404799 0,1.713935 0.387574,0 q 0.127468,0 0.199815,-0.0069 0.07235,-0.0069 0.149862,-0.03445 0.07751,-0.02756 0.134359,-0.07751 0.256659,-0.217041 0.256659,-0.747586 0,-0.373793 -0.113688,-0.559828 -0.111966,-0.186035 -0.27733,-0.235989 -0.165365,-0.05168 -0.399631,-0.05168 l -0.33762,0 z"
         style="font-style:normal;font-variant:normal;font-weight:normal;font-stretch:normal;font-size:3.52777839px;font-family:'Arial Rounded MT Bold';-inkscape-font-specification:'Arial Rounded MT Bold, ';text-align:center;text-anchor:middle"
         id="path5513"
         inkscape:connector-curvature="0" />
      <path
         d="m 71.109366,51.880637 -1.007691,0 0,0.645955 0.842326,0 q 0.117133,0 0.173977,0.0534 0.05857,0.05168 0.05857,0.139527 0,0.08785 -0.05857,0.139526 -0.05857,0.05168 -0.173977,0.05168 l -0.842326,0 0,0.83199 q 0,0.158475 -0.07235,0.235989 -0.07062,0.07579 -0.18259,0.07579 -0.113688,0 -0.186035,-0.07751 -0.07062,-0.07752 -0.07062,-0.234267 l 0,-1.943034 q 0,-0.110243 0.03273,-0.179145 0.03273,-0.07062 0.10163,-0.10163 0.07063,-0.03273 0.179145,-0.03273 l 1.205784,0 q 0.122301,0 0.180867,0.05512 0.06029,0.0534 0.06029,0.141249 0,0.08957 -0.06029,0.144694 -0.05857,0.0534 -0.180867,0.0534 z"
         style="font-style:normal;font-variant:normal;font-weight:normal;font-stretch:normal;font-size:3.52777839px;font-family:'Arial Rounded MT Bold';-inkscape-font-specification:'Arial Rounded MT Bold, ';text-align:center;text-anchor:middle"
         id="path5515"
         inkscape:connector-curvature="0" />
      <path
         d="m 71.750153,53.742711 0,-1.989543 q 0,-0.155029 0.07063,-0.232544 0.07062,-0.07751 0.18259,-0.07751 0.115411,0 0.186035,0.07751 0.07235,0.07579 0.07235,0.232544 l 0,1.989543 q 0,0.156752 -0.07235,0.234267 -0.07062,0.07751 -0.186035,0.07751 -0.110243,0 -0.18259,-0.07751 -0.07063,-0.07924 -0.07063,-0.234267 z"
         style="font-style:normal;font-variant:normal;font-weight:normal;font-stretch:normal;font-size:3.52777839px;font-family:'Arial Rounded MT Bold';-inkscape-font-specification:'Arial Rounded MT Bold, ';text-align:center;text-anchor:middle"
         id="path5517"
         inkscape:connector-curvature="0" />
      <path
         d="m 73.333175,51.753168 0,1.837959 1.036974,0 q 0.124023,0 0.18948,0.06029 0.06718,0.06029 0.06718,0.151585 0,0.09302 -0.06546,0.151584 -0.06546,0.05684 -0.191202,0.05684 l -1.235067,0 q -0.167087,0 -0.241157,-0.07407 -0.07235,-0.07407 -0.07235,-0.239434 l 0,-1.944757 q 0,-0.155029 0.0689,-0.232544 0.07062,-0.07751 0.184313,-0.07751 0.11541,0 0.186035,0.07751 0.07235,0.07579 0.07235,0.232544 z"
         style="font-style:normal;font-variant:normal;font-weight:normal;font-stretch:normal;font-size:3.52777839px;font-family:'Arial Rounded MT Bold';-inkscape-font-specification:'Arial Rounded MT Bold, ';text-align:center;text-anchor:middle"
         id="path5519"
         inkscape:connector-curvature="0" />
      <path
         d="m 76.159877,51.908198 -0.558106,0 0,1.834513 q 0,0.158475 -0.07062,0.235989 -0.07063,0.07579 -0.18259,0.07579 -0.113688,0 -0.186035,-0.07751 -0.07062,-0.07752 -0.07062,-0.234267 l 0,-1.834513 -0.558105,0 q -0.130914,0 -0.194648,-0.05684 -0.06374,-0.05857 -0.06374,-0.153307 0,-0.09819 0.06546,-0.15503 0.06718,-0.05684 0.192926,-0.05684 l 1.626085,0 q 0.132636,0 0.19637,0.05857 0.06546,0.05857 0.06546,0.153307 0,0.09474 -0.06546,0.153307 -0.06546,0.05684 -0.19637,0.05684 z"
         style="font-style:normal;font-variant:normal;font-weight:normal;font-stretch:normal;font-size:3.52777839px;font-family:'Arial Rounded MT Bold';-inkscape-font-specification:'Arial Rounded MT Bold, ';text-align:center;text-anchor:middle"
         id="path5521"
         inkscape:connector-curvature="0" />
      <path
         d="m 78.388853,51.880637 -1.152384,0 0,0.620117 1.061089,0 q 0.117134,0 0.173978,0.0534 0.05857,0.05168 0.05857,0.137804 0,0.08613 -0.05684,0.141249 -0.05684,0.0534 -0.1757,0.0534 l -1.061089,0 0,0.718302 1.192003,0 q 0.120578,0 0.180867,0.05685 0.06201,0.05512 0.06201,0.148139 0,0.08957 -0.06201,0.146416 -0.06029,0.05512 -0.180867,0.05512 l -1.390096,0 q -0.167088,0 -0.241157,-0.07407 -0.07235,-0.07407 -0.07235,-0.239434 l 0,-1.898248 q 0,-0.110243 0.03273,-0.179145 0.03273,-0.07062 0.101631,-0.10163 0.07062,-0.03273 0.179145,-0.03273 l 1.350477,0 q 0.122301,0 0.180868,0.05512 0.06029,0.0534 0.06029,0.141249 0,0.08957 -0.06029,0.144694 -0.05857,0.0534 -0.180868,0.0534 z"
         style="font-style:normal;font-variant:normal;font-weight:normal;font-stretch:normal;font-size:3.52777839px;font-family:'Arial Rounded MT Bold';-inkscape-font-specification:'Arial Rounded MT Bold, ';text-align:center;text-anchor:middle"
         id="path5523"
         inkscape:connector-curvature="0" />
      <path
         d="m 79.768614,52.931391 -0.179145,0 0,0.81132 q 0,0.160197 -0.07062,0.235989 -0.07062,0.07579 -0.184312,0.07579 -0.122301,0 -0.189481,-0.07924 -0.06718,-0.07924 -0.06718,-0.232544 l 0,-1.943034 q 0,-0.165364 0.07407,-0.239434 0.07407,-0.07407 0.239434,-0.07407 l 0.831991,0 q 0.172254,0 0.294555,0.0155 0.122301,0.01378 0.220486,0.05857 0.118856,0.04995 0.210151,0.142971 0.0913,0.09302 0.137804,0.217042 0.04823,0.1223 0.04823,0.260104 0,0.282498 -0.160196,0.451308 -0.158475,0.16881 -0.482314,0.239434 0.136081,0.07235 0.260105,0.213596 0.124023,0.141249 0.220486,0.301446 0.09819,0.158474 0.151584,0.287665 0.05512,0.127469 0.05512,0.1757 0,0.04995 -0.03273,0.09991 -0.03101,0.04823 -0.08613,0.07579 -0.05512,0.02928 -0.127469,0.02928 -0.08613,0 -0.144694,-0.04134 -0.05857,-0.03962 -0.10163,-0.10163 -0.04134,-0.06201 -0.113688,-0.18259 l -0.204983,-0.341065 q -0.110243,-0.187757 -0.198093,-0.285943 -0.08613,-0.09819 -0.1757,-0.134358 -0.08957,-0.03617 -0.225654,-0.03617 z m 0.292833,-1.061089 -0.471978,0 0,0.694186 0.458198,0 q 0.184312,0 0.310058,-0.03101 0.125746,-0.03273 0.191203,-0.108521 0.06718,-0.07751 0.06718,-0.211873 0,-0.105076 -0.0534,-0.184313 -0.0534,-0.08096 -0.14814,-0.120578 -0.08957,-0.0379 -0.353122,-0.0379 z"
         style="font-style:normal;font-variant:normal;font-weight:normal;font-stretch:normal;font-size:3.52777839px;font-family:'Arial Rounded MT Bold';-inkscape-font-specification:'Arial Rounded MT Bold, ';text-align:center;text-anchor:middle"
         id="path5525"
         inkscape:connector-curvature="0" />
      <path
         d="m 65.965837,58.421152 -0.771701,0 q -0.167087,0 -0.239434,-0.07407 -0.07062,-0.07579 -0.07062,-0.239434 l 0,-1.898248 q 0,-0.167087 0.07235,-0.239434 0.07407,-0.07407 0.237712,-0.07407 l 0.81821,0 q 0.180868,0 0.313504,0.02239 0.132636,0.02239 0.237712,0.08613 0.08957,0.0534 0.158474,0.136081 0.0689,0.08096 0.105075,0.180868 0.03617,0.09819 0.03617,0.208428 0,0.378961 -0.378961,0.554661 0.497817,0.158474 0.497817,0.616672 0,0.211873 -0.108521,0.382405 -0.10852,0.16881 -0.292833,0.24977 -0.115411,0.04823 -0.265272,0.0689 -0.149862,0.01895 -0.349678,0.01895 z m -0.0379,-1.121379 -0.532267,0 0,0.737251 0.549493,0 q 0.518487,0 0.518487,-0.373793 0,-0.191203 -0.134359,-0.277331 -0.134359,-0.08613 -0.401354,-0.08613 z m -0.532267,-1.019748 0,0.652845 0.468533,0 q 0.191203,0 0.294556,-0.03617 0.105075,-0.03617 0.160197,-0.137804 0.04306,-0.07235 0.04306,-0.16192 0,-0.191202 -0.136082,-0.253214 -0.136081,-0.06373 -0.415134,-0.06373 l -0.415134,0 z"
         style="font-style:normal;font-variant:normal;font-weight:normal;font-stretch:normal;font-size:3.52777839px;font-family:'Arial Rounded MT Bold';-inkscape-font-specification:'Arial Rounded MT Bold, ';text-align:center;text-anchor:middle"
         id="path5527"
         inkscape:connector-curvature="0" />
      <path
         d="m 68.90795,58.135209 -0.120579,-0.316949 -1.026638,0 -0.120579,0.323839 q -0.07062,0.18948 -0.120578,0.25666 -0.04995,0.06546 -0.163642,0.06546 -0.09646,0 -0.170532,-0.07062 -0.07407,-0.07062 -0.07407,-0.160197 0,-0.05168 0.01722,-0.106798 0.01723,-0.05512 0.05684,-0.153307 l 0.645955,-1.639865 q 0.02756,-0.07062 0.06546,-0.16881 0.03962,-0.09991 0.08268,-0.165365 0.04479,-0.06546 0.115411,-0.105075 0.07235,-0.04134 0.177422,-0.04134 0.106798,0 0.177423,0.04134 0.07235,0.03962 0.115411,0.103353 0.04479,0.06373 0.07407,0.137804 0.03101,0.07235 0.07751,0.194647 l 0.659736,1.629531 q 0.07751,0.186035 0.07751,0.27044 0,0.08785 -0.07407,0.16192 -0.07235,0.07235 -0.1757,0.07235 -0.06029,0 -0.103353,-0.02239 -0.04306,-0.02067 -0.07235,-0.05684 -0.02928,-0.0379 -0.06373,-0.113688 -0.03273,-0.07751 -0.05684,-0.136081 z m -1.012859,-0.701077 0.754476,0 -0.380683,-1.042142 -0.373793,1.042142 z"
         style="font-style:normal;font-variant:normal;font-weight:normal;font-stretch:normal;font-size:3.52777839px;font-family:'Arial Rounded MT Bold';-inkscape-font-specification:'Arial Rounded MT Bold, ';text-align:center;text-anchor:middle"
         id="path5529"
         inkscape:connector-curvature="0" />
      <path
         d="m 70.494416,56.159446 0.983575,1.488282 0,-1.502062 q 0,-0.146417 0.06201,-0.218764 0.06373,-0.07407 0.170532,-0.07407 0.110243,0 0.173977,0.07407 0.06373,0.07235 0.06373,0.218764 l 0,1.986098 q 0,0.332452 -0.275608,0.332452 -0.0689,0 -0.124024,-0.02067 -0.05512,-0.01895 -0.103352,-0.06201 -0.04823,-0.04306 -0.08957,-0.09991 -0.04134,-0.05857 -0.08268,-0.118855 l -0.959459,-1.471056 0,1.479668 q 0,0.144694 -0.06718,0.218764 -0.06718,0.07407 -0.172255,0.07407 -0.10852,0 -0.173977,-0.07407 -0.06546,-0.07579 -0.06546,-0.218764 l 0,-1.948201 q 0,-0.124024 0.02756,-0.194648 0.03273,-0.07752 0.10852,-0.125746 0.07579,-0.04995 0.163643,-0.04995 0.0689,0 0.117133,0.02239 0.04995,0.02239 0.08613,0.06029 0.0379,0.0379 0.07579,0.09819 0.03962,0.06029 0.08096,0.125746 z"
         style="font-style:normal;font-variant:normal;font-weight:normal;font-stretch:normal;font-size:3.52777839px;font-family:'Arial Rounded MT Bold';-inkscape-font-specification:'Arial Rounded MT Bold, ';text-align:center;text-anchor:middle"
         id="path5531"
         inkscape:connector-curvature="0" />
      <path
         d="m 73.023117,56.162891 0,0.88539 1.004245,-1.047309 q 0.07235,-0.07579 0.122301,-0.111966 0.05168,-0.03617 0.136082,-0.03617 0.110243,0 0.177422,0.06546 0.0689,0.06373 0.0689,0.156751 0,0.111966 -0.115411,0.222209 l -0.62184,0.589112 0.71658,1.026638 q 0.07579,0.106798 0.113688,0.187758 0.0379,0.07924 0.0379,0.155029 0,0.08441 -0.06718,0.146417 -0.06546,0.06201 -0.179145,0.06201 -0.106798,0 -0.173977,-0.04479 -0.06718,-0.04651 -0.113688,-0.122301 -0.04651,-0.07579 -0.08268,-0.137803 L 73.4417,57.22915 l -0.418579,0.401353 0,0.521932 q 0,0.158475 -0.07235,0.235989 -0.07235,0.07579 -0.186035,0.07579 -0.06546,0 -0.125746,-0.03445 -0.06029,-0.03445 -0.09302,-0.09302 -0.02412,-0.04823 -0.02928,-0.111966 -0.0052,-0.06373 -0.0052,-0.184312 l 0,-1.877578 q 0,-0.155029 0.06718,-0.232544 0.0689,-0.07751 0.186036,-0.07751 0.11541,0 0.186035,0.07751 0.07235,0.07579 0.07235,0.232544 z"
         style="font-style:normal;font-variant:normal;font-weight:normal;font-stretch:normal;font-size:3.52777839px;font-family:'Arial Rounded MT Bold';-inkscape-font-specification:'Arial Rounded MT Bold, ';text-align:center;text-anchor:middle"
         id="path5533"
         inkscape:connector-curvature="0" />
    </g>
    <flowRoot
       xml:space="preserve"
       id="flowRoot5444"
       style="font-style:normal;font-weight:normal;font-size:40px;line-height:125%;font-family:sans-serif;letter-spacing:0px;word-spacing:0px;fill:#000000;fill-opacity:1;stroke:none;stroke-width:1px;stroke-linecap:butt;stroke-linejoin:miter;stroke-opacity:1"
       transform="matrix(0.28222227,0,0,0.28222226,49.620827,52.061968)"><flowRegion
         id="flowRegion5446"><rect
           id="rect5448"
           width="93.029312"
           height="43.619553"
           x="26.248934"
           y="1.1173221" /></flowRegion><flowPara
         id="flowPara5450"></flowPara></flowRoot>    <g
       style="font-style:normal;font-weight:normal;font-size:11.28889084px;line-height:125%;font-family:sans-serif;letter-spacing:0px;word-spacing:0px;fill:#000000;fill-opacity:1;stroke:none;stroke-width:1px;stroke-linecap:butt;stroke-linejoin:miter;stroke-opacity:1"
       id="text5535">
      <path
         d="m 74.118329,134.52326 q 0.19637,0 0.336758,0.0801 0.141249,0.0792 0.213596,0.22651 0.07235,0.14642 0.07235,0.34451 0,0.14642 -0.03962,0.26614 -0.03962,0.11971 -0.118856,0.20756 -0.07924,0.0879 -0.194648,0.13436 -0.11541,0.0465 -0.264411,0.0465 -0.148139,0 -0.265272,-0.0474 -0.117133,-0.0482 -0.195509,-0.13522 -0.07838,-0.087 -0.118856,-0.20929 -0.03962,-0.1223 -0.03962,-0.26441 0,-0.14556 0.04134,-0.267 0.0422,-0.12143 0.12144,-0.2067 0.07924,-0.0853 0.192925,-0.13005 0.113689,-0.0456 0.258383,-0.0456 z m 0.363457,0.6494 q 0,-0.13867 -0.04479,-0.2403 -0.04479,-0.10163 -0.12833,-0.1533 -0.08268,-0.0525 -0.190341,-0.0525 -0.07665,0 -0.142111,0.0293 -0.06459,0.0284 -0.111965,0.0836 -0.04651,0.0551 -0.07407,0.14125 -0.0267,0.0853 -0.0267,0.19206 0,0.10766 0.0267,0.19465 0.02756,0.087 0.07665,0.14469 0.04995,0.0568 0.113688,0.0853 0.06459,0.0284 0.141249,0.0284 0.09819,0 0.180006,-0.0491 0.08268,-0.0491 0.130914,-0.15159 0.04909,-0.10249 0.04909,-0.25235 z"
         style="font-style:normal;font-variant:normal;font-weight:normal;font-stretch:normal;font-size:1.76388919px;font-family:'Arial Rounded MT Bold';-inkscape-font-specification:'Arial Rounded MT Bold, ';fill:#e6e6e6;fill-opacity:1"
         id="path5547"
         inkscape:connector-curvature="0" />
      <path
         d="m 74.963239,135.28549 0,-0.6072 q 0,-0.0775 0.03445,-0.11627 0.03531,-0.0388 0.09216,-0.0388 0.05943,0 0.09388,0.0388 0.03531,0.0388 0.03531,0.11627 l 0,0.62098 q 0,0.10593 0.02325,0.17742 0.02412,0.0706 0.08441,0.11024 0.06029,0.0388 0.16881,0.0388 0.149862,0 0.211873,-0.0792 0.06201,-0.0801 0.06201,-0.24202 l 0,-0.62614 q 0,-0.0784 0.03445,-0.11627 0.03445,-0.0388 0.09216,-0.0388 0.05771,0 0.09302,0.0388 0.03617,0.0379 0.03617,0.11627 l 0,0.6072 q 0,0.14814 -0.02928,0.24718 -0.02842,0.0991 -0.10852,0.17398 -0.0689,0.0637 -0.160197,0.093 -0.0913,0.0293 -0.213596,0.0293 -0.145556,0 -0.250631,-0.031 -0.105076,-0.0319 -0.171394,-0.0973 -0.06632,-0.0663 -0.09732,-0.16881 -0.031,-0.10335 -0.031,-0.24632 z"
         style="font-style:normal;font-variant:normal;font-weight:normal;font-stretch:normal;font-size:1.76388919px;font-family:'Arial Rounded MT Bold';-inkscape-font-specification:'Arial Rounded MT Bold, ';fill:#e6e6e6;fill-opacity:1"
         id="path5549"
         inkscape:connector-curvature="0" />
      <path
         d="m 77.121591,134.7558 -0.279052,0 0,0.91726 q 0,0.0792 -0.03531,0.11799 -0.03531,0.0379 -0.0913,0.0379 -0.05684,0 -0.09302,-0.0388 -0.03531,-0.0387 -0.03531,-0.11713 l 0,-0.91726 -0.279052,0 q -0.06546,0 -0.09732,-0.0284 -0.03187,-0.0293 -0.03187,-0.0767 0,-0.0491 0.03273,-0.0775 0.03359,-0.0284 0.09646,-0.0284 l 0.813042,0 q 0.06632,0 0.09819,0.0293 0.03273,0.0293 0.03273,0.0767 0,0.0474 -0.03273,0.0767 -0.03273,0.0284 -0.09819,0.0284 z"
         style="font-style:normal;font-variant:normal;font-weight:normal;font-stretch:normal;font-size:1.76388919px;font-family:'Arial Rounded MT Bold';-inkscape-font-specification:'Arial Rounded MT Bold, ';fill:#e6e6e6;fill-opacity:1"
         id="path5551"
         inkscape:connector-curvature="0" />
    </g>
    <g
       style="font-style:normal;font-weight:normal;font-size:11.28889084px;line-height:125%;font-family:sans-serif;letter-spacing:0px;word-spacing:0px;fill:#000000;fill-opacity:1;stroke:none;stroke-width:1px;stroke-linecap:butt;stroke-linejoin:miter;stroke-opacity:1"
       id="text5539">
      <path
         d="m 58.534022,135.6322 0,-0.99477 q 0,-0.0775 0.03531,-0.11628 0.03531,-0.0387 0.09129,-0.0387 0.05771,0 0.09302,0.0387 0.03617,0.0379 0.03617,0.11628 l 0,0.99477 q 0,0.0784 -0.03617,0.11713 -0.03531,0.0388 -0.09302,0.0388 -0.05512,0 -0.09129,-0.0388 -0.03531,-0.0396 -0.03531,-0.11713 z"
         style="font-style:normal;font-variant:normal;font-weight:normal;font-stretch:normal;font-size:1.76388919px;font-family:'Arial Rounded MT Bold';-inkscape-font-specification:'Arial Rounded MT Bold, '"
         id="path5544"
         inkscape:connector-curvature="0" />
    </g>
    <g
       style="font-style:normal;font-weight:normal;font-size:11.28889084px;line-height:125%;font-family:sans-serif;letter-spacing:0px;word-spacing:0px;fill:#000000;fill-opacity:1;stroke:none;stroke-width:1px;stroke-linecap:butt;stroke-linejoin:miter;stroke-opacity:1"
       id="text5598">
      <path
         d="m 73.028063,92.868628 0.539502,0 q 0.08061,0 0.12299,0.03307 0.04237,0.03307 0.04237,0.08992 0,0.05064 -0.03411,0.08578 -0.03307,0.03514 -0.101286,0.03514 l -0.760677,0 q -0.07751,0 -0.120923,-0.04237 -0.04341,-0.04341 -0.04341,-0.101286 0,-0.03721 0.02791,-0.09819 0.02791,-0.06201 0.06098,-0.09715 0.137459,-0.142627 0.248047,-0.243913 0.110587,-0.102319 0.158129,-0.134359 0.08475,-0.05994 0.14056,-0.119889 0.05684,-0.06098 0.08578,-0.124024 0.02997,-0.06408 0.02997,-0.125057 0,-0.06615 -0.03204,-0.117822 -0.03101,-0.05271 -0.08578,-0.08165 -0.05374,-0.02894 -0.117822,-0.02894 -0.135392,0 -0.212907,0.118855 -0.01033,0.0155 -0.03514,0.08475 -0.02377,0.06925 -0.05478,0.106453 -0.02997,0.03721 -0.08888,0.03721 -0.05168,0 -0.08578,-0.03411 -0.03411,-0.03411 -0.03411,-0.09302 0,-0.07131 0.03204,-0.148828 0.03204,-0.07752 0.09508,-0.14056 0.06408,-0.06305 0.161231,-0.101286 0.09819,-0.03927 0.229443,-0.03927 0.15813,0 0.269751,0.04961 0.07235,0.03307 0.127124,0.09095 0.05478,0.05788 0.08475,0.134359 0.03101,0.07545 0.03101,0.157096 0,0.128158 -0.06408,0.233578 -0.06305,0.104386 -0.129191,0.164331 -0.06615,0.05891 -0.222209,0.186035 -0.155029,0.127124 -0.212907,0.197404 -0.02481,0.0279 -0.05064,0.06718 z"
         style="font-style:normal;font-variant:normal;font-weight:normal;font-stretch:normal;font-size:2.11666703px;font-family:'Arial Rounded MT Bold';-inkscape-font-specification:'Arial Rounded MT Bold, '"
         id="path5616" />
      <path
         d="m 74.286901,91.757585 0,0.531234 0.602547,-0.628386 q 0.04341,-0.04547 0.07338,-0.06718 0.03101,-0.0217 0.08165,-0.0217 0.06615,0 0.106453,0.03927 0.04134,0.03824 0.04134,0.09405 0,0.06718 -0.06925,0.133325 l -0.373104,0.353467 0.429948,0.615983 q 0.04548,0.06408 0.06821,0.112655 0.02274,0.04754 0.02274,0.09302 0,0.05064 -0.04031,0.08785 -0.03927,0.03721 -0.107487,0.03721 -0.06408,0 -0.104386,-0.02687 -0.04031,-0.02791 -0.06821,-0.07338 -0.02791,-0.04547 -0.04961,-0.08268 l -0.362768,-0.558106 -0.251148,0.240812 0,0.31316 q 0,0.09508 -0.04341,0.141593 -0.04341,0.04547 -0.111621,0.04547 -0.03927,0 -0.07545,-0.02067 -0.03617,-0.02067 -0.05581,-0.05581 -0.01447,-0.02894 -0.01757,-0.06718 -0.0031,-0.03824 -0.0031,-0.110588 l 0,-1.126546 q 0,-0.09302 0.04031,-0.139526 0.04134,-0.04651 0.111621,-0.04651 0.06925,0 0.111621,0.04651 0.04341,0.04547 0.04341,0.139526 z"
         style="font-style:normal;font-variant:normal;font-weight:normal;font-stretch:normal;font-size:2.11666703px;font-family:'Arial Rounded MT Bold';-inkscape-font-specification:'Arial Rounded MT Bold, '"
         id="path5618" />
      <path
         d="m 75.853731,91.757585 0,0.434082 0.662492,0 0,-0.434082 q 0,-0.09302 0.04134,-0.139526 0.04238,-0.04651 0.110588,-0.04651 0.06925,0 0.111621,0.04651 0.04341,0.04547 0.04341,0.139526 l 0,1.193726 q 0,0.09405 -0.04341,0.14056 -0.04341,0.04651 -0.111621,0.04651 -0.06925,0 -0.110588,-0.04651 -0.04134,-0.04754 -0.04134,-0.14056 l 0,-0.50953 -0.662492,0 0,0.50953 q 0,0.09405 -0.04341,0.14056 -0.04341,0.04651 -0.111621,0.04651 -0.06925,0 -0.110588,-0.04651 -0.04134,-0.04754 -0.04134,-0.14056 l 0,-1.193726 q 0,-0.09302 0.04031,-0.139526 0.04134,-0.04651 0.111622,-0.04651 0.06925,0 0.111621,0.04651 0.04341,0.04547 0.04341,0.139526 z"
         style="font-style:normal;font-variant:normal;font-weight:normal;font-stretch:normal;font-size:2.11666703px;font-family:'Arial Rounded MT Bold';-inkscape-font-specification:'Arial Rounded MT Bold, '"
         id="path5620" />
      <path
         d="m 77.900118,92.314657 -0.516764,0.577743 0.552938,0 q 0.06718,0 0.101285,0.03204 0.03411,0.03101 0.03411,0.08061 0,0.04754 -0.03411,0.07752 -0.03307,0.02997 -0.101285,0.02997 l -0.764812,0 q -0.08062,0 -0.120923,-0.03514 -0.03927,-0.03514 -0.03927,-0.09612 0,-0.03617 0.02791,-0.07235 0.02791,-0.03721 0.115755,-0.135392 0.09302,-0.103353 0.168465,-0.187069 0.07648,-0.08372 0.141593,-0.156063 0.06511,-0.07338 0.107487,-0.124023 0.04341,-0.05064 0.06925,-0.08682 l -0.419613,0 q -0.08682,0 -0.131258,-0.0155 -0.04444,-0.0155 -0.04444,-0.08165 0,-0.04858 0.03307,-0.07752 0.03411,-0.02894 0.09612,-0.02894 l 0.648023,0 q 0.08992,0 0.137459,0.02687 0.04858,0.02584 0.04858,0.09405 0,0.02274 -0.0093,0.04754 -0.0093,0.02377 -0.02067,0.03927 -0.01137,0.0155 -0.03101,0.03824 -0.01964,0.0217 -0.04858,0.05271 z"
         style="font-style:normal;font-variant:normal;font-weight:normal;font-stretch:normal;font-size:2.11666703px;font-family:'Arial Rounded MT Bold';-inkscape-font-specification:'Arial Rounded MT Bold, '"
         id="path5622" />
    </g>
    <g
       style="font-style:normal;font-weight:normal;font-size:11.28889084px;line-height:125%;font-family:sans-serif;letter-spacing:0px;word-spacing:0px;fill:#000000;fill-opacity:1;stroke:none;stroke-width:1px;stroke-linecap:butt;stroke-linejoin:miter;stroke-opacity:1"
       id="text5602">
      <path
         d="m 73.342252,108.75966 0,-0.19223 -0.518832,0 q -0.09819,0 -0.147794,-0.0444 -0.04858,-0.0444 -0.04858,-0.12093 0,-0.0196 0.0072,-0.0393 0.0072,-0.0207 0.02171,-0.0424 0.01447,-0.0227 0.02997,-0.0434 0.0155,-0.0207 0.03824,-0.0507 l 0.547771,-0.73277 q 0.05374,-0.0724 0.08785,-0.10438 0.03514,-0.0331 0.08372,-0.0331 0.157096,0 0.157096,0.17984 l 0,0.79995 0.04444,0 q 0.07958,0 0.127124,0.0217 0.04858,0.0217 0.04858,0.0951 0,0.0599 -0.03927,0.0879 -0.03927,0.0269 -0.117822,0.0269 l -0.06305,0 0,0.19223 q 0,0.0796 -0.03514,0.11886 -0.03514,0.0382 -0.09405,0.0382 -0.05788,0 -0.09405,-0.0393 -0.03514,-0.0403 -0.03514,-0.11783 z m -0.444418,-0.42374 0.444418,0 0,-0.60048 -0.444418,0.60048 z"
         style="font-style:normal;font-variant:normal;font-weight:normal;font-stretch:normal;font-size:2.11666703px;font-family:'Arial Rounded MT Bold';-inkscape-font-specification:'Arial Rounded MT Bold, '"
         id="path5625" />
      <path
         d="m 74.332372,107.53597 0,0.53123 0.602548,-0.62839 q 0.04341,-0.0455 0.07338,-0.0672 0.03101,-0.0217 0.08165,-0.0217 0.06615,0 0.106453,0.0393 0.04134,0.0382 0.04134,0.094 0,0.0672 -0.06925,0.13332 l -0.373104,0.35347 0.429948,0.61598 q 0.04548,0.0641 0.06821,0.11266 0.02274,0.0475 0.02274,0.093 0,0.0506 -0.04031,0.0878 -0.03927,0.0372 -0.107487,0.0372 -0.06408,0 -0.104386,-0.0269 -0.04031,-0.0279 -0.06821,-0.0734 -0.0279,-0.0455 -0.04961,-0.0827 l -0.362768,-0.55811 -0.251148,0.24081 0,0.31316 q 0,0.0951 -0.04341,0.1416 -0.04341,0.0455 -0.111621,0.0455 -0.03927,0 -0.07545,-0.0207 -0.03617,-0.0207 -0.05581,-0.0558 -0.01447,-0.0289 -0.01757,-0.0672 -0.0031,-0.0382 -0.0031,-0.11059 l 0,-1.12654 q 0,-0.093 0.04031,-0.13953 0.04134,-0.0465 0.111621,-0.0465 0.06925,0 0.111621,0.0465 0.04341,0.0455 0.04341,0.13953 z"
         style="font-style:normal;font-variant:normal;font-weight:normal;font-stretch:normal;font-size:2.11666703px;font-family:'Arial Rounded MT Bold';-inkscape-font-specification:'Arial Rounded MT Bold, '"
         id="path5627" />
      <path
         d="m 75.899202,107.53597 0,0.43408 0.662492,0 0,-0.43408 q 0,-0.093 0.04134,-0.13953 0.04237,-0.0465 0.110588,-0.0465 0.06925,0 0.111621,0.0465 0.04341,0.0455 0.04341,0.13953 l 0,1.19372 q 0,0.094 -0.04341,0.14056 -0.04341,0.0465 -0.111621,0.0465 -0.06925,0 -0.110588,-0.0465 -0.04134,-0.0475 -0.04134,-0.14056 l 0,-0.50953 -0.662492,0 0,0.50953 q 0,0.094 -0.04341,0.14056 -0.04341,0.0465 -0.111621,0.0465 -0.06925,0 -0.110588,-0.0465 -0.04134,-0.0475 -0.04134,-0.14056 l 0,-1.19372 q 0,-0.093 0.04031,-0.13953 0.04134,-0.0465 0.111621,-0.0465 0.06925,0 0.111621,0.0465 0.04341,0.0455 0.04341,0.13953 z"
         style="font-style:normal;font-variant:normal;font-weight:normal;font-stretch:normal;font-size:2.11666703px;font-family:'Arial Rounded MT Bold';-inkscape-font-specification:'Arial Rounded MT Bold, '"
         id="path5629" />
      <path
         d="m 77.945589,108.09304 -0.516764,0.57774 0.552938,0 q 0.06718,0 0.101286,0.032 0.03411,0.031 0.03411,0.0806 0,0.0475 -0.03411,0.0775 -0.03307,0.03 -0.101286,0.03 l -0.764812,0 q -0.08061,0 -0.120922,-0.0351 -0.03928,-0.0351 -0.03928,-0.0961 0,-0.0362 0.02791,-0.0723 0.02791,-0.0372 0.115755,-0.13539 0.09302,-0.10336 0.168465,-0.18707 0.07648,-0.0837 0.141594,-0.15607 0.06511,-0.0734 0.107487,-0.12402 0.04341,-0.0506 0.06925,-0.0868 l -0.419613,0 q -0.08682,0 -0.131258,-0.0155 -0.04444,-0.0155 -0.04444,-0.0816 0,-0.0486 0.03307,-0.0775 0.03411,-0.0289 0.09612,-0.0289 l 0.648022,0 q 0.08992,0 0.137459,0.0269 0.04858,0.0258 0.04858,0.0941 0,0.0227 -0.0093,0.0475 -0.0093,0.0238 -0.02067,0.0393 -0.01137,0.0155 -0.03101,0.0382 -0.01964,0.0217 -0.04858,0.0527 z"
         style="font-style:normal;font-variant:normal;font-weight:normal;font-stretch:normal;font-size:2.11666703px;font-family:'Arial Rounded MT Bold';-inkscape-font-specification:'Arial Rounded MT Bold, '"
         id="path5631" />
    </g>
  </g>
  <g
     inkscape:groupmode="layer"
     id="layer6"
     inkscape:label="LOGO"
     style="display:inline">
    <g
       transform="translate(-47.766905,-57.7366)"
       style="font-style:normal;font-weight:normal;font-size:11.28888893px;line-height:125%;font-family:sans-serif;letter-spacing:0px;word-spacing:0px;display:inline;opacity:1;fill:#000000;fill-opacity:1;stroke:none;stroke-width:1px;stroke-linecap:butt;stroke-linejoin:miter;stroke-opacity:1"
       id="text3433">
      <path
         inkscape:connector-curvature="0"
         d="m 66.316772,151.70085 q 0.0069,0.0138 0.02067,0.0482 0.0069,0.0207 0.0069,0.0345 0,0.0344 -0.03445,0.0551 -0.02067,0.007 -0.03445,0.007 -0.02756,0 -0.04823,-0.0344 -0.01378,-0.0345 -0.02067,-0.0413 0.04134,-0.0276 0.110244,-0.0689 0.06201,0.0965 0.09646,0.17914 0.130914,0.28939 0.130914,0.54433 0,0.21359 -0.09646,0.40652 -0.206706,0.40652 -0.682129,0.54432 -0.213596,0.062 -0.413411,0.062 -0.241157,0 -0.461643,-0.0896 -0.406521,-0.17225 -0.516764,-0.58566 -0.03445,-0.12403 -0.03445,-0.24116 0,-0.31006 0.220486,-0.60634 0.241157,-0.34451 0.689019,-0.58566 0.3514,-0.19293 1.005968,-0.38585 0.310058,-0.0896 0.606337,-0.15848 0.413411,-0.10335 0.599446,-0.11713 0.07579,-0.007 0.172255,-0.007 0.192925,0 0.447862,0.0207 0.502984,0.0413 0.564996,0.0551 0.496094,0.0827 0.923286,0.4203 0.440972,0.34451 0.661458,0.77859 0.234266,0.47543 0.282498,0.9853 0.01378,0.1378 0.01378,0.3514 0,0.31006 -0.02756,0.79237 -0.0069,0.0965 -0.01378,0.2825 0,0.19293 -0.0069,0.2825 -0.02756,0.54432 -0.02756,0.62011 0,0.29628 0.0689,0.59256 0.06201,0.26872 0.151584,0.37896 0.151584,0.17226 0.413412,0.2136 l 0.05512,0 q 0.124024,0 0.434082,-0.0345 l 0.01378,0 q 0.04823,0 0.04823,0.0551 0,0.0689 -0.06201,0.0758 -0.316949,0.0345 -0.413411,0.0345 l -0.02067,0 q -0.220486,-0.0138 -0.392741,-0.11713 -0.254937,-0.15159 -0.3514,-0.57189 -0.0689,-0.2825 -0.07579,-0.50987 l 0,-0.11025 q 0,-0.16536 0.01378,-0.39963 0.01378,-0.18603 0.02756,-0.4892 0.01378,-0.35829 0.02067,-0.48231 0.01378,-0.29628 0.01378,-0.53744 0,-0.37896 -0.03445,-0.60633 -0.08957,-0.53055 -0.365181,-0.95085 -0.289388,-0.44097 -0.764811,-0.70969 -0.234266,-0.13091 -0.475423,-0.19293 -0.130914,-0.0344 -0.558105,-0.062 -0.372071,-0.0345 -0.558106,-0.0345 l -0.05512,0 q -0.248047,0.007 -0.620118,0.0965 -0.757921,0.18604 -1.185112,0.34451 -0.544325,0.19982 -0.854384,0.47543 -0.434082,0.37896 -0.454753,0.7717 l 0,0.0482 q 0,0.41341 0.33073,0.62701 0.241156,0.15847 0.544325,0.15847 0.151584,0 0.316948,-0.0413 0.530545,-0.13091 0.69591,-0.54433 0.06201,-0.15847 0.06201,-0.31694 0,-0.31006 -0.213596,-0.64079 -0.01378,-0.0207 -0.01378,-0.0413 0,-0.0276 0.03445,-0.0413 0.02067,-0.0138 0.04134,-0.0138 0.02756,0 0.04823,0.0276 z m 0.861273,-0.20671 q -0.420301,0.0207 -0.950846,0.33073 -0.01378,0.007 -0.02756,0.007 -0.03445,0 -0.05512,-0.0344 -0.01378,-0.0207 -0.01378,-0.0413 0,-0.0276 0.03445,-0.0413 0.558106,-0.33073 0.992188,-0.3514 l 0.04823,0 q 0.475423,0 0.744141,0.36518 0.220486,0.29628 0.254937,0.77859 0.0069,0.0689 0.0069,0.13091 0,0.19293 -0.03445,0.33073 -0.06201,0.2825 -0.206706,0.41341 -0.124023,0.11025 -0.392741,0.1447 -0.206705,0.0276 -0.468533,0.0965 -0.868164,0.22049 -1.150661,0.3514 -0.792372,0.36518 -0.909506,0.44097 -0.37207,0.23427 -0.654568,0.75103 -0.206705,0.38585 -0.206705,0.79926 0,0.0758 0.0069,0.15848 0.04823,0.49609 0.37207,0.86816 0.172255,0.19293 0.35829,0.2825 0.227376,0.11713 0.516764,0.2136 0.482314,0.15847 0.861274,0.15847 0.124024,0 0.234267,-0.0138 0.282497,-0.0413 0.509874,-0.1378 0.206705,-0.0827 0.454752,-0.27561 0.282498,-0.20671 0.454753,-0.31695 0.268717,-0.15847 0.330729,-0.31006 0.01378,-0.0345 0.04134,-0.0345 0.02067,0 0.04134,0.0138 0.04134,0.0207 0.04134,0.062 0,0.0138 -0.0069,0.0276 -0.07579,0.17226 -0.36518,0.34451 -0.165364,0.10336 -0.489203,0.34451 -0.261828,0.19293 -0.509874,0.28939 -0.261828,0.0965 -0.551216,0.12402 -0.103353,0.0138 -0.206705,0.0138 -0.399631,0 -0.875055,-0.16536 -0.633897,-0.2136 -0.881944,-0.47542 -0.337619,-0.35829 -0.434082,-0.8475 -0.03445,-0.17914 -0.03445,-0.35829 0,-0.30316 0.110243,-0.59255 0.08957,-0.22049 0.234267,-0.42719 0.186035,-0.2825 0.310058,-0.39964 0.241157,-0.22737 0.840603,-0.4892 0.05512,-0.0276 0.248047,-0.11713 0.151584,-0.0689 0.241157,-0.11025 0.248047,-0.0965 0.571886,-0.17914 0.08957,-0.0276 0.289388,-0.0758 0.192925,-0.0482 0.289388,-0.0758 0.08268,-0.0207 0.220486,-0.0413 0.179145,-0.0276 0.220486,-0.0345 0.144694,-0.0276 0.206706,-0.0689 0.07579,-0.0551 0.137804,-0.16536 0.103352,-0.19982 0.103352,-0.47543 -0.0069,-0.50987 -0.186035,-0.80615 -0.234266,-0.37896 -0.668348,-0.37896 l -0.04823,0 z m 1.226454,5.33301 q -0.08268,-0.1447 -0.117133,-0.17915 -0.02067,-0.0207 -0.02067,-0.0413 0,-0.0207 0.02756,-0.0482 0.02067,-0.0276 0.04134,-0.0276 0.02756,0 0.04823,0.0276 0.04823,0.0551 0.124023,0.18604 0.0689,0.13091 0.124024,0.18603 0.151584,0.15848 0.351399,0.25494 0.35829,0.18603 0.875055,0.21359 l 0.144694,0 q 0.413411,0 0.819932,-0.0965 0.310059,-0.0758 0.468533,-0.16536 0.261828,-0.13781 0.378961,-0.1447 0.06201,0 0.06201,0.062 0,0.0689 -0.06201,0.0689 l -0.392741,0.16536 q -0.213596,0.0965 -0.516764,0.15848 -0.372071,0.0827 -0.737251,0.0827 -0.117133,0 -0.227376,-0.007 -0.544325,-0.0413 -0.902615,-0.23427 -0.213596,-0.11713 -0.3514,-0.26872 -0.08957,-0.0896 -0.137804,-0.19292 z m 3.190159,-0.0827 q -0.103353,-0.29628 -0.110243,-0.35829 l 0,-0.0138 q 0,-0.0482 0.06201,-0.0482 0.06201,0 0.0689,0.062 0,0.0138 0.0069,0.0276 0.0069,0.0207 0.01378,0.0345 0.0069,0.0413 0.02756,0.10335 0.05512,0.17226 0.07579,0.23427 0.05512,0.17914 0.05512,0.2756 0,0.0551 -0.02067,0.0827 -0.02067,0.0276 -0.04823,0.0276 -0.02067,0 -0.04134,-0.0207 -0.02756,-0.0276 -0.02756,-0.0482 0,-0.0276 0.02067,-0.0482 -0.0069,0.007 -0.0069,0.0138 l 0,-0.0345 q 0,-0.0276 -0.01378,-0.0758 -0.02067,-0.0758 -0.06201,-0.21359 z m -3.527778,-2.61828 q -0.03445,-0.0276 -0.03445,-0.0551 0,-0.0207 0.01378,-0.0413 0.02067,-0.0344 0.04823,-0.0344 0.01378,0 0.03445,0.0138 0.04134,0.0344 0.04823,0.14469 0.0069,0.0413 0.0069,0.10336 0,0.0551 -0.0069,0.1378 0,0.17226 -0.02067,0.59256 -0.0069,0.15847 -0.0069,0.18603 l -0.04823,0.53744 q -0.04134,0.41341 -0.04823,0.57877 0,0.062 -0.06201,0.062 -0.0689,0 -0.0689,-0.062 0.0069,-0.22048 0.05512,-0.63389 0.04134,-0.4272 0.04823,-0.6339 0.02067,-0.52366 0.02067,-0.565 0.0069,-0.0827 0.0069,-0.14469 0,-0.062 -0.0069,-0.10335 l 0,-0.10336 0.02067,0.0207 z m -0.537435,0.23427 q 0.330729,-0.15158 0.502984,-0.26183 0.02067,-0.0138 0.04134,-0.0138 0.02756,0 0.04134,0.0345 0.01378,0.0207 0.01378,0.0413 0,0.0276 -0.02756,0.0482 -0.158474,0.0965 -0.35829,0.19292 -0.751031,0.35829 -0.937066,0.54433 -0.399631,0.38585 -0.399631,0.81993 l 0,0.0551 q 0.01378,0.26872 0.165365,0.41341 0.158474,0.1447 0.37896,0.18604 0.103353,0.0207 0.206706,0.0207 0.137804,0 0.275607,-0.0413 0.05512,-0.0207 0.482314,-0.22049 0.01378,-0.007 0.02756,-0.007 0.03445,0 0.06201,0.0413 0.01378,0.0207 0.01378,0.0344 0,0.0276 -0.04134,0.0482 -0.599447,0.27561 -0.826823,0.27561 -0.502984,0 -0.744141,-0.33762 -0.144694,-0.19981 -0.144694,-0.44097 0,-0.2136 0.110243,-0.46164 0.199816,-0.44787 0.647678,-0.71658 0.144694,-0.0896 0.509874,-0.25494 z m -2.88699,2.41157 q 0.475423,0.50298 0.599447,0.72347 l 0,0.007 q 0,0.0138 -0.0069,0.0207 l -0.02756,0 q -0.08268,-0.0827 -0.192926,-0.22049 -0.151584,-0.19981 -0.179144,-0.23426 -0.241157,-0.2825 -0.35829,-0.39275 -0.01378,-0.007 -0.06201,-0.0482 -0.04823,-0.0413 -0.08268,-0.0689 -0.08268,-0.0827 -0.08268,-0.13091 l 0,-0.0138 q 0.0069,-0.0138 0.02067,-0.0138 l 0.02756,0 q 0.01378,0.007 0.01378,0.0138 0,0.007 -0.01378,0.0138 0,0.007 0.0069,0.0138 0.02067,0.0207 0.03445,0.0344 0.04823,0.0482 0.08957,0.0827 0.130914,0.12402 0.213596,0.2136 z m 1.212674,0.86816 q 0.01378,0.007 0.01378,0.0207 0,0.0138 -0.01378,0.0276 -0.0069,0.007 -0.02067,0.007 -0.0069,0 -0.02067,-0.007 -0.585667,-0.57877 -0.937066,-1.04731 -0.130914,-0.17914 -0.406522,-0.4892 -0.241156,-0.26872 -0.296278,-0.37207 l 0,-0.0276 0.0069,0 q 0.0069,0 0.01378,0.007 1.660536,1.87413 1.660536,1.88102 z m -1.557183,-2.26687 q 1.295356,1.13688 2.246202,2.21175 0.01378,0.0138 0.01378,0.0276 0,0.007 -0.01378,0.0207 -0.01378,0.0138 -0.02756,0.0138 -0.0069,0 -0.02067,-0.0138 -0.461643,-0.50987 -2.211752,-2.23931 -0.0069,-0.007 -0.0069,-0.0138 0,-0.007 0.0069,-0.007 l 0.0069,-0.007 q 0.0069,0 0.0069,0.007 z m 1.750108,1.15066 q 0.530545,0.62701 0.916395,1.11621 0.01378,0.0138 0.01378,0.0276 0,0.007 -0.01378,0.0207 -0.01378,0.0138 -0.02756,0.0138 -0.0069,0 -0.02067,-0.0138 -1.178222,-1.46072 -1.619195,-1.86724 -0.447862,-0.4203 -0.620117,-0.62701 -0.199815,-0.24115 -0.199815,-0.34451 0,-0.0207 0.0069,-0.0344 0.0069,-0.007 0.01378,-0.007 l 0.0069,0 q 0.01378,0.007 0.01378,0.0138 l 0,0.0207 q 0,0.0689 0.08957,0.18604 0.09646,0.12402 0.261827,0.28939 0.172255,0.18603 0.585667,0.56499 0.220486,0.20671 0.592556,0.64079 z m -0.03445,-0.61323 q 0.751031,0.65457 1.274685,1.54341 0.0069,0.007 0.0069,0.0207 0,0.0138 -0.02067,0.0276 -0.0069,0.007 -0.02067,0.007 -0.01378,0 -0.02756,-0.0207 -0.544325,-0.9164 -1.364258,-1.6192 -1.005968,-0.86816 -1.185113,-1.29535 l -0.0069,0 0,-0.0138 q 0,-0.0138 0.01378,-0.0207 l 0.01378,0 q 0.0069,0 0.01378,0.007 l 0.0069,0 0,0.007 q 0.0069,0.007 0.0069,0.0138 0.03445,0.062 0.08268,0.10335 0.0069,0.007 0.0069,0.0138 -0.0069,0.007 -0.02067,0.007 0.179145,0.30317 1.219564,1.21956 z m 0.999078,0.52366 q 0.399631,0.35829 0.564995,0.68902 l 0,0.0138 q 0,0.0138 -0.0069,0.0207 -0.0069,0.007 -0.02067,0.007 -0.0069,0 -0.01378,-0.007 -0.06201,-0.0689 -0.144694,-0.18604 -0.110243,-0.15158 -0.144694,-0.18603 -0.04823,-0.0551 -0.268717,-0.31695 -0.0069,-0.007 -0.0069,-0.0138 0,-0.0138 0.0069,-0.0207 0.0069,-0.007 0.01378,-0.007 0.01378,0 0.02067,0.007 z m 0.868164,0.37207 q 0.110243,0.11713 0.117133,0.12402 0.0069,0.007 0.0069,0.0138 0,0.007 -0.0069,0.0138 -0.0069,0.007 -0.02067,0.007 l -0.0069,0 q -0.04823,-0.007 -0.234266,-0.2067 -0.186035,-0.20671 -0.186035,-0.22049 l -0.02067,0 q -0.0069,-0.007 -0.0069,-0.0138 l 0,-0.007 q 0.0069,-0.0138 0.02067,-0.0138 0.04134,0 0.165365,0.12402 0.02756,0.0276 0.08268,0.0896 0.05512,0.0551 0.08957,0.0896 z m 0.213596,-0.4203 q 0.04823,0.0551 0.234266,0.2067 0.01378,0.007 0.01378,0.0207 0,0.007 -0.0069,0.0138 -0.0069,0.0138 -0.02756,0.0138 l -0.0069,0 q -0.110243,-0.0276 -0.241156,-0.18603 -0.151584,-0.19293 -0.192926,-0.25494 l 0,-0.007 q 0,-0.0138 0.0069,-0.0207 0.0069,-0.007 0.01378,-0.007 0.0069,0 0.01378,0.007 0.02756,0.0207 0.192926,0.2136 z m -2.067057,-0.9164 q 0.220486,0.17915 0.248046,0.22049 l 0,0.007 q 0,0.007 -0.0069,0.0138 -0.0069,0.007 -0.01378,0.007 l -0.0069,0 q -0.04823,-0.0207 -0.34451,-0.26872 -0.282498,-0.22049 -0.434082,-0.37207 -0.241157,-0.22049 -0.337619,-0.3514 -0.110243,-0.14469 -0.110243,-0.22738 0,-0.0207 0.0069,-0.0344 0.0069,-0.007 0.01378,-0.007 0.01378,0 0.02067,0.007 0.09646,0.27561 0.564995,0.67524 0.144694,0.12403 0.399632,0.33073 z m -0.613227,-1.34359 q 0.05512,0.10336 1.08865,1.18512 0.01378,0.0138 0.01378,0.0207 0,0.0138 -0.0069,0.0207 -0.0069,0.007 -0.02067,0.007 -0.01378,0 -0.02756,-0.007 -0.378961,-0.31695 -0.661459,-0.61323 -0.399631,-0.40652 -0.420301,-0.60634 0,-0.007 0.01378,-0.0138 0.01378,0 0.02067,0.007 z m 0.778591,0.33073 q 0.303169,0.27561 0.385851,0.45476 l 0,0.0138 q 0,0.0138 -0.01378,0.0207 -0.0069,0.007 -0.01378,0.007 -0.0069,0 -0.02067,-0.0138 -0.220486,-0.29628 -0.454752,-0.50299 -0.261827,-0.24115 -0.330729,-0.32384 l -0.0069,0 q -0.02756,-0.0276 -0.04134,-0.0551 -0.0069,-0.007 -0.0069,-0.0138 0,-0.007 0.0069,-0.007 0.01378,-0.007 0.02067,-0.007 0.0069,0 0.0069,0.007 0.07579,0.0689 0.234267,0.20671 0.158474,0.1378 0.234266,0.21359 z m 0.482313,0.0344 q 0.151585,0.17226 0.165365,0.2136 0.0069,0.007 0.0069,0.0138 0,0.0138 -0.01378,0.0207 -0.0069,0.007 -0.01378,0.007 -0.0069,0 -0.02067,-0.0138 l -0.392741,-0.45475 q -0.144694,-0.16537 -0.248047,-0.26872 l -0.124023,-0.1378 -0.0069,0 q -0.0069,0 -0.01378,-0.007 l 0,-0.0138 q 0,-0.007 0.0069,-0.007 0.0069,-0.007 0.02067,-0.007 0.05512,0 0.172255,0.12402 0.04134,0.0482 0.103353,0.11713 l 0.06201,0.0758 q 0.158475,0.17226 0.296278,0.33762 z m 0.282498,-0.36518 q 0.227377,0.22049 0.372071,0.35829 0.0069,0.007 0.0069,0.0207 0,0.007 -0.0069,0.0138 -0.0069,0.0138 -0.02067,0.0138 -0.0069,0 -0.01378,-0.007 -0.310059,-0.21359 -0.737251,-0.72347 -0.0069,-0.0138 -0.0069,-0.0207 0,-0.007 0.0069,-0.0138 0.0069,-0.007 0.01378,-0.007 0.0069,0 0.01378,0.007 0.0689,0.0689 0.37207,0.35829 z m 0.323839,-0.13091 q 0.310059,0.2825 0.310059,0.28939 0.0069,0 0.0069,0.007 0,0.007 -0.0069,0.0138 -0.0069,0.0138 -0.01378,0.0138 -0.0069,0 -0.01378,-0.007 -0.130914,-0.0827 -0.3514,-0.30317 -0.206705,-0.20671 -0.268717,-0.3514 -0.0069,-0.007 -0.0069,-0.0138 0,-0.007 0.01378,-0.0138 0.0069,-0.007 0.01378,-0.007 0.0069,0 0.01378,0.0138 0.09646,0.16536 0.303168,0.35829 z m 0.461643,-0.14469 q 0.172255,0.1378 0.220486,0.2067 l 0,0.007 q 0,0.0138 -0.0069,0.0207 -0.0069,0.007 -0.01378,0.007 -0.0069,0 -0.01378,-0.007 -0.07579,-0.0482 -0.454752,-0.37207 -0.08268,-0.062 -0.151585,-0.17225 l 0,-0.007 q 0,-0.0138 0.0069,-0.0207 l 0.0069,-0.007 q 0.0069,0 0.01378,0.007 0.02756,0.0207 0.08268,0.0827 0.04823,0.0551 0.08268,0.0758 0.0069,0 0.227376,0.17915 z m 0.930176,2.67339 q 0.04823,0.0482 0.74414,0.85438 0.01378,0.007 0.01378,0.0207 0,0.0138 -0.01378,0.0276 -0.0069,0.007 -0.02067,0.007 -0.0069,0 -0.02067,-0.007 -0.72347,-0.84061 -0.785482,-0.89573 -0.544325,-0.50298 -0.613226,-0.66146 -0.0069,-0.007 -0.0069,-0.0138 0,-0.0138 0.01378,-0.0207 l 0.01378,0 q 0.0069,0 0.01378,0.007 0.04134,0.0758 0.661459,0.68213 z m 0.496094,-0.14469 q 0.682128,0.60633 0.957736,1.02663 0.0069,0.007 0.0069,0.0138 0,0.0138 -0.01378,0.0207 -0.01378,0.007 -0.02067,0.007 -0.01378,0 -0.02756,-0.0138 -0.392741,-0.51677 -0.985298,-1.04042 -0.847493,-0.75792 -1.019748,-0.96463 l 0,-0.0207 q 0.0069,-0.007 0.01378,-0.007 0.0069,0 0.01378,0.007 0.248047,0.22738 1.07487,0.97152 z m 0.654568,0.22048 q 0.454752,0.48232 0.72347,0.81304 0.0069,0.0138 0.0069,0.0207 0,0.0138 -0.01378,0.0276 -0.0069,0.007 -0.02067,0.007 -0.0069,0 -0.02067,-0.007 -0.434082,-0.52366 -1.378038,-1.51585 -0.248047,-0.25493 -0.682129,-0.61322 -0.04823,-0.0413 -0.199815,-0.18604 -0.124024,-0.11024 -0.124024,-0.13091 0,0.007 -0.01378,0.0138 -0.01378,0 -0.01378,-0.007 -0.0069,-0.0138 -0.0069,-0.0207 0,-0.0138 0.01378,-0.0207 l 0.0069,0 q 0.05512,0 0.158474,0.0965 0.02756,0.0276 0.07579,0.0827 0.04823,0.0482 0.06201,0.062 0.06201,0.0482 0.323839,0.26872 0.199816,0.16537 0.316949,0.2825 0.02067,0.0207 0.785482,0.82682 z m -0.275608,-0.9095 q 1.129991,1.07487 1.467611,1.46072 0.01378,0.007 0.01378,0.0207 0,0.0138 -0.01378,0.0276 -0.0069,0.007 -0.02067,0.007 -0.0069,0 -0.02067,-0.007 -1.040418,-1.0542 -1.46761,-1.46072 -0.999078,-0.95085 -1.474501,-1.46761 -0.0069,-0.007 -0.0069,-0.0138 0,-0.007 0.0069,-0.0138 0.0069,-0.007 0.01378,-0.007 0.0069,0 0.01378,0.007 0.475423,0.4892 1.488281,1.44694 z m 1.626085,1.12999 q 0.144694,0.15158 0.248047,0.24115 0.01378,0.007 0.01378,0.0207 0,0.007 -0.01378,0.0207 -0.01378,0.0138 -0.02756,0.0138 -0.0069,0 -0.02067,-0.007 -0.186036,-0.15848 -0.606337,-0.64079 -0.0069,-0.007 -0.0069,-0.0138 0,-0.0138 0.0069,-0.0207 0.0069,-0.007 0.01378,-0.007 0.01378,0 0.02067,0.007 l 0.06201,0.062 q -0.01378,-0.007 0.103353,0.0482 0.0069,0.007 0.0069,0.0207 -0.0069,0.007 -0.02067,0.007 -0.0069,-0.007 -0.02067,-0.007 0.03445,0.0276 0.241157,0.25494 z m 0.385851,-0.0896 q 0,0.0138 -0.0069,0.0207 -0.0069,0.007 -0.01378,0.007 -0.0069,0 -0.01378,-0.007 -0.07579,-0.0551 -0.289388,-0.33762 -0.0069,-0.007 -0.0069,-0.0138 0,-0.0138 0.01378,-0.0207 0.0069,-0.007 0.01378,-0.007 0.01378,0 0.02067,0.0138 0.0069,0.007 0.144694,0.17225 0.130914,0.16537 0.137804,0.16537 l 0,0.007 z m -1.846571,-1.46072 q 0.413411,0.36518 0.606336,0.627 0.0069,0.007 0.0069,0.0138 0,0.0138 -0.01378,0.0207 -0.01378,0.007 -0.02067,0.007 -0.01378,0 -0.02067,-0.007 -0.206706,-0.26182 -0.647678,-0.64767 -0.248047,-0.22738 -0.620117,-0.61323 -0.172255,-0.19293 -0.627007,-0.59945 -0.420302,-0.37207 -0.627008,-0.60633 l 0,-0.007 q 0,-0.0138 0.0069,-0.0207 l 0.0069,-0.007 q 0.0069,0 0.01378,0.007 0.165365,0.16537 0.661458,0.60634 0.420302,0.37207 0.647678,0.62701 0.151584,0.17225 0.627008,0.59945 z m -0.165365,-0.565 q 0.427192,0.50987 0.73036,0.77859 0.01378,0.0138 0.01378,0.0207 0,0.0138 -0.0069,0.0207 -0.01378,0.0138 -0.02756,0.0138 -0.01378,0 -0.02067,-0.007 -0.254937,-0.21359 -0.689019,-0.73036 -0.427192,-0.50987 -0.689019,-0.72347 -0.482313,-0.40652 -0.585666,-0.50298 -0.261828,-0.24805 -0.261828,-0.34451 l 0,-0.007 q 0,-0.0138 0.01378,-0.0138 l 0.0069,0 q 0.0069,0 0.01378,0.007 0.02756,0.11713 0.372071,0.41341 0.09646,0.0758 0.282498,0.22738 0.192925,0.15847 0.282497,0.23426 0.165365,0.1447 0.564996,0.61323 z m -0.37207,-0.88883 q 0.38585,0.37207 1.143771,1.20578 0.0069,0.0138 0.0069,0.0207 0,0.0207 -0.01378,0.0345 -0.0069,0.007 -0.02067,0.007 -0.0069,0 -0.02067,-0.007 -1.033529,-1.10932 -1.178223,-1.25401 -0.950846,-0.86817 -1.074869,-1.04731 -0.0069,-0.007 -0.0069,-0.0138 0,-0.007 0.0069,-0.007 l 0.0069,0 q 0.0069,0 0.01378,0.007 0.186035,0.24804 0.544325,0.55121 0.530545,0.44097 0.592557,0.50299 z m 1.09554,0.52365 q 0.117133,0.0207 0.179145,0.0965 0.0069,0.007 0.0069,0.0138 0,0.007 -0.0069,0.0138 -0.0069,0.0138 -0.01378,0.0138 l -0.0069,0 -0.124023,-0.0758 -0.02067,-0.007 0,0.007 q 0,0.0207 -0.02067,0.0276 l -0.0069,0 q -0.02067,0 -0.02756,-0.0207 -0.103353,-0.26183 -0.420302,-0.54432 -0.07579,-0.062 -0.268717,-0.22738 -0.172255,-0.1378 -0.261827,-0.22049 -1.033529,-0.98529 -1.267796,-1.26779 -0.0069,-0.007 -0.0069,-0.0138 0,-0.007 0.0069,-0.0138 0.01378,-0.0138 0.02067,-0.0138 0.0069,0 0.01378,0.0138 0.261828,0.29628 0.689019,0.68902 0.08268,0.0689 0.323839,0.30317 0.199816,0.19292 0.323839,0.30316 0.592557,0.51677 0.558106,0.48232 0.261827,0.25493 0.330729,0.44097 z M 69.4587,152.74117 q 0.261827,0.33072 0.38585,0.45475 -0.0069,0 0.33762,0.28939 0.206705,0.17225 0.261827,0.34451 0.0069,0.007 0.0069,0.0138 0,0.0138 -0.02067,0.0207 -0.01378,0.007 -0.02067,0.007 -0.01378,0 -0.02067,-0.0138 -0.08957,-0.17915 -0.330729,-0.38585 -0.303168,-0.26183 -0.37207,-0.34451 -0.627008,-0.75792 -0.744141,-0.86817 l -1.564073,-1.42627 q -0.0069,0 -0.0069,-0.007 -0.0069,0 -0.0069,-0.0138 l -0.05512,-0.0758 0,-0.0138 q 0.0069,-0.0138 0.02067,-0.0138 l 0.01378,0 q 0.01378,0.007 0.02067,0.0207 l 0.0069,0.0207 q 0.36518,0.4203 0.799262,0.78548 0.785482,0.64768 0.895725,0.75103 0.158474,0.15159 0.392741,0.45476 z m -0.310059,-0.83372 q 0.902615,0.87506 1.226454,1.38493 0.0069,0.007 0.0069,0.0207 0,0.0138 -0.02067,0.0207 -0.01378,0.007 -0.02067,0.007 -0.01378,0 -0.02067,-0.0138 -0.544325,-0.7717 -1.295355,-1.44694 -0.110244,-0.10335 -0.316949,-0.26872 -0.241157,-0.19292 -0.323839,-0.26182 -0.372071,-0.31695 -0.544325,-0.60634 l 0,-0.007 q 0,-0.0138 0.0069,-0.0207 l 0.0069,0 q 0.0069,0 0.01378,0.007 0.206706,0.26872 0.613227,0.61323 0.564996,0.46853 0.668349,0.57188 z m 0.310059,-0.14469 q 0.771701,0.81304 0.854383,0.87505 0.01378,0.0138 0.01378,0.0276 0,0.007 -0.0069,0.0138 -0.01378,0.0207 -0.02756,0.0207 -0.0069,0 -0.01378,-0.007 -0.03445,-0.0276 -0.868164,-0.88883 -0.248047,-0.25494 -1.08176,-0.97152 -0.0069,-0.007 -0.0069,-0.0138 0,-0.007 0.0069,-0.0138 0.0069,-0.007 0.01378,-0.007 0.0069,0 0.01378,0.007 0.854384,0.69591 1.102431,0.95774 z m 0.144694,-0.2825 q 0.447862,0.37207 0.592556,0.57189 l 0,0.0138 q 0,0.0138 -0.0069,0.0207 -0.0069,0.007 -0.02067,0.007 -0.0069,0 -0.01378,-0.007 -0.413412,-0.41341 -0.592557,-0.55811 -0.585666,-0.4892 -0.620117,-0.51676 l 0,-0.0276 q 0.0069,-0.0138 0.01378,-0.0138 0.0069,0 0.01378,0.007 0.296278,0.22048 0.633898,0.50298 z m -2.446018,-0.24805 q 0.05512,0.062 0.08268,0.0965 0.0069,0.007 0.0069,0.0138 0,0.007 -0.0069,0.0207 -0.0069,0.0138 -0.02067,0.0138 -0.0069,0 -0.01378,-0.007 -0.06201,-0.0413 -0.179145,-0.18604 -0.02756,-0.0344 -0.172255,-0.2067 -0.0069,-0.0138 -0.0069,-0.0207 0,-0.007 0.0069,-0.0138 0.0069,-0.0138 0.01378,-0.0138 0.01378,0 0.02067,0.0138 0.04823,0.0413 0.179145,0.19292 0.02756,0.0344 0.08957,0.0965 z m -0.303169,0.2136 q 0,0.0138 -0.0069,0.0207 l -0.02067,0 q -0.103353,-0.0482 -0.234267,-0.20671 -0.09646,-0.11024 -0.144694,-0.22737 l 0,-0.007 q 0,-0.007 0.01378,-0.0138 l 0.0069,0 q 0.0069,0 0.01378,0.007 0.06201,0.13091 0.179145,0.24115 0.186035,0.17915 0.192925,0.17915 l 0,0.007 z m -0.475423,0.007 q 0.110243,0.0965 0.124024,0.13091 l 0,0.007 q 0,0.007 -0.0069,0.0138 -0.0069,0.007 -0.01378,0.007 l -0.0069,0 q -0.02067,-0.0138 -0.137804,-0.11713 -0.08268,-0.0758 -0.172255,-0.15847 -0.117133,-0.0965 -0.158474,-0.13781 -0.08268,-0.0758 -0.08957,-0.0758 -0.01378,-0.007 -0.01378,-0.0207 l 0,-0.007 q 0.0069,-0.0138 0.02067,-0.0138 l 0.0069,0 q 0.04134,0.0138 0.254937,0.19981 0.103353,0.0827 0.192925,0.17226 z m -0.399631,0.17225 q 0.151584,0.13092 0.34451,0.2825 0.0069,0.007 0.0069,0.0138 0,0.007 -0.0069,0.0138 -0.0069,0.007 -0.01378,0.007 l -0.01378,0 q -0.144694,-0.062 -0.475423,-0.38585 -0.186035,-0.17914 -0.186035,-0.23426 0,-0.0207 0.02067,-0.0276 0.01378,0 0.02067,0.0138 0,0.007 -0.0069,0.0138 l 0,0.007 q 0,0.0276 0.310058,0.29627 z m 0.03445,0.46165 q 0.440972,0.35829 0.516764,0.50987 l 0,0.007 q 0,0.0207 -0.01378,0.0344 -0.0069,0.007 -0.02067,0.007 -0.01378,0 -0.02067,-0.0207 -0.04823,-0.0896 -0.537435,-0.52365 -0.36518,-0.32384 -0.661458,-0.6339 -0.01378,-0.007 -0.01378,-0.0138 0,-0.007 0.0069,-0.0138 0.0069,-0.007 0.02067,-0.007 l 0.01378,0 q 0.01378,0.007 0.04823,0.0207 0.03445,0.0138 0.04823,0.0207 0.0069,0.007 0.0069,0.0138 l 0,0.007 q 0,0.007 -0.01378,0.007 -0.02067,-0.007 -0.01378,-0.007 0.08957,0.0827 0.316948,0.30317 0.192926,0.19292 0.316949,0.28939 z m -0.37896,0.30317 q 0.578776,0.60633 0.647678,0.71658 0.0069,0.007 0.0069,0.0138 0,0.0138 -0.02067,0.0207 -0.0069,0.007 -0.01378,0.007 -0.01378,0 -0.02067,-0.0138 -0.04823,-0.0689 -0.764811,-0.82683 -0.289388,-0.30317 -0.385851,-0.42719 -0.08957,-0.11713 -0.08957,-0.17225 l 0,-0.0138 q 0.0069,-0.0138 0.02067,-0.0138 0.01378,0 0.01378,0.0138 0,0.0413 0.192925,0.26182 0.137804,0.15159 0.413412,0.43409 z m -0.0069,0.54432 q 0.213596,0.2136 0.227377,0.24116 l 0,0.0138 q 0,0.007 -0.0069,0.0138 -0.0069,0.007 -0.01378,0.007 l -0.0069,0 q -0.04134,-0.0207 -0.275608,-0.26183 -0.206705,-0.2067 -0.344509,-0.36518 -0.399631,-0.45475 -0.461643,-0.65457 0,-0.0138 0.01378,-0.0207 0.01378,0 0.02067,0.007 0.310059,0.45476 0.530545,0.69591 0.137804,0.1447 0.316948,0.32384 z m -0.930175,-0.43408 q 0.01378,0.0207 0.268717,0.33762 0.35829,0.45475 0.385851,0.52365 l 0,0.007 q 0,0.007 -0.01378,0.0138 -0.0069,0.007 -0.01378,0.007 -0.0069,0 -0.01378,-0.007 -0.02067,-0.0276 -0.516765,-0.66146 -0.0069,-0.007 -0.0689,-0.0827 -0.06201,-0.0689 -0.103352,-0.12402 -0.103353,-0.1378 -0.103353,-0.19293 0,-0.0138 0.0069,-0.0207 l 0.0069,-0.007 q 0.0069,0 0.01378,0.007 0.0069,0.007 0.0069,0.0207 0.0069,0 0.144694,0.17915 z"
         style="font-style:normal;font-variant:normal;font-weight:normal;font-stretch:normal;font-size:14.11111069px;font-family:Archistico;-inkscape-font-specification:Archistico;fill:#cccccc"
         id="path3438" />
    </g>
  </g>
  <g
     inkscape:groupmode="layer"
     id="layer2"
     inkscape:label="TESTOKHX"
     style="display:inline">
    <g
       style="font-style:normal;font-weight:normal;font-size:11.28889084px;line-height:125%;font-family:sans-serif;letter-spacing:0px;word-spacing:0px;display:inline;fill:#000000;fill-opacity:1;stroke:none;stroke-width:1px;stroke-linecap:butt;stroke-linejoin:miter;stroke-opacity:1"
       id="text5553">
      <path
         d="m 23.524023,25.130583 0,-0.940511 q -0.262516,0.201538 -0.353467,0.201538 -0.04341,0 -0.07751,-0.03411 -0.03307,-0.03514 -0.03307,-0.08062 0,-0.05271 0.03307,-0.07751 0.03307,-0.0248 0.116788,-0.06408 0.125057,-0.05891 0.199471,-0.124023 0.07545,-0.06511 0.133326,-0.145728 0.05788,-0.08061 0.07545,-0.09922 0.01757,-0.0186 0.06615,-0.0186 0.05478,0 0.08785,0.04237 0.03307,0.04238 0.03307,0.116789 l 0,1.183391 q 0,0.207739 -0.141594,0.207739 -0.06304,0 -0.101285,-0.04237 -0.03824,-0.04237 -0.03824,-0.125057 z"
         style="font-style:normal;font-variant:normal;font-weight:normal;font-stretch:normal;font-size:2.11666703px;font-family:'Arial Rounded MT Bold';-inkscape-font-specification:'Arial Rounded MT Bold, '"
         id="path5607" />
      <path
         d="m 24.657804,23.91722 0,0.531234 0.602547,-0.628385 q 0.04341,-0.04548 0.07338,-0.06718 0.03101,-0.0217 0.08165,-0.0217 0.06615,0 0.106453,0.03927 0.04134,0.03824 0.04134,0.09405 0,0.06718 -0.06925,0.133326 l -0.373104,0.353467 0.429948,0.615983 q 0.04547,0.06408 0.06821,0.112654 0.02274,0.04754 0.02274,0.09302 0,0.05064 -0.04031,0.08785 -0.03927,0.03721 -0.107487,0.03721 -0.06408,0 -0.104386,-0.02687 -0.04031,-0.0279 -0.06821,-0.07338 -0.02791,-0.04548 -0.04961,-0.08268 l -0.362768,-0.558105 -0.251148,0.240812 0,0.313159 q 0,0.09509 -0.04341,0.141594 -0.04341,0.04547 -0.111621,0.04547 -0.03927,0 -0.07545,-0.02067 -0.03617,-0.02067 -0.05581,-0.05581 -0.01447,-0.02894 -0.01757,-0.06718 -0.0031,-0.03824 -0.0031,-0.110587 l 0,-1.126547 q 0,-0.09302 0.04031,-0.139526 0.04134,-0.04651 0.111621,-0.04651 0.06925,0 0.111621,0.04651 0.04341,0.04547 0.04341,0.139526 z"
         style="font-style:normal;font-variant:normal;font-weight:normal;font-stretch:normal;font-size:2.11666703px;font-family:'Arial Rounded MT Bold';-inkscape-font-specification:'Arial Rounded MT Bold, '"
         id="path5609" />
      <path
         d="m 26.224634,23.91722 0,0.434083 0.662492,0 0,-0.434083 q 0,-0.09302 0.04134,-0.139526 0.04237,-0.04651 0.110588,-0.04651 0.06925,0 0.111621,0.04651 0.04341,0.04547 0.04341,0.139526 l 0,1.193726 q 0,0.09405 -0.04341,0.14056 -0.04341,0.04651 -0.111621,0.04651 -0.06925,0 -0.110588,-0.04651 -0.04134,-0.04754 -0.04134,-0.14056 l 0,-0.509529 -0.662492,0 0,0.509529 q 0,0.09405 -0.04341,0.14056 -0.04341,0.04651 -0.111621,0.04651 -0.06925,0 -0.110588,-0.04651 -0.04134,-0.04754 -0.04134,-0.14056 l 0,-1.193726 q 0,-0.09302 0.04031,-0.139526 0.04134,-0.04651 0.111622,-0.04651 0.06925,0 0.111621,0.04651 0.04341,0.04547 0.04341,0.139526 z"
         style="font-style:normal;font-variant:normal;font-weight:normal;font-stretch:normal;font-size:2.11666703px;font-family:'Arial Rounded MT Bold';-inkscape-font-specification:'Arial Rounded MT Bold, '"
         id="path5611" />
      <path
         d="m 28.271021,24.474292 -0.516764,0.577743 0.552938,0 q 0.06718,0 0.101285,0.03204 0.03411,0.03101 0.03411,0.08062 0,0.04754 -0.03411,0.07751 -0.03307,0.02997 -0.101285,0.02997 l -0.764812,0 q -0.08062,0 -0.120923,-0.03514 -0.03927,-0.03514 -0.03927,-0.09612 0,-0.03617 0.02791,-0.07235 0.02791,-0.03721 0.115755,-0.135393 0.09302,-0.103353 0.168465,-0.187068 0.07648,-0.08372 0.141593,-0.156063 0.06511,-0.07338 0.107487,-0.124024 0.04341,-0.05064 0.06925,-0.08682 l -0.419613,0 q -0.08682,0 -0.131258,-0.0155 -0.04444,-0.0155 -0.04444,-0.08165 0,-0.04858 0.03307,-0.07752 0.03411,-0.02894 0.09612,-0.02894 l 0.648023,0 q 0.08992,0 0.137459,0.02687 0.04858,0.02584 0.04858,0.09405 0,0.02274 -0.0093,0.04754 -0.0093,0.02377 -0.02067,0.03927 -0.01137,0.0155 -0.03101,0.03824 -0.01964,0.0217 -0.04858,0.05271 z"
         style="font-style:normal;font-variant:normal;font-weight:normal;font-stretch:normal;font-size:2.11666703px;font-family:'Arial Rounded MT Bold';-inkscape-font-specification:'Arial Rounded MT Bold, '"
         id="path5613" />
    </g>
    <g
       style="font-style:normal;font-weight:normal;font-size:11.28889084px;line-height:125%;font-family:sans-serif;letter-spacing:0px;word-spacing:0px;display:inline;fill:#000000;fill-opacity:1;stroke:none;stroke-width:1px;stroke-linecap:butt;stroke-linejoin:miter;stroke-opacity:1"
       id="text5576">
      <path
         d="m 23.089424,71.476665 q 0,-0.103353 0.05581,-0.194303 0.05684,-0.09198 0.165365,-0.146761 0.109554,-0.05478 0.255281,-0.05478 0.12299,0 0.216008,0.03204 0.09302,0.03204 0.155029,0.08888 0.06201,0.05581 0.09198,0.127124 0.02997,0.07028 0.02997,0.149862 0,0.101286 -0.05271,0.180868 -0.05168,0.07958 -0.15503,0.130224 0.08785,0.03411 0.145728,0.08992 0.05788,0.05478 0.08682,0.128158 0.02997,0.07235 0.02997,0.16123 0,0.130225 -0.06305,0.236678 -0.06305,0.10542 -0.185001,0.165365 -0.121957,0.05994 -0.287321,0.05994 -0.171566,0 -0.293522,-0.05994 -0.121957,-0.05994 -0.183969,-0.164331 -0.06201,-0.10542 -0.06201,-0.235645 0,-0.278019 0.262516,-0.381372 -0.211873,-0.09922 -0.211873,-0.313159 z m 0.74104,0.684196 q 0,-0.08061 -0.03307,-0.14056 -0.03307,-0.05994 -0.09302,-0.09198 -0.05994,-0.03204 -0.134358,-0.03204 -0.10542,0 -0.176734,0.07028 -0.07131,0.07028 -0.07131,0.19637 0,0.08062 0.03307,0.142627 0.03411,0.06098 0.09198,0.09508 0.05788,0.03307 0.129191,0.03307 0.07235,0 0.130224,-0.03411 0.05788,-0.03411 0.09095,-0.09612 0.03307,-0.06201 0.03307,-0.142627 z m -0.258382,-0.882633 q -0.09715,0 -0.157097,0.06098 -0.05891,0.05994 -0.05891,0.155029 0,0.08785 0.06098,0.146761 0.06098,0.05788 0.157097,0.05788 0.04858,0 0.08785,-0.0155 0.04031,-0.0155 0.06821,-0.04237 0.02894,-0.02791 0.04444,-0.06511 0.0155,-0.03824 0.0155,-0.08372 0,-0.06098 -0.02791,-0.109554 -0.02687,-0.04858 -0.07648,-0.07648 -0.04961,-0.02791 -0.113688,-0.02791 z"
         style="font-style:normal;font-variant:normal;font-weight:normal;font-stretch:normal;font-size:2.11666703px;font-family:'Arial Rounded MT Bold';-inkscape-font-specification:'Arial Rounded MT Bold, '"
         id="path5634" />
      <path
         d="m 24.678991,71.252389 0,0.531234 0.602547,-0.628385 q 0.04341,-0.04548 0.07338,-0.06718 0.03101,-0.0217 0.08165,-0.0217 0.06614,0 0.106453,0.03927 0.04134,0.03824 0.04134,0.09405 0,0.06718 -0.06925,0.133326 l -0.373104,0.353466 0.429948,0.615984 q 0.04547,0.06408 0.06821,0.112654 0.02274,0.04754 0.02274,0.09302 0,0.05064 -0.04031,0.08785 -0.03927,0.03721 -0.107487,0.03721 -0.06408,0 -0.104387,-0.02687 -0.04031,-0.02791 -0.06821,-0.07338 -0.02791,-0.04548 -0.04961,-0.08268 l -0.362768,-0.558105 -0.251148,0.240812 0,0.313159 q 0,0.09508 -0.04341,0.141594 -0.04341,0.04547 -0.111621,0.04547 -0.03927,0 -0.07545,-0.02067 -0.03617,-0.02067 -0.05581,-0.05581 -0.01447,-0.02894 -0.01757,-0.06718 -0.0031,-0.03824 -0.0031,-0.110587 l 0,-1.126547 q 0,-0.09302 0.04031,-0.139526 0.04134,-0.04651 0.111621,-0.04651 0.06925,0 0.111621,0.04651 0.04341,0.04547 0.04341,0.139526 z"
         style="font-style:normal;font-variant:normal;font-weight:normal;font-stretch:normal;font-size:2.11666703px;font-family:'Arial Rounded MT Bold';-inkscape-font-specification:'Arial Rounded MT Bold, '"
         id="path5636" />
      <path
         d="m 26.245821,71.252389 0,0.434082 0.662492,0 0,-0.434082 q 0,-0.09302 0.04134,-0.139526 0.04237,-0.04651 0.110587,-0.04651 0.06925,0 0.111622,0.04651 0.04341,0.04547 0.04341,0.139526 l 0,1.193726 q 0,0.09405 -0.04341,0.14056 -0.04341,0.04651 -0.111622,0.04651 -0.06925,0 -0.110587,-0.04651 -0.04134,-0.04754 -0.04134,-0.14056 l 0,-0.50953 -0.662492,0 0,0.50953 q 0,0.09405 -0.04341,0.14056 -0.04341,0.04651 -0.111621,0.04651 -0.06925,0 -0.110587,-0.04651 -0.04134,-0.04754 -0.04134,-0.14056 l 0,-1.193726 q 0,-0.09302 0.04031,-0.139526 0.04134,-0.04651 0.111621,-0.04651 0.06925,0 0.111621,0.04651 0.04341,0.04547 0.04341,0.139526 z"
         style="font-style:normal;font-variant:normal;font-weight:normal;font-stretch:normal;font-size:2.11666703px;font-family:'Arial Rounded MT Bold';-inkscape-font-specification:'Arial Rounded MT Bold, '"
         id="path5638" />
      <path
         d="m 28.292208,71.809461 -0.516765,0.577743 0.552938,0 q 0.06718,0 0.101286,0.03204 0.03411,0.03101 0.03411,0.08062 0,0.04754 -0.03411,0.07751 -0.03307,0.02997 -0.101286,0.02997 l -0.764811,0 q -0.08061,0 -0.120923,-0.03514 -0.03927,-0.03514 -0.03927,-0.09612 0,-0.03617 0.02791,-0.07235 0.02791,-0.03721 0.115756,-0.135392 0.09302,-0.103353 0.168465,-0.187069 0.07648,-0.08371 0.141593,-0.156062 0.06511,-0.07338 0.107487,-0.124024 0.04341,-0.05064 0.06925,-0.08682 l -0.419613,0 q -0.08682,0 -0.131258,-0.0155 -0.04444,-0.0155 -0.04444,-0.08165 0,-0.04858 0.03307,-0.07752 0.03411,-0.02894 0.09612,-0.02894 l 0.648023,0 q 0.08992,0 0.137459,0.02687 0.04858,0.02584 0.04858,0.09405 0,0.02274 -0.0093,0.04754 -0.0093,0.02377 -0.02067,0.03927 -0.01137,0.0155 -0.03101,0.03824 -0.01964,0.0217 -0.04858,0.05271 z"
         style="font-style:normal;font-variant:normal;font-weight:normal;font-stretch:normal;font-size:2.11666703px;font-family:'Arial Rounded MT Bold';-inkscape-font-specification:'Arial Rounded MT Bold, '"
         id="path5640" />
    </g>
    <g
       style="font-style:normal;font-weight:normal;font-size:11.28889084px;line-height:125%;font-family:sans-serif;letter-spacing:0px;word-spacing:0px;fill:#000000;fill-opacity:1;stroke:none;stroke-width:1px;stroke-linecap:butt;stroke-linejoin:miter;stroke-opacity:1"
       id="text5642">
      <path
         d="m 7.4551144,23.771489 0.6883302,0 q 0.099219,0 0.1436605,0.03101 0.044442,0.03101 0.044442,0.102319 0,0.04341 -0.05271,0.114722 -0.051676,0.07131 -0.1188558,0.15813 -0.066146,0.08578 -0.1374593,0.21394 -0.07028,0.128158 -0.1291911,0.31316 -0.024805,0.08165 -0.03514,0.135392 -0.010335,0.05374 -0.022738,0.139526 -0.012402,0.08578 -0.021704,0.131258 -0.021704,0.10542 -0.062012,0.146762 -0.039274,0.04031 -0.1054199,0.04031 -0.063045,0 -0.1012858,-0.04341 -0.038241,-0.04444 -0.038241,-0.130225 0,-0.06615 0.027905,-0.179834 0.027905,-0.113688 0.09095,-0.271818 0.063045,-0.159163 0.1570964,-0.325561 0.095085,-0.167432 0.2253093,-0.332797 l -0.5529379,0 q -0.086817,0 -0.1302247,-0.03101 -0.042375,-0.03204 -0.042375,-0.09922 0,-0.07131 0.045475,-0.09198 0.045475,-0.02067 0.1271241,-0.02067 z"
         style="font-style:normal;font-variant:normal;font-weight:normal;font-stretch:normal;font-size:2.11666703px;font-family:'Arial Rounded MT Bold';-inkscape-font-specification:'Arial Rounded MT Bold, '"
         id="path5659" />
      <path
         d="m 9.3619751,24.012301 -0.4909262,0 -0.058911,0.334864 q 0.1467611,-0.07855 0.2707846,-0.07855 0.099219,0 0.1850017,0.03721 0.086816,0.03721 0.1519287,0.103353 0.065112,0.06511 0.1023193,0.15503 0.037207,0.08992 0.037207,0.19327 0,0.149861 -0.067179,0.272851 -0.067179,0.12299 -0.1943034,0.195337 -0.1260905,0.07235 -0.2914551,0.07235 -0.1850017,0 -0.3007569,-0.06821 -0.1147217,-0.06821 -0.1632976,-0.156063 -0.047542,-0.08888 -0.047542,-0.155029 0,-0.04031 0.033073,-0.07648 0.034107,-0.03617 0.084749,-0.03617 0.086816,0 0.1291911,0.100253 0.041341,0.09198 0.1116211,0.14366 0.07028,0.05064 0.1570964,0.05064 0.079582,0 0.1395264,-0.04134 0.059945,-0.04134 0.091984,-0.113688 0.033073,-0.07235 0.033073,-0.164331 0,-0.09922 -0.03514,-0.169499 -0.03514,-0.07028 -0.094051,-0.104386 -0.058911,-0.03514 -0.1312582,-0.03514 -0.088883,0 -0.1271241,0.0217 -0.03824,0.0217 -0.1105875,0.07648 -0.071314,0.05374 -0.1178223,0.05374 -0.050643,0 -0.089917,-0.03617 -0.039274,-0.03721 -0.039274,-0.08372 0,-0.0052 0.011369,-0.07028 l 0.086816,-0.49506 q 0.014469,-0.08888 0.053743,-0.129191 0.039274,-0.04031 0.1281576,-0.04031 l 0.5457032,0 q 0.1612305,0 0.1612305,0.12299 0,0.05374 -0.039274,0.08682 -0.039274,0.03307 -0.1157552,0.03307 z"
         style="font-style:normal;font-variant:normal;font-weight:normal;font-stretch:normal;font-size:2.11666703px;font-family:'Arial Rounded MT Bold';-inkscape-font-specification:'Arial Rounded MT Bold, '"
         id="path5661" />
      <path
         d="m 10.113351,23.917217 0,0.434082 0.662492,0 0,-0.434082 q 0,-0.09302 0.04134,-0.139527 0.04237,-0.04651 0.110587,-0.04651 0.06925,0 0.111621,0.04651 0.04341,0.04548 0.04341,0.139527 l 0,1.193725 q 0,0.09405 -0.04341,0.14056 -0.04341,0.04651 -0.111621,0.04651 -0.06925,0 -0.110587,-0.04651 -0.04134,-0.04754 -0.04134,-0.14056 l 0,-0.509529 -0.662492,0 0,0.509529 q 0,0.09405 -0.04341,0.14056 -0.04341,0.04651 -0.1116208,0.04651 -0.069246,0 -0.1105875,-0.04651 -0.041341,-0.04754 -0.041341,-0.14056 l 0,-1.193725 q 0,-0.09302 0.040308,-0.139527 0.041341,-0.04651 0.1116211,-0.04651 0.069247,0 0.1116208,0.04651 0.04341,0.04548 0.04341,0.139527 z"
         style="font-style:normal;font-variant:normal;font-weight:normal;font-stretch:normal;font-size:2.11666703px;font-family:'Arial Rounded MT Bold';-inkscape-font-specification:'Arial Rounded MT Bold, '"
         id="path5663" />
      <path
         d="m 12.159738,24.474289 -0.516765,0.577742 0.552938,0 q 0.06718,0 0.101286,0.03204 0.03411,0.03101 0.03411,0.08061 0,0.04754 -0.03411,0.07752 -0.03307,0.02997 -0.101286,0.02997 l -0.764811,0 q -0.08061,0 -0.120923,-0.03514 -0.03927,-0.03514 -0.03927,-0.09612 0,-0.03617 0.0279,-0.07235 0.02791,-0.03721 0.115755,-0.135393 0.09302,-0.103352 0.168466,-0.187068 0.07648,-0.08372 0.141593,-0.156063 0.06511,-0.07338 0.107487,-0.124024 0.04341,-0.05064 0.06925,-0.08682 l -0.419613,0 q -0.08682,0 -0.131258,-0.0155 -0.04444,-0.0155 -0.04444,-0.08165 0,-0.04858 0.03307,-0.07751 0.03411,-0.02894 0.09612,-0.02894 l 0.648023,0 q 0.08992,0 0.137459,0.02687 0.04858,0.02584 0.04858,0.09405 0,0.02274 -0.0093,0.04754 -0.0093,0.02377 -0.02067,0.03927 -0.01137,0.0155 -0.03101,0.03824 -0.01964,0.0217 -0.04858,0.05271 z"
         style="font-style:normal;font-variant:normal;font-weight:normal;font-stretch:normal;font-size:2.11666703px;font-family:'Arial Rounded MT Bold';-inkscape-font-specification:'Arial Rounded MT Bold, '"
         id="path5665" />
    </g>
    <g
       style="font-style:normal;font-weight:normal;font-size:11.28889084px;line-height:125%;font-family:sans-serif;letter-spacing:0px;word-spacing:0px;fill:#000000;fill-opacity:1;stroke:none;stroke-width:1px;stroke-linecap:butt;stroke-linejoin:miter;stroke-opacity:1"
       id="text5646">
      <path
         d="m 7.1062984,40.908967 0,-0.940512 q -0.2625163,0.201538 -0.3534668,0.201538 -0.043408,0 -0.077515,-0.03411 -0.033073,-0.03514 -0.033073,-0.08061 0,-0.05271 0.033073,-0.07752 0.033073,-0.0248 0.1167888,-0.06408 0.1250569,-0.05891 0.199471,-0.124023 0.075448,-0.06511 0.1333252,-0.145728 0.057878,-0.08061 0.075448,-0.09922 0.01757,-0.0186 0.066146,-0.0186 0.054777,0 0.08785,0.04237 0.033073,0.04237 0.033073,0.116788 l 0,1.183391 q 0,0.207739 -0.1415935,0.207739 -0.063045,0 -0.1012858,-0.04237 -0.038241,-0.04237 -0.038241,-0.125057 z"
         style="font-style:normal;font-variant:normal;font-weight:normal;font-stretch:normal;font-size:2.11666703px;font-family:'Arial Rounded MT Bold';-inkscape-font-specification:'Arial Rounded MT Bold, '"
         id="path5668" />
      <path
         d="m 8.2380125,40.806647 0.5395021,0 q 0.080615,0 0.1229899,0.03307 0.042375,0.03307 0.042375,0.08992 0,0.05064 -0.034107,0.08578 -0.033073,0.03514 -0.1012858,0.03514 l -0.7606772,0 q -0.077515,0 -0.1209229,-0.04237 -0.043408,-0.04341 -0.043408,-0.101286 0,-0.03721 0.027905,-0.09819 0.027905,-0.06201 0.060978,-0.09715 0.1374593,-0.142627 0.2480469,-0.243913 0.1105876,-0.10232 0.1581299,-0.134359 0.084749,-0.05995 0.1405599,-0.119889 0.056844,-0.06098 0.085783,-0.124024 0.029972,-0.06408 0.029972,-0.125057 0,-0.06615 -0.032039,-0.117822 -0.031006,-0.05271 -0.085783,-0.08165 -0.053743,-0.02894 -0.1178223,-0.02894 -0.1353923,0 -0.2129069,0.118856 -0.010335,0.0155 -0.03514,0.08475 -0.023771,0.06925 -0.054777,0.106453 -0.029972,0.03721 -0.088883,0.03721 -0.051677,0 -0.085783,-0.03411 -0.034107,-0.03411 -0.034107,-0.09302 0,-0.07131 0.032039,-0.148828 0.032039,-0.07752 0.095085,-0.14056 0.064079,-0.06305 0.1612305,-0.101286 0.098185,-0.03927 0.2294434,-0.03927 0.1581299,0 0.269751,0.04961 0.072347,0.03307 0.127124,0.09095 0.054777,0.05788 0.084749,0.134359 0.031006,0.07545 0.031006,0.157096 0,0.128158 -0.064079,0.233578 -0.063045,0.104386 -0.1291911,0.164331 -0.066146,0.05891 -0.2222087,0.186035 -0.1550294,0.127124 -0.212907,0.197404 -0.024805,0.0279 -0.050643,0.06718 z"
         style="font-style:normal;font-variant:normal;font-weight:normal;font-stretch:normal;font-size:2.11666703px;font-family:'Arial Rounded MT Bold';-inkscape-font-specification:'Arial Rounded MT Bold, '"
         id="path5670" />
      <path
         d="m 10.002246,39.790688 -0.4909259,0 -0.058911,0.334864 q 0.1467611,-0.07855 0.2707846,-0.07855 0.099219,0 0.1850016,0.03721 0.086816,0.03721 0.1519289,0.103352 0.06511,0.06511 0.102319,0.15503 0.03721,0.08992 0.03721,0.19327 0,0.149861 -0.06718,0.272851 -0.06718,0.12299 -0.1943035,0.195337 -0.1260905,0.07235 -0.2914552,0.07235 -0.1850016,0 -0.3007568,-0.06821 -0.1147217,-0.06821 -0.1632976,-0.156063 -0.047542,-0.08888 -0.047542,-0.155029 0,-0.04031 0.033073,-0.07648 0.034107,-0.03617 0.084749,-0.03617 0.086816,0 0.1291911,0.100253 0.041341,0.09198 0.1116211,0.14366 0.07028,0.05064 0.1570964,0.05064 0.079582,0 0.1395264,-0.04134 0.059945,-0.04134 0.091984,-0.113688 0.033073,-0.07235 0.033073,-0.164331 0,-0.09922 -0.03514,-0.169499 -0.03514,-0.07028 -0.094051,-0.104386 -0.058911,-0.03514 -0.1312581,-0.03514 -0.088883,0 -0.1271241,0.0217 -0.038241,0.0217 -0.1105876,0.07648 -0.071313,0.05374 -0.1178222,0.05374 -0.050643,0 -0.089917,-0.03617 -0.039274,-0.03721 -0.039274,-0.08372 0,-0.0052 0.011369,-0.07028 l 0.086816,-0.49506 q 0.014469,-0.08888 0.053743,-0.129191 0.039274,-0.04031 0.1281576,-0.04031 l 0.5457032,0 q 0.1612309,0 0.1612309,0.12299 0,0.05374 -0.03927,0.08682 -0.03927,0.03307 -0.115755,0.03307 z"
         style="font-style:normal;font-variant:normal;font-weight:normal;font-stretch:normal;font-size:2.11666703px;font-family:'Arial Rounded MT Bold';-inkscape-font-specification:'Arial Rounded MT Bold, '"
         id="path5672" />
      <path
         d="m 10.753622,39.695604 0,0.434082 0.662492,0 0,-0.434082 q 0,-0.09302 0.04134,-0.139527 0.04237,-0.04651 0.110587,-0.04651 0.06925,0 0.111622,0.04651 0.04341,0.04548 0.04341,0.139527 l 0,1.193726 q 0,0.09405 -0.04341,0.140559 -0.04341,0.04651 -0.111622,0.04651 -0.06925,0 -0.110587,-0.04651 -0.04134,-0.04754 -0.04134,-0.140559 l 0,-0.50953 -0.662492,0 0,0.50953 q 0,0.09405 -0.04341,0.140559 -0.04341,0.04651 -0.111622,0.04651 -0.06925,0 -0.110587,-0.04651 -0.04134,-0.04754 -0.04134,-0.140559 l 0,-1.193726 q 0,-0.09302 0.04031,-0.139527 0.04134,-0.04651 0.111621,-0.04651 0.06925,0 0.111622,0.04651 0.04341,0.04548 0.04341,0.139527 z"
         style="font-style:normal;font-variant:normal;font-weight:normal;font-stretch:normal;font-size:2.11666703px;font-family:'Arial Rounded MT Bold';-inkscape-font-specification:'Arial Rounded MT Bold, '"
         id="path5674" />
      <path
         d="m 12.800009,40.252676 -0.516764,0.577742 0.552937,0 q 0.06718,0 0.101286,0.03204 0.03411,0.03101 0.03411,0.08062 0,0.04754 -0.03411,0.07751 -0.03307,0.02997 -0.101286,0.02997 l -0.764811,0 q -0.08061,0 -0.120923,-0.03514 -0.03927,-0.03514 -0.03927,-0.09612 0,-0.03617 0.0279,-0.07235 0.02791,-0.03721 0.115756,-0.135392 0.09302,-0.103353 0.168465,-0.187069 0.07648,-0.08372 0.141593,-0.156063 0.06511,-0.07338 0.107487,-0.124023 0.04341,-0.05064 0.06925,-0.08682 l -0.419613,0 q -0.08682,0 -0.131258,-0.0155 -0.04444,-0.0155 -0.04444,-0.08165 0,-0.04857 0.03307,-0.07751 0.03411,-0.02894 0.09612,-0.02894 l 0.648023,0 q 0.08992,0 0.137459,0.02687 0.04858,0.02584 0.04858,0.09405 0,0.02274 -0.0093,0.04754 -0.0093,0.02377 -0.02067,0.03927 -0.01137,0.0155 -0.03101,0.03824 -0.01964,0.0217 -0.04858,0.05271 z"
         style="font-style:normal;font-variant:normal;font-weight:normal;font-stretch:normal;font-size:2.11666703px;font-family:'Arial Rounded MT Bold';-inkscape-font-specification:'Arial Rounded MT Bold, '"
         id="path5676" />
    </g>
    <g
       style="font-style:normal;font-weight:normal;font-size:11.28889084px;line-height:125%;font-family:sans-serif;letter-spacing:0px;word-spacing:0px;fill:#000000;fill-opacity:1;stroke:none;stroke-width:1px;stroke-linecap:butt;stroke-linejoin:miter;stroke-opacity:1"
       id="text5650">
      <path
         d="m 7.4990395,71.347474 -0.4909262,0 -0.058911,0.334863 q 0.1467611,-0.07855 0.2707846,-0.07855 0.099219,0 0.1850016,0.03721 0.086816,0.03721 0.1519287,0.103353 0.065112,0.06511 0.1023194,0.155029 0.037207,0.08992 0.037207,0.19327 0,0.149862 -0.067179,0.272852 -0.067179,0.12299 -0.1943035,0.195337 -0.1260905,0.07235 -0.2914551,0.07235 -0.1850016,0 -0.3007569,-0.06821 -0.1147217,-0.06821 -0.1632975,-0.156063 -0.047542,-0.08888 -0.047542,-0.155029 0,-0.04031 0.033073,-0.07648 0.034106,-0.03617 0.084749,-0.03617 0.086817,0 0.1291911,0.100252 0.041341,0.09198 0.1116212,0.143661 0.07028,0.05064 0.1570963,0.05064 0.079582,0 0.1395264,-0.04134 0.059945,-0.04134 0.091984,-0.113689 0.033073,-0.07235 0.033073,-0.164331 0,-0.09922 -0.03514,-0.169498 -0.03514,-0.07028 -0.094051,-0.104387 -0.058911,-0.03514 -0.1312582,-0.03514 -0.088883,0 -0.127124,0.0217 -0.038241,0.0217 -0.1105876,0.07648 -0.071314,0.05374 -0.1178223,0.05374 -0.050643,0 -0.089917,-0.03617 -0.039274,-0.03721 -0.039274,-0.08371 0,-0.0052 0.011369,-0.07028 l 0.086816,-0.495061 q 0.014469,-0.08888 0.053744,-0.129191 0.039274,-0.04031 0.1281575,-0.04031 l 0.5457033,0 q 0.1612305,0 0.1612305,0.12299 0,0.05374 -0.039274,0.08682 -0.039274,0.03307 -0.1157553,0.03307 z"
         style="font-style:normal;font-variant:normal;font-weight:normal;font-stretch:normal;font-size:2.11666703px;font-family:'Arial Rounded MT Bold';-inkscape-font-specification:'Arial Rounded MT Bold, '"
         id="path5691" />
      <path
         d="m 8.9335776,71.864238 q 0,0.169499 -0.020671,0.291455 -0.020671,0.121957 -0.076481,0.221176 -0.07028,0.121956 -0.1819011,0.188102 -0.1116211,0.06615 -0.2480469,0.06615 -0.1570964,0 -0.2821534,-0.08888 -0.1240234,-0.08888 -0.1870687,-0.24598 -0.032039,-0.08578 -0.047542,-0.189135 -0.014469,-0.104387 -0.014469,-0.22531 0,-0.156063 0.016536,-0.281119 0.016536,-0.125057 0.051677,-0.214974 0.060978,-0.148829 0.1767334,-0.226343 0.1167888,-0.07855 0.2780192,-0.07855 0.1064535,0 0.1932699,0.03514 0.086816,0.03411 0.1519288,0.101286 0.066146,0.06615 0.1116211,0.164331 0.078548,0.170533 0.078548,0.482658 z m -0.2831869,-0.02067 q 0,-0.189136 -0.022738,-0.309025 -0.022738,-0.120923 -0.076481,-0.181901 -0.053743,-0.06201 -0.1488281,-0.06201 -0.1364258,0 -0.1901693,0.137459 -0.05271,0.13746 -0.05271,0.423747 0,0.194303 0.022738,0.318327 0.022738,0.124023 0.076481,0.188102 0.053744,0.06305 0.1457275,0.06305 0.095085,0 0.1488282,-0.06615 0.053744,-0.06615 0.075448,-0.189136 0.021704,-0.12299 0.021704,-0.322461 z"
         style="font-style:normal;font-variant:normal;font-weight:normal;font-stretch:normal;font-size:2.11666703px;font-family:'Arial Rounded MT Bold';-inkscape-font-specification:'Arial Rounded MT Bold, '"
         id="path5693" />
      <path
         d="m 10.190349,71.864238 q 0,0.169499 -0.02067,0.291455 -0.02067,0.121957 -0.07648,0.221176 -0.07028,0.121956 -0.1819011,0.188102 -0.1116211,0.06615 -0.2480469,0.06615 -0.1570964,0 -0.2821534,-0.08888 -0.1240235,-0.08888 -0.1870687,-0.24598 -0.032039,-0.08578 -0.047542,-0.189135 -0.014469,-0.104387 -0.014469,-0.22531 0,-0.156063 0.016536,-0.281119 0.016537,-0.125057 0.051677,-0.214974 0.060978,-0.148829 0.1767334,-0.226343 0.1167887,-0.07855 0.2780192,-0.07855 0.1064535,0 0.1932699,0.03514 0.086816,0.03411 0.1519284,0.101286 0.06615,0.06615 0.111621,0.164331 0.07855,0.170533 0.07855,0.482658 z m -0.2831872,-0.02067 q 0,-0.189136 -0.022738,-0.309025 -0.022738,-0.120923 -0.076481,-0.181901 -0.053743,-0.06201 -0.1488281,-0.06201 -0.1364259,0 -0.1901694,0.137459 -0.05271,0.13746 -0.05271,0.423747 0,0.194303 0.022738,0.318327 0.022738,0.124023 0.076481,0.188102 0.053743,0.06305 0.1457276,0.06305 0.095085,0 0.1488282,-0.06615 0.053744,-0.06615 0.075448,-0.189136 0.021704,-0.12299 0.021704,-0.322461 z"
         style="font-style:normal;font-variant:normal;font-weight:normal;font-stretch:normal;font-size:2.11666703px;font-family:'Arial Rounded MT Bold';-inkscape-font-specification:'Arial Rounded MT Bold, '"
         id="path5695" />
      <path
         d="m 10.763957,71.252389 0,0.434082 0.662492,0 0,-0.434082 q 0,-0.09302 0.04134,-0.139526 0.04237,-0.04651 0.110588,-0.04651 0.06925,0 0.111621,0.04651 0.04341,0.04547 0.04341,0.139526 l 0,1.193726 q 0,0.09405 -0.04341,0.14056 -0.04341,0.04651 -0.111621,0.04651 -0.06925,0 -0.110588,-0.04651 -0.04134,-0.04754 -0.04134,-0.14056 l 0,-0.50953 -0.662492,0 0,0.50953 q 0,0.09405 -0.04341,0.14056 -0.04341,0.04651 -0.111621,0.04651 -0.06925,0 -0.110588,-0.04651 -0.04134,-0.04754 -0.04134,-0.14056 l 0,-1.193726 q 0,-0.09302 0.04031,-0.139526 0.04134,-0.04651 0.111621,-0.04651 0.06925,0 0.111621,0.04651 0.04341,0.04547 0.04341,0.139526 z"
         style="font-style:normal;font-variant:normal;font-weight:normal;font-stretch:normal;font-size:2.11666703px;font-family:'Arial Rounded MT Bold';-inkscape-font-specification:'Arial Rounded MT Bold, '"
         id="path5697" />
      <path
         d="m 12.810344,71.809461 -0.516764,0.577743 0.552938,0 q 0.06718,0 0.101286,0.03204 0.03411,0.03101 0.03411,0.08062 0,0.04754 -0.03411,0.07751 -0.03307,0.02997 -0.101286,0.02997 l -0.764811,0 q -0.08062,0 -0.120923,-0.03514 -0.03927,-0.03514 -0.03927,-0.09612 0,-0.03617 0.02791,-0.07235 0.02791,-0.03721 0.115755,-0.135392 0.09302,-0.103353 0.168465,-0.187069 0.07648,-0.08371 0.141594,-0.156062 0.06511,-0.07338 0.107487,-0.124024 0.04341,-0.05064 0.06925,-0.08682 l -0.419613,0 q -0.08682,0 -0.131258,-0.0155 -0.04444,-0.0155 -0.04444,-0.08165 0,-0.04858 0.03307,-0.07752 0.03411,-0.02894 0.09612,-0.02894 l 0.648022,0 q 0.08992,0 0.13746,0.02687 0.04857,0.02584 0.04857,0.09405 0,0.02274 -0.0093,0.04754 -0.0093,0.02377 -0.02067,0.03927 -0.01137,0.0155 -0.03101,0.03824 -0.01964,0.0217 -0.04858,0.05271 z"
         style="font-style:normal;font-variant:normal;font-weight:normal;font-stretch:normal;font-size:2.11666703px;font-family:'Arial Rounded MT Bold';-inkscape-font-specification:'Arial Rounded MT Bold, '"
         id="path5699" />
    </g>
    <g
       style="font-style:normal;font-weight:normal;font-size:11.28889084px;line-height:125%;font-family:sans-serif;letter-spacing:0px;word-spacing:0px;fill:#000000;fill-opacity:1;stroke:none;stroke-width:1px;stroke-linecap:butt;stroke-linejoin:miter;stroke-opacity:1"
       id="text5654">
      <path
         d="m 6.9895098,56.58504 0.539502,0 q 0.080615,0 0.12299,0.03307 0.042375,0.03307 0.042375,0.08992 0,0.05064 -0.034106,0.08578 -0.033073,0.03514 -0.1012858,0.03514 l -0.7606772,0 q -0.077515,0 -0.1209229,-0.04237 -0.043408,-0.04341 -0.043408,-0.101286 0,-0.03721 0.027905,-0.09818 0.027905,-0.06201 0.060978,-0.09715 0.1374593,-0.142627 0.2480469,-0.243912 0.1105876,-0.10232 0.1581299,-0.134359 0.084749,-0.05994 0.1405599,-0.11989 0.056844,-0.06098 0.085783,-0.124023 0.029972,-0.06408 0.029972,-0.125057 0,-0.06615 -0.032039,-0.117822 -0.031006,-0.05271 -0.085783,-0.08165 -0.053743,-0.02894 -0.1178222,-0.02894 -0.1353923,0 -0.212907,0.118856 -0.010335,0.0155 -0.03514,0.08475 -0.023771,0.06925 -0.054777,0.106454 -0.029972,0.03721 -0.088884,0.03721 -0.051676,0 -0.085783,-0.03411 -0.034106,-0.03411 -0.034106,-0.09302 0,-0.07131 0.032039,-0.148828 0.032039,-0.07751 0.095085,-0.14056 0.064079,-0.06305 0.1612305,-0.101286 0.098185,-0.03927 0.2294434,-0.03927 0.1581299,0 0.2697511,0.04961 0.072347,0.03307 0.127124,0.09095 0.054777,0.05788 0.084749,0.134358 0.031006,0.07545 0.031006,0.157097 0,0.128157 -0.064079,0.233577 -0.063045,0.104387 -0.1291911,0.164331 -0.066146,0.05891 -0.2222087,0.186036 -0.1550293,0.127124 -0.2129069,0.197404 -0.024805,0.0279 -0.050643,0.06718 z"
         style="font-style:normal;font-variant:normal;font-weight:normal;font-stretch:normal;font-size:2.11666703px;font-family:'Arial Rounded MT Bold';-inkscape-font-specification:'Arial Rounded MT Bold, '"
         id="path5679" />
      <path
         d="m 8.7537435,55.569081 -0.4909262,0 -0.058911,0.334863 q 0.1467611,-0.07855 0.2707845,-0.07855 0.099219,0 0.1850017,0.03721 0.086816,0.03721 0.1519287,0.103353 0.065112,0.06511 0.1023194,0.15503 0.037207,0.08992 0.037207,0.193269 0,0.149862 -0.067179,0.272852 -0.067179,0.12299 -0.1943035,0.195337 -0.1260905,0.07235 -0.2914551,0.07235 -0.1850016,0 -0.3007569,-0.06821 -0.1147217,-0.06821 -0.1632975,-0.156063 -0.047542,-0.08888 -0.047542,-0.155029 0,-0.04031 0.033073,-0.07648 0.034106,-0.03617 0.084749,-0.03617 0.086816,0 0.1291911,0.100253 0.041341,0.09198 0.1116212,0.14366 0.07028,0.05064 0.1570963,0.05064 0.079582,0 0.1395264,-0.04134 0.059945,-0.04134 0.091984,-0.113688 0.033073,-0.07235 0.033073,-0.164331 0,-0.09922 -0.03514,-0.169499 -0.03514,-0.07028 -0.094051,-0.104387 -0.058911,-0.03514 -0.1312582,-0.03514 -0.088883,0 -0.127124,0.0217 -0.038241,0.0217 -0.1105876,0.07648 -0.071314,0.05374 -0.1178223,0.05374 -0.050643,0 -0.089917,-0.03617 -0.039274,-0.03721 -0.039274,-0.08372 0,-0.0052 0.011369,-0.07028 l 0.086816,-0.49506 q 0.014469,-0.08888 0.053744,-0.129191 0.039274,-0.04031 0.1281575,-0.04031 l 0.5457033,0 q 0.1612305,0 0.1612305,0.12299 0,0.05374 -0.039274,0.08682 -0.039274,0.03307 -0.1157553,0.03307 z"
         style="font-style:normal;font-variant:normal;font-weight:normal;font-stretch:normal;font-size:2.11666703px;font-family:'Arial Rounded MT Bold';-inkscape-font-specification:'Arial Rounded MT Bold, '"
         id="path5681" />
      <path
         d="m 10.188282,56.085846 q 0,0.169498 -0.02067,0.291455 -0.02067,0.121956 -0.07648,0.221175 -0.07028,0.121956 -0.1819012,0.188102 -0.1116211,0.06615 -0.2480469,0.06615 -0.1570964,0 -0.2821534,-0.08888 -0.1240235,-0.08888 -0.1870687,-0.245979 -0.032039,-0.08578 -0.047542,-0.189136 -0.014469,-0.104387 -0.014469,-0.225309 0,-0.156063 0.016536,-0.28112 0.016537,-0.125057 0.051677,-0.214974 0.060978,-0.148828 0.1767334,-0.226343 0.1167887,-0.07855 0.2780192,-0.07855 0.1064535,0 0.1932699,0.03514 0.086816,0.03411 0.1519288,0.101286 0.066146,0.06614 0.1116207,0.164331 0.07855,0.170532 0.07855,0.482658 z m -0.2831873,-0.02067 q 0,-0.189136 -0.022738,-0.309025 -0.022738,-0.120923 -0.076481,-0.181901 -0.053743,-0.06201 -0.1488281,-0.06201 -0.1364258,0 -0.1901693,0.137459 -0.05271,0.13746 -0.05271,0.423747 0,0.194304 0.022738,0.318327 0.022738,0.124024 0.076481,0.188102 0.053743,0.06305 0.1457275,0.06305 0.095085,0 0.1488282,-0.06615 0.053743,-0.06615 0.075448,-0.189136 0.021704,-0.12299 0.021704,-0.322461 z"
         style="font-style:normal;font-variant:normal;font-weight:normal;font-stretch:normal;font-size:2.11666703px;font-family:'Arial Rounded MT Bold';-inkscape-font-specification:'Arial Rounded MT Bold, '"
         id="path5683" />
      <path
         d="m 10.76189,55.473997 0,0.434082 0.662492,0 0,-0.434082 q 0,-0.09302 0.04134,-0.139527 0.04237,-0.04651 0.110588,-0.04651 0.06925,0 0.111621,0.04651 0.04341,0.04547 0.04341,0.139527 l 0,1.193725 q 0,0.09405 -0.04341,0.14056 -0.04341,0.04651 -0.111621,0.04651 -0.06925,0 -0.110588,-0.04651 -0.04134,-0.04754 -0.04134,-0.14056 l 0,-0.509529 -0.662492,0 0,0.509529 q 0,0.09405 -0.04341,0.14056 -0.04341,0.04651 -0.111621,0.04651 -0.06925,0 -0.110588,-0.04651 -0.04134,-0.04754 -0.04134,-0.14056 l 0,-1.193725 q 0,-0.09302 0.04031,-0.139527 0.04134,-0.04651 0.111621,-0.04651 0.06925,0 0.111621,0.04651 0.04341,0.04547 0.04341,0.139527 z"
         style="font-style:normal;font-variant:normal;font-weight:normal;font-stretch:normal;font-size:2.11666703px;font-family:'Arial Rounded MT Bold';-inkscape-font-specification:'Arial Rounded MT Bold, '"
         id="path5685" />
      <path
         d="m 12.808277,56.031069 -0.516764,0.577742 0.552938,0 q 0.06718,0 0.101286,0.03204 0.03411,0.03101 0.03411,0.08062 0,0.04754 -0.03411,0.07751 -0.03307,0.02997 -0.101286,0.02997 l -0.764812,0 q -0.08061,0 -0.120922,-0.03514 -0.03927,-0.03514 -0.03927,-0.09612 0,-0.03617 0.02791,-0.07235 0.02791,-0.03721 0.115755,-0.135393 0.09302,-0.103353 0.168465,-0.187068 0.07648,-0.08372 0.141594,-0.156063 0.06511,-0.07338 0.107487,-0.124024 0.04341,-0.05064 0.06925,-0.08682 l -0.419613,0 q -0.08682,0 -0.131258,-0.0155 -0.04444,-0.0155 -0.04444,-0.08165 0,-0.04858 0.03307,-0.07751 0.03411,-0.02894 0.09612,-0.02894 l 0.648022,0 q 0.08992,0 0.13746,0.02687 0.04857,0.02584 0.04857,0.09405 0,0.02274 -0.0093,0.04754 -0.0093,0.02377 -0.02067,0.03927 -0.01137,0.0155 -0.03101,0.03824 -0.01964,0.0217 -0.04858,0.05271 z"
         style="font-style:normal;font-variant:normal;font-weight:normal;font-stretch:normal;font-size:2.11666703px;font-family:'Arial Rounded MT Bold';-inkscape-font-specification:'Arial Rounded MT Bold, '"
         id="path5687" />
    </g>
  </g>
</svg>
