<?xml version="1.0" encoding="UTF-8" standalone="no"?>
<!-- Created with Inkscape (http://www.inkscape.org/) -->

<svg
   xmlns:dc="http://purl.org/dc/elements/1.1/"
   xmlns:cc="http://creativecommons.org/ns#"
   xmlns:rdf="http://www.w3.org/1999/02/22-rdf-syntax-ns#"
   xmlns:svg="http://www.w3.org/2000/svg"
   xmlns="http://www.w3.org/2000/svg"
   xmlns:sodipodi="http://sodipodi.sourceforge.net/DTD/sodipodi-0.dtd"
   xmlns:inkscape="http://www.inkscape.org/namespaces/inkscape"
   width="39.747417mm"
   height="100.54166mm"
   viewBox="0 0 39.747417 100.54166"
   version="1.1"
   id="svg4541"
   sodipodi:docname="LFO.svg"
   inkscape:version="0.91 r13725">
  <defs
     id="defs4535" />
  <sodipodi:namedview
     id="base"
     pagecolor="#ffffff"
     bordercolor="#666666"
     borderopacity="1.0"
     inkscape:pageopacity="0"
     inkscape:pageshadow="2"
     inkscape:zoom="1.5157896"
     inkscape:cx="98.456845"
     inkscape:cy="191.95094"
     inkscape:document-units="mm"
     inkscape:current-layer="layer1"
     showgrid="false"
     fit-margin-top="0"
     fit-margin-left="0"
     fit-margin-right="0"
     fit-margin-bottom="0"
     inkscape:window-width="1366"
     inkscape:window-height="715"
     inkscape:window-x="-8"
     inkscape:window-y="-8"
     inkscape:window-maximized="1"
     inkscape:showpageshadow="false" />
  <metadata
     id="metadata4538">
    <rdf:RDF>
      <cc:Work
         rdf:about="">
        <dc:format>image/svg+xml</dc:format>
        <dc:type
           rdf:resource="http://purl.org/dc/dcmitype/StillImage" />
        <dc:title />
      </cc:Work>
    </rdf:RDF>
  </metadata>
  <g
     inkscape:groupmode="layer"
     id="layer4"
     inkscape:label="SFONDO"
     style="display:inline">
    <rect
       style="fill:#e6e6e6;fill-opacity:1"
       id="rect3921"
       width="39.769703"
       height="100.77843"
       x="0"
       y="-0.094228908" />
  </g>
  <g
     inkscape:groupmode="layer"
     id="layer7"
     inkscape:label="LOGO"
     style="display:inline">
    <g
       style="font-style:normal;font-weight:normal;font-size:11.28888893px;line-height:125%;font-family:sans-serif;letter-spacing:0px;word-spacing:0px;fill:#000000;fill-opacity:1;stroke:none;stroke-width:1px;stroke-linecap:butt;stroke-linejoin:miter;stroke-opacity:1"
       id="text10784">
      <path
         d="m 14.213978,6.2145129 0.571885,1.6932644 0.573609,-1.7053222 q 0.04479,-0.1343588 0.06718,-0.1860352 0.02239,-0.053399 0.07407,-0.09474 0.05168,-0.043064 0.141249,-0.043064 0.06546,0 0.120578,0.032728 0.05684,0.032728 0.08785,0.08785 0.03273,0.053399 0.03273,0.1085205 0,0.037896 -0.01034,0.082682 -0.01033,0.043064 -0.02584,0.086127 -0.0155,0.041341 -0.03101,0.086127 l -0.611504,1.6502007 q -0.03273,0.09474 -0.06546,0.1808675 -0.03273,0.084405 -0.07579,0.1498616 -0.04306,0.063734 -0.115411,0.1050754 -0.07062,0.041341 -0.173977,0.041341 -0.103353,0 -0.1757,-0.041341 -0.07062,-0.039618 -0.115411,-0.1050754 -0.04306,-0.067179 -0.07579,-0.1515842 -0.03273,-0.084405 -0.06546,-0.1791449 L 13.740277,6.3764324 q -0.0155,-0.044786 -0.03273,-0.08785 -0.0155,-0.043064 -0.02756,-0.093018 -0.01033,-0.049954 -0.01033,-0.084405 0,-0.08785 0.07062,-0.1601969 0.07062,-0.072347 0.177422,-0.072347 0.130914,0 0.184313,0.08096 0.05512,0.079237 0.111966,0.2549371 z"
         style="font-style:normal;font-variant:normal;font-weight:normal;font-stretch:normal;font-size:3.52777767px;font-family:'Arial Rounded MT Bold';-inkscape-font-specification:'Arial Rounded MT Bold, '"
         id="path10789"
         inkscape:connector-curvature="0" />
      <path
         d="m 18.368763,7.6493951 q 0,0.1205784 -0.06029,0.2618273 -0.05857,0.1395263 -0.186035,0.2756076 -0.127468,0.1343587 -0.325561,0.2187636 -0.198093,0.084405 -0.461643,0.084405 -0.199816,0 -0.363458,-0.037896 -0.163642,-0.037896 -0.298,-0.1171332 -0.132637,-0.08096 -0.244602,-0.2118734 -0.09991,-0.1188558 -0.170532,-0.2652723 -0.07062,-0.1481391 -0.106798,-0.3152262 -0.03445,-0.1670872 -0.03445,-0.3548449 0,-0.3048909 0.08785,-0.5460476 0.08957,-0.2411567 0.254937,-0.4116889 0.165364,-0.1722547 0.387573,-0.2618272 0.222209,-0.089573 0.473701,-0.089573 0.306613,0 0.546047,0.1223009 0.239434,0.1223009 0.366903,0.3031684 0.127468,0.1791449 0.127468,0.3393419 0,0.08785 -0.06201,0.1550293 -0.06201,0.067179 -0.149862,0.067179 -0.09819,0 -0.148139,-0.046509 -0.04823,-0.046509 -0.108521,-0.1601969 -0.09991,-0.1877577 -0.235989,-0.2807753 -0.134358,-0.093018 -0.332451,-0.093018 -0.315227,0 -0.502984,0.2394342 -0.186035,0.2394341 -0.186035,0.6804063 0,0.2945557 0.08268,0.4909261 0.08268,0.1946479 0.234266,0.2911106 0.151585,0.096463 0.354845,0.096463 0.220486,0 0.37207,-0.1085205 0.153307,-0.110243 0.230822,-0.3221164 0.03273,-0.099908 0.08096,-0.1619195 0.04823,-0.063734 0.155029,-0.063734 0.0913,0 0.156752,0.063734 0.06546,0.063734 0.06546,0.1584744 z"
         style="font-style:normal;font-variant:normal;font-weight:normal;font-stretch:normal;font-size:3.52777767px;font-family:'Arial Rounded MT Bold';-inkscape-font-specification:'Arial Rounded MT Bold, '"
         id="path10791"
         inkscape:connector-curvature="0" />
      <path
         d="m 20.211889,6.1886747 0,1.8379584 1.036973,0 q 0.124024,0 0.18948,0.060289 0.06718,0.060289 0.06718,0.1515842 0,0.093018 -0.06546,0.1515842 -0.06546,0.056844 -0.191203,0.056844 l -1.235066,0 q -0.167088,0 -0.241157,-0.07407 -0.07235,-0.07407 -0.07235,-0.2394341 l 0,-1.9447563 q 0,-0.1550293 0.0689,-0.232544 0.07062,-0.077515 0.184312,-0.077515 0.115411,0 0.186035,0.077515 0.07235,0.075792 0.07235,0.232544 z"
         style="font-style:normal;font-variant:normal;font-weight:normal;font-stretch:normal;font-size:3.52777767px;font-family:'Arial Rounded MT Bold';-inkscape-font-specification:'Arial Rounded MT Bold, '"
         id="path10793"
         inkscape:connector-curvature="0" />
      <path
         d="m 23.348648,6.3161432 -1.007691,0 0,0.6459554 0.842326,0 q 0.117133,0 0.173977,0.053399 0.05857,0.051676 0.05857,0.1395263 0,0.08785 -0.05857,0.1395264 -0.05857,0.051676 -0.173977,0.051676 l -0.842326,0 0,0.8319906 q 0,0.1584743 -0.07235,0.235989 -0.07062,0.075792 -0.18259,0.075792 -0.113688,0 -0.186035,-0.077515 -0.07062,-0.077515 -0.07062,-0.2342664 l 0,-1.9430338 q 0,-0.1102431 0.03273,-0.179145 0.03273,-0.070625 0.10163,-0.1016303 0.07062,-0.032728 0.179145,-0.032728 l 1.205784,0 q 0.122301,0 0.180867,0.055122 0.06029,0.053399 0.06029,0.1412489 0,0.089573 -0.06029,0.144694 -0.05857,0.053399 -0.180867,0.053399 z"
         style="font-style:normal;font-variant:normal;font-weight:normal;font-stretch:normal;font-size:3.52777767px;font-family:'Arial Rounded MT Bold';-inkscape-font-specification:'Arial Rounded MT Bold, '"
         id="path10795"
         inkscape:connector-curvature="0" />
      <path
         d="m 25.079808,5.8786161 q 0.392741,0 0.673516,0.1601969 0.282498,0.1584744 0.427192,0.4530301 0.144694,0.2928331 0.144694,0.689019 0,0.2928332 -0.07924,0.5322673 -0.07924,0.2394341 -0.237712,0.415134 -0.158474,0.1756998 -0.389295,0.2687174 -0.230822,0.093018 -0.528823,0.093018 -0.296278,0 -0.530544,-0.09474 -0.234267,-0.096463 -0.391019,-0.27044 -0.156751,-0.1739773 -0.237711,-0.4185791 -0.07924,-0.2446018 -0.07924,-0.5288221 0,-0.2911106 0.08268,-0.5339898 0.08441,-0.2428793 0.242879,-0.4134115 0.158474,-0.1705322 0.385851,-0.2601047 0.227376,-0.091295 0.516764,-0.091295 z m 0.726915,1.298801 q 0,-0.2773302 -0.08957,-0.4805909 -0.08957,-0.2032606 -0.25666,-0.3066134 -0.165364,-0.1050755 -0.380683,-0.1050755 -0.153307,0 -0.28422,0.058567 -0.129191,0.056844 -0.223931,0.1670871 -0.09302,0.110243 -0.14814,0.2824978 -0.0534,0.1705322 -0.0534,0.3841282 0,0.2153184 0.0534,0.3892957 0.05512,0.1739773 0.153307,0.289388 0.09991,0.1136882 0.227376,0.1705323 0.129192,0.056844 0.282498,0.056844 0.196371,0 0.360013,-0.098185 0.165364,-0.098185 0.261827,-0.3031684 0.09819,-0.2049832 0.09819,-0.5047064 z"
         style="font-style:normal;font-variant:normal;font-weight:normal;font-stretch:normal;font-size:3.52777767px;font-family:'Arial Rounded MT Bold';-inkscape-font-specification:'Arial Rounded MT Bold, '"
         id="path10797"
         inkscape:connector-curvature="0" />
    </g>
  </g>
  <g
     inkscape:label="TESTO"
     inkscape:groupmode="layer"
     id="layer1"
     transform="translate(-48.040781,-57.736346)"
     style="display:inline;opacity:1">
    <g
       transform="matrix(0.27602379,0,0,0.27602379,354.09618,58.30079)"
       id="g13122"
       style="stroke-width:0.9585526">
      <path
         inkscape:connector-curvature="0"
         id="path11478"
         d="m -1050.4688,46.741669 c 0,0.34375 0.2657,0.609375 0.6094,0.609375 0.3438,0 0.6094,-0.265625 0.6094,-0.609375 l 0,-2.28125 3.0312,0 c 0.2969,0 0.5469,-0.25 0.5469,-0.5625 0,-0.3125 -0.25,-0.5625 -0.5469,-0.5625 l -3.0312,0 0,-1.90625 3.4687,0 c 0.3125,0 0.5625,-0.25 0.5625,-0.5625 0,-0.3125 -0.25,-0.5625 -0.5625,-0.5625 l -4.0781,0 c -0.3437,0 -0.6094,0.265625 -0.6094,0.625 z m 0,0"
         style="fill:#000000;fill-opacity:1;stroke:none;stroke-width:0.9585526" />
      <path
         inkscape:connector-curvature="0"
         id="path11474"
         d="m -1043.8758,46.741669 c 0,0.34375 0.2657,0.609375 0.6094,0.609375 0.3438,0 0.6094,-0.265625 0.6094,-0.609375 l 0,-1.875 1.5625,0 1.6875,2.171875 c 0.1406,0.1875 0.3281,0.3125 0.6094,0.3125 0.2968,0 0.5781,-0.234375 0.5781,-0.5625 0,-0.1875 -0.078,-0.328125 -0.1875,-0.46875 l -1.3438,-1.703125 c 0.9375,-0.28125 1.5938,-0.96875 1.5938,-2.078125 l 0,-0.03125 c 0,-0.609375 -0.2188,-1.125 -0.5781,-1.5 -0.4532,-0.4375 -1.1407,-0.703125 -2.0313,-0.703125 l -2.5,0 c -0.3437,0 -0.6094,0.265625 -0.6094,0.625 z m 1.2188,-2.96875 0,-2.34375 1.7969,0 c 0.9062,0 1.4531,0.40625 1.4531,1.15625 l 0,0.01563 c 0,0.71875 -0.5625,1.171875 -1.4375,1.171875 z m 0,0"
         style="fill:#000000;fill-opacity:1;stroke:none;stroke-width:0.9585526" />
      <path
         inkscape:connector-curvature="0"
         id="path11470"
         d="m -1035.8554,47.304169 4.125,0 c 0.2969,0 0.5469,-0.234375 0.5469,-0.546875 0,-0.296875 -0.25,-0.546875 -0.5469,-0.546875 l -3.5156,0 0,-1.890625 3.0156,0 c 0.2969,0 0.5469,-0.234375 0.5469,-0.53125 0,-0.3125 -0.25,-0.5625 -0.5469,-0.5625 l -3.0156,0 0,-1.828125 3.4687,0 c 0.2969,0 0.5469,-0.234375 0.5469,-0.546875 0,-0.296875 -0.25,-0.546875 -0.5469,-0.546875 l -4.0781,0 c -0.3437,0 -0.6094,0.265625 -0.6094,0.625 l 0,5.75 c 0,0.359375 0.2657,0.625 0.6094,0.625 z m 0,0"
         style="fill:#000000;fill-opacity:1;stroke:none;stroke-width:0.9585526" />
      <path
         inkscape:connector-curvature="0"
         id="path11466"
         d="m -1026.4966,47.429169 c 0.8125,0 1.5468,-0.25 2.1406,-0.671875 l 0.5,0.453125 c 0.1094,0.109375 0.25,0.1875 0.4219,0.1875 0.3281,0 0.5781,-0.28125 0.5781,-0.59375 0,-0.203125 -0.078,-0.359375 -0.2187,-0.484375 l -0.4532,-0.359375 c 0.4532,-0.609375 0.7032,-1.359375 0.7032,-2.15625 l 0,-0.01563 c 0,-1.96875 -1.5001,-3.609375 -3.6407,-3.609375 -2.1562,0 -3.6719,1.65625 -3.6719,3.625 l 0,0.01563 c 0,1.96875 1.5,3.609375 3.6407,3.609375 z m 0.3593,-2.203125 0.875,0.734375 c -0.3437,0.203125 -0.75,0.328125 -1.2031,0.328125 -1.3906,0 -2.3906,-1.125 -2.3906,-2.484375 l 0,-0.01563 c 0,-1.359375 0.9687,-2.46875 2.3594,-2.46875 1.3906,0 2.3906,1.125 2.3906,2.484375 l 0,0.01563 c 0,0.5 -0.125,0.953125 -0.3438,1.328125 l -0.9062,-0.8125 c -0.1406,-0.125 -0.25,-0.1875 -0.4219,-0.1875 -0.3281,0 -0.5781,0.28125 -0.5781,0.59375 0,0.21875 0.078,0.359375 0.2187,0.484375 z m 0,0"
         style="fill:#000000;fill-opacity:1;stroke:none;stroke-width:0.9585526" />
      <g
         id="g6292"
         transform="translate(0,-40.898244)">
        <path
           inkscape:connector-curvature="0"
           id="path25117"
           d="m -1072.1407,297.40625 c 0,-1.55859 -1.2773,-2.83203 -2.8359,-2.83203 l -21.7774,0 c -1.5585,0 -2.832,1.27344 -2.832,2.83203 l 0,33.08984 c 0,1.5586 1.2735,2.83594 2.832,2.83594 l 21.7774,0 c 1.5586,0 2.8359,-1.27734 2.8359,-2.83594 z m 0,0"
           style="fill:#212121;fill-opacity:1;fill-rule:nonzero;stroke:none;stroke-width:0.9585526" />
        <path
           inkscape:connector-curvature="0"
           id="path25119"
           d="m -1039.5196,297.40625 c 0,-1.55859 -1.2734,-2.83203 -2.8359,-2.83203 l -21.7735,0 c -1.5585,0 -2.8359,1.27344 -2.8359,2.83203 l 0,33.08984 c 0,1.5586 1.2774,2.83594 2.8359,2.83594 l 21.7735,0 c 1.5625,0 2.8359,-1.27734 2.8359,-2.83594 z m 0,0"
           style="fill:#212121;fill-opacity:1;fill-rule:nonzero;stroke:none;stroke-width:0.9585526" />
        <path
           inkscape:connector-curvature="0"
           id="path25121"
           d="m -1006.6368,297.40625 c 0,-1.55859 -1.2773,-2.83203 -2.8359,-2.83203 l -21.7734,0 c -1.5586,0 -2.836,1.27344 -2.836,2.83203 l 0,33.08984 c 0,1.5586 1.2774,2.83594 2.836,2.83594 l 21.7734,0 c 1.5586,0 2.8359,-1.27734 2.8359,-2.83594 z m 0,0"
           style="fill:#212121;fill-opacity:1;fill-rule:nonzero;stroke:none;stroke-width:0.9585526" />
        <path
           inkscape:connector-curvature="0"
           id="path25123"
           d="m -973.75395,297.40625 c 0,-1.55859 -1.27734,-2.83203 -2.83594,-2.83203 l -21.77344,0 c -1.5625,0 -2.83597,1.27344 -2.83597,2.83203 l 0,33.08984 c 0,1.5586 1.27347,2.83594 2.83597,2.83594 l 21.77344,0 c 1.5586,0 2.83594,-1.27734 2.83594,-2.83594 z m 0,0"
           style="fill:#212121;fill-opacity:1;fill-rule:nonzero;stroke:none;stroke-width:0.9585526" />
        <path
           style="fill:#e6e6e6;fill-opacity:1;stroke:none;stroke-width:0.9585526"
           d="m -1092.1309,303.38767 c 0.9687,0 1.625,-0.5 1.625,-1.35937 l 0,-0.0156 c 0,-0.75 -0.4844,-1.09375 -1.4532,-1.32812 -0.875,-0.20313 -1.0781,-0.35938 -1.0781,-0.71875 0,-0.3125 0.2656,-0.54688 0.7344,-0.54688 0.3594,0 0.7031,0.10938 1.0469,0.34375 0.062,0.0469 0.125,0.0625 0.2031,0.0625 0.2187,0 0.3906,-0.17187 0.3906,-0.375 0,-0.15625 -0.094,-0.26562 -0.1875,-0.3125 -0.4062,-0.28125 -0.8594,-0.42187 -1.4375,-0.42187 -0.9062,0 -1.5469,0.53125 -1.5469,1.3125 l 0,0.0156 c 0,0.84375 0.5313,1.125 1.5,1.35938 0.8594,0.1875 1.0313,0.375 1.0313,0.6875 l 0,0.0156 c 0,0.34375 -0.3125,0.57813 -0.7969,0.57813 -0.5,0 -0.9062,-0.17188 -1.2812,-0.46875 -0.047,-0.0469 -0.125,-0.0781 -0.2344,-0.0781 -0.2031,0 -0.375,0.17188 -0.375,0.375 0,0.125 0.062,0.23438 0.1562,0.3125 0.5,0.375 1.0938,0.5625 1.7032,0.5625 z m 0,0"
           id="path11462"
           inkscape:connector-curvature="0" />
        <path
           style="fill:#e6e6e6;fill-opacity:1;stroke:none;stroke-width:0.9585526"
           d="m -1089.3163,302.9658 c 0,0.21875 0.1875,0.39062 0.4062,0.39062 0.2188,0 0.4063,-0.17187 0.4063,-0.39062 l 0,-3.82813 c 0,-0.21875 -0.1875,-0.39062 -0.4063,-0.39062 -0.2187,0 -0.4062,0.17187 -0.4062,0.39062 z m 0,0"
           id="path11458"
           inkscape:connector-curvature="0" />
        <path
           style="fill:#e6e6e6;fill-opacity:1;stroke:none;stroke-width:0.9585526"
           d="m -1087.094,302.9658 c 0,0.21875 0.1875,0.39062 0.4063,0.39062 0.2187,0 0.3906,-0.17187 0.3906,-0.39062 l 0,-2.89063 2.3437,3.03125 c 0.1094,0.14063 0.2188,0.25 0.4063,0.25 l 0.031,0 c 0.2188,0 0.3907,-0.1875 0.3907,-0.40625 l 0,-3.8125 c 0,-0.21875 -0.1719,-0.39062 -0.3907,-0.39062 -0.2187,0 -0.3906,0.17187 -0.3906,0.39062 l 0,2.79688 -2.2812,-2.95313 c -0.1094,-0.14062 -0.2188,-0.23437 -0.4063,-0.23437 l -0.094,0 c -0.2188,0 -0.4063,0.1875 -0.4063,0.40625 z m 0,0"
           id="path11454"
           inkscape:connector-curvature="0" />
        <path
           style="fill:#e6e6e6;fill-opacity:1;stroke:none;stroke-width:0.9585526"
           d="m -1081.3149,303.32517 2.6875,0 c 0.1875,0 0.3593,-0.15625 0.3593,-0.35937 0,-0.1875 -0.1718,-0.35938 -0.3593,-0.35938 l -2.2813,0 0,-1.21875 1.9531,0 c 0.1875,0 0.3594,-0.15625 0.3594,-0.34375 0,-0.20312 -0.1719,-0.375 -0.3594,-0.375 l -1.9531,0 0,-1.17187 2.25,0 c 0.1875,0 0.3438,-0.15625 0.3438,-0.35938 0,-0.20312 -0.1563,-0.35937 -0.3438,-0.35937 l -2.6562,0 c -0.2188,0 -0.4063,0.17187 -0.4063,0.40625 l 0,3.73437 c 0,0.23438 0.1875,0.40625 0.4063,0.40625 z m 0,0"
           id="path11450"
           inkscape:connector-curvature="0" />
        <path
           style="fill:#e6e6e6;fill-opacity:1;stroke:none;stroke-width:0.9585526"
           d="m -1057.2072,302.9658 c 0,0.21875 0.1875,0.39062 0.4063,0.39062 0.2187,0 0.4062,-0.17187 0.4062,-0.39062 l 0,-3.45313 1.1094,0 c 0.2031,0 0.3594,-0.17187 0.3594,-0.35937 0,-0.20313 -0.1563,-0.375 -0.3594,-0.375 l -3.0313,0 c -0.2031,0 -0.3593,0.17187 -0.3593,0.375 0,0.1875 0.1562,0.35937 0.3593,0.35937 l 1.1094,0 z m 0,0"
           id="path11446"
           inkscape:connector-curvature="0" />
        <path
           style="fill:#e6e6e6;fill-opacity:1;stroke:none;stroke-width:0.9585526"
           d="m -1053.9642,302.9658 c 0,0.21875 0.1875,0.39062 0.4063,0.39062 0.2187,0 0.4062,-0.17187 0.4062,-0.39062 l 0,-1.23438 1,0 1.1094,1.42188 c 0.094,0.125 0.2031,0.20312 0.3906,0.20312 0.1875,0 0.375,-0.14062 0.375,-0.375 0,-0.125 -0.047,-0.20312 -0.125,-0.29687 l -0.875,-1.09375 c 0.6094,-0.20313 1.0313,-0.64063 1.0313,-1.35938 l 0,-0.0156 c 0,-0.40625 -0.125,-0.73438 -0.375,-0.98438 -0.2813,-0.28125 -0.7344,-0.45312 -1.3125,-0.45312 l -1.625,0 c -0.2188,0 -0.4063,0.17187 -0.4063,0.40625 z m 0.8125,-1.9375 0,-1.53125 1.1563,0 c 0.5937,0 0.9375,0.26562 0.9375,0.76562 0,0.46875 -0.3594,0.76563 -0.9375,0.76563 z m 0,0"
           id="path11442"
           inkscape:connector-curvature="0" />
        <path
           style="fill:#e6e6e6;fill-opacity:1;stroke:none;stroke-width:0.9585526"
           d="m -1049.0092,302.9658 c 0,0.21875 0.1875,0.39062 0.4062,0.39062 0.2188,0 0.4063,-0.17187 0.4063,-0.39062 l 0,-3.82813 c 0,-0.21875 -0.1875,-0.39062 -0.4063,-0.39062 -0.2187,0 -0.4062,0.17187 -0.4062,0.39062 z m 0,0"
           id="path11438"
           inkscape:connector-curvature="0" />
        <path
           style="fill:#e6e6e6;fill-opacity:1;stroke:none;stroke-width:0.9585526"
           d="m -1026.3444,303.38767 c 0.9687,0 1.625,-0.5 1.625,-1.35937 l 0,-0.0156 c 0,-0.75 -0.4844,-1.09375 -1.4532,-1.32812 -0.875,-0.20313 -1.0781,-0.35938 -1.0781,-0.71875 0,-0.3125 0.2656,-0.54688 0.7344,-0.54688 0.3594,0 0.7031,0.10938 1.0469,0.34375 0.062,0.0469 0.125,0.0625 0.2031,0.0625 0.2187,0 0.3906,-0.17187 0.3906,-0.375 0,-0.15625 -0.094,-0.26562 -0.1875,-0.3125 -0.4062,-0.28125 -0.8594,-0.42187 -1.4375,-0.42187 -0.9062,0 -1.5469,0.53125 -1.5469,1.3125 l 0,0.0156 c 0,0.84375 0.5313,1.125 1.5,1.35938 0.8594,0.1875 1.0313,0.375 1.0313,0.6875 l 0,0.0156 c 0,0.34375 -0.3125,0.57813 -0.7969,0.57813 -0.5,0 -0.9062,-0.17188 -1.2812,-0.46875 -0.047,-0.0469 -0.125,-0.0781 -0.2344,-0.0781 -0.2031,0 -0.375,0.17188 -0.375,0.375 0,0.125 0.062,0.23438 0.1562,0.3125 0.5,0.375 1.0938,0.5625 1.7032,0.5625 z m 0,0"
           id="path11434"
           inkscape:connector-curvature="0" />
        <path
           style="fill:#e6e6e6;fill-opacity:1;stroke:none;stroke-width:0.9585526"
           d="m -1023.949,302.98142 c 0,0.21875 0.1719,0.375 0.375,0.375 0.1719,0 0.3125,-0.0937 0.375,-0.25 l 0.375,-0.875 2.2188,0 0.375,0.84375 c 0.062,0.17188 0.1875,0.28125 0.3906,0.28125 0.2031,0 0.375,-0.17187 0.375,-0.375 0,-0.0625 -0.016,-0.125 -0.047,-0.17187 l -1.6875,-3.78125 c -0.094,-0.1875 -0.25,-0.3125 -0.4844,-0.3125 l -0.031,0 c -0.2344,0 -0.3906,0.125 -0.4844,0.3125 l -1.6875,3.78125 c -0.031,0.0625 -0.062,0.125 -0.062,0.17187 z m 1.4375,-1.46875 0.7969,-1.82812 0.7969,1.82812 z m 0,0"
           id="path11430"
           inkscape:connector-curvature="0" />
        <path
           style="fill:#e6e6e6;fill-opacity:1;stroke:none;stroke-width:0.9585526"
           d="m -1017.6898,303.05955 c 0.078,0.20312 0.2187,0.32812 0.4062,0.32812 l 0.078,0 c 0.2032,0 0.3438,-0.125 0.4219,-0.32812 l 1.0156,-2.96875 1.0157,2.96875 c 0.062,0.20312 0.2031,0.32812 0.4062,0.32812 l 0.078,0 c 0.1875,0 0.3438,-0.125 0.4219,-0.32812 l 1.3438,-3.76563 c 0.016,-0.0469 0.031,-0.10937 0.031,-0.17187 0,-0.20313 -0.1875,-0.375 -0.3906,-0.375 -0.2031,0 -0.3281,0.125 -0.3906,0.28125 l -1.0469,3.14062 -1.0313,-3.125 c -0.062,-0.1875 -0.2031,-0.3125 -0.4062,-0.3125 l -0.047,0 c -0.2031,0 -0.3437,0.125 -0.4062,0.3125 l -1.0313,3.125 -1.0469,-3.14062 c -0.047,-0.15625 -0.2031,-0.28125 -0.3906,-0.28125 -0.2187,0 -0.4219,0.17187 -0.4219,0.39062 0,0.0469 0.016,0.10938 0.047,0.15625 z m 0,0"
           id="path11426"
           inkscape:connector-curvature="0" />
        <path
           style="fill:#e6e6e6;fill-opacity:1;stroke:none;stroke-width:0.9585526"
           d="m -992.70042,303.38767 c 0.96875,0 1.625,-0.5 1.625,-1.35937 l 0,-0.0156 c 0,-0.75 -0.48438,-1.09375 -1.45313,-1.32812 -0.875,-0.20313 -1.07812,-0.35938 -1.07812,-0.71875 0,-0.3125 0.26562,-0.54688 0.73437,-0.54688 0.35938,0 0.70313,0.10938 1.04688,0.34375 0.0625,0.0469 0.125,0.0625 0.20312,0.0625 0.21875,0 0.39063,-0.17187 0.39063,-0.375 0,-0.15625 -0.0937,-0.26562 -0.1875,-0.3125 -0.40625,-0.28125 -0.85938,-0.42187 -1.4375,-0.42187 -0.90625,0 -1.54688,0.53125 -1.54688,1.3125 l 0,0.0156 c 0,0.84375 0.53125,1.125 1.5,1.35938 0.85938,0.1875 1.03125,0.375 1.03125,0.6875 l 0,0.0156 c 0,0.34375 -0.3125,0.57813 -0.79687,0.57813 -0.5,0 -0.90625,-0.17188 -1.28125,-0.46875 -0.0469,-0.0469 -0.125,-0.0781 -0.23438,-0.0781 -0.20312,0 -0.375,0.17188 -0.375,0.375 0,0.125 0.0625,0.23438 0.15625,0.3125 0.5,0.375 1.09375,0.5625 1.70313,0.5625 z m 0,0"
           id="path11422"
           inkscape:connector-curvature="0" />
        <path
           style="fill:#e6e6e6;fill-opacity:1;stroke:none;stroke-width:0.9585526"
           d="m -987.8128,303.4033 c 0.53125,0 1,-0.15625 1.39062,-0.42188 l 0.32813,0.28125 c 0.0625,0.0781 0.15625,0.125 0.28125,0.125 0.20312,0 0.375,-0.17187 0.375,-0.39062 0,-0.14063 -0.0625,-0.23438 -0.15625,-0.3125 l -0.28125,-0.23438 c 0.28125,-0.40625 0.45312,-0.89062 0.45312,-1.40625 0,-1.28125 -0.96875,-2.34375 -2.375,-2.34375 -1.39062,0 -2.375,1.0625 -2.375,2.34375 l 0,0.0156 c 0,1.28125 0.96875,2.34375 2.35938,2.34375 z m 0.23437,-1.4375 0.57813,0.48437 c -0.23438,0.14063 -0.5,0.21875 -0.79688,0.21875 -0.90625,0 -1.54687,-0.73437 -1.54687,-1.625 0,-0.89062 0.64062,-1.60937 1.53125,-1.60937 0.90625,0 1.54687,0.73437 1.54687,1.60937 l 0,0.0156 c 0,0.32812 -0.0781,0.625 -0.21875,0.875 l -0.57812,-0.54688 c -0.0937,-0.0781 -0.17188,-0.10937 -0.28125,-0.10937 -0.20313,0 -0.375,0.17187 -0.375,0.39062 0,0.125 0.0625,0.21875 0.14062,0.29688 z m 0,0"
           id="path11418"
           inkscape:connector-curvature="0" />
        <path
           style="fill:#e6e6e6;fill-opacity:1;stroke:none;stroke-width:0.9585526"
           d="m -984.20033,302.9658 c 0,0.21875 0.1875,0.39062 0.40625,0.39062 0.21875,0 0.40625,-0.17187 0.40625,-0.39062 l 0,-1.23438 1,0 1.10937,1.42188 c 0.0937,0.125 0.20313,0.20312 0.39063,0.20312 0.1875,0 0.375,-0.14062 0.375,-0.375 0,-0.125 -0.0469,-0.20312 -0.125,-0.29687 l -0.875,-1.09375 c 0.60937,-0.20313 1.03125,-0.64063 1.03125,-1.35938 l 0,-0.0156 c 0,-0.40625 -0.125,-0.73438 -0.375,-0.98438 -0.28125,-0.28125 -0.73438,-0.45312 -1.3125,-0.45312 l -1.625,0 c -0.21875,0 -0.40625,0.17187 -0.40625,0.40625 z m 0.8125,-1.9375 0,-1.53125 1.15625,0 c 0.59375,0 0.9375,0.26562 0.9375,0.76562 0,0.46875 -0.35938,0.76563 -0.9375,0.76563 z m 0,0"
           id="path11414"
           inkscape:connector-curvature="0" />
      </g>
      <path
         style="fill:none;stroke:#000000;stroke-width:0.4792763;stroke-linecap:round;stroke-linejoin:round;stroke-miterlimit:10;stroke-opacity:1"
         d="m -1101.6016,245.32813 129.60156,0"
         id="path25313"
         inkscape:connector-curvature="0" />
      <path
         inkscape:connector-curvature="0"
         id="path11242"
         d="m -1097.2276,103.34743 c 0,0.21875 0.1719,0.375 0.375,0.375 0.1719,0 0.3125,-0.0937 0.375,-0.25 l 0.375,-0.875 2.2188,0 0.375,0.84375 c 0.062,0.17188 0.1875,0.28125 0.3906,0.28125 0.2031,0 0.375,-0.17187 0.375,-0.375 0,-0.0625 -0.016,-0.125 -0.047,-0.17187 l -1.6875,-3.781255 c -0.094,-0.1875 -0.25,-0.3125 -0.4843,-0.3125 l -0.031,0 c -0.2344,0 -0.3906,0.125 -0.4844,0.3125 l -1.6875,3.781255 c -0.031,0.0625 -0.062,0.125 -0.062,0.17187 z m 1.4375,-1.46875 0.7969,-1.82812 0.7969,1.82812 z m 0,0"
         style="fill:#000000;fill-opacity:1;stroke:none;stroke-width:0.9585526" />
      <path
         inkscape:connector-curvature="0"
         id="path11238"
         d="m -1091.758,103.33181 c 0,0.21875 0.1875,0.39062 0.4063,0.39062 0.2187,0 0.3906,-0.17187 0.3906,-0.39062 l 0,-2.89063 2.3437,3.03125 c 0.1094,0.14063 0.2188,0.25 0.4063,0.25 l 0.031,0 c 0.2188,0 0.3907,-0.1875 0.3907,-0.40625 l 0,-3.8125 c 0,-0.21875 -0.1719,-0.390625 -0.3907,-0.390625 -0.2187,0 -0.3906,0.171875 -0.3906,0.390625 l 0,2.79688 -2.2812,-2.95313 c -0.1094,-0.140625 -0.2188,-0.234375 -0.4063,-0.234375 l -0.094,0 c -0.2188,0 -0.4063,0.1875 -0.4063,0.40625 z m 0,0"
         style="fill:#000000;fill-opacity:1;stroke:none;stroke-width:0.9585526" />
      <path
         inkscape:connector-curvature="0"
         id="path11234"
         d="m -1086.3857,103.28493 c 0,0.23438 0.1875,0.40625 0.4063,0.40625 l 2.4531,0 c 0.2031,0 0.375,-0.15625 0.375,-0.35937 0,-0.20313 -0.1719,-0.375 -0.375,-0.375 l -2.0469,0 0,-3.45313 c 0,-0.21875 -0.1875,-0.390625 -0.4062,-0.390625 -0.2188,0 -0.4063,0.171875 -0.4063,0.390625 z m 0,0"
         style="fill:#000000;fill-opacity:1;stroke:none;stroke-width:0.9585526" />
      <path
         inkscape:connector-curvature="0"
         id="path11230"
         d="m -1080.2196,103.76931 c 0.6719,0 1.2187,-0.23438 1.6094,-0.5 0.1875,-0.10938 0.2812,-0.28125 0.2812,-0.5 l 0,-1.21875 c 0,-0.21875 -0.1719,-0.40625 -0.4062,-0.40625 l -1.2657,0 c -0.1875,0 -0.3593,0.15625 -0.3593,0.35937 0,0.1875 0.1718,0.34375 0.3593,0.34375 l 0.9063,0 0,0.84375 c -0.2813,0.21875 -0.6719,0.34375 -1.1094,0.34375 -0.9219,0 -1.5469,-0.6875 -1.5469,-1.625 0,-0.875 0.6407,-1.609375 1.4844,-1.609375 0.4844,0 0.8125,0.140625 1.0938,0.359375 0.078,0.0469 0.1562,0.0937 0.25,0.0937 0.2187,0 0.4062,-0.1875 0.4062,-0.40625 0,-0.15625 -0.094,-0.265625 -0.1719,-0.328125 -0.4062,-0.296875 -0.875,-0.453125 -1.5468,-0.453125 -1.375,0 -2.3438,1.07813 -2.3438,2.34375 l 0,0.0156 c 0,1.32812 0.9219,2.34375 2.3594,2.34375 z m 0,0"
         style="fill:#000000;fill-opacity:1;stroke:none;stroke-width:0.9585526" />
      <path
         inkscape:connector-curvature="0"
         id="path11226"
         d="m -1096.5316,67.4763 c 0,0.234375 0.1875,0.40625 0.4063,0.40625 l 1.2968,0 c 1.4375,0 2.4219,-1 2.4219,-2.28125 0,-1.28125 -0.9844,-2.265625 -2.4219,-2.265625 l -1.2968,0 c -0.2188,0 -0.4063,0.171875 -0.4063,0.40625 z m 0.8125,-0.328125 0,-3.09375 0.8906,0 c 0.9532,0 1.5782,0.65625 1.5782,1.546875 l 0,0.01563 c 0,0.890625 -0.625,1.53125 -1.5782,1.53125 z m 0,0"
         style="fill:#000000;fill-opacity:1;stroke:none;stroke-width:0.9585526" />
      <path
         inkscape:connector-curvature="0"
         id="path11222"
         d="m -1089.0999,67.960675 c 0.6719,0 1.2187,-0.234375 1.6094,-0.5 0.1875,-0.109375 0.2812,-0.28125 0.2812,-0.5 l 0,-1.21875 c 0,-0.21875 -0.1719,-0.40625 -0.4062,-0.40625 l -1.2657,0 c -0.1875,0 -0.3593,0.15625 -0.3593,0.359375 0,0.1875 0.1718,0.34375 0.3593,0.34375 l 0.9063,0 0,0.84375 c -0.2813,0.21875 -0.6719,0.34375 -1.1094,0.34375 -0.9219,0 -1.5469,-0.6875 -1.5469,-1.625 0,-0.875 0.6407,-1.609375 1.4844,-1.609375 0.4844,0 0.8125,0.140625 1.0938,0.359375 0.078,0.04687 0.1562,0.09375 0.25,0.09375 0.2187,0 0.4062,-0.1875 0.4062,-0.40625 0,-0.15625 -0.094,-0.265625 -0.1719,-0.328125 -0.4062,-0.296875 -0.875,-0.453125 -1.5468,-0.453125 -1.375,0 -2.3438,1.078125 -2.3438,2.34375 l 0,0.01563 c 0,1.328125 0.9219,2.34375 2.3594,2.34375 z m 0,0"
         style="fill:#000000;fill-opacity:1;stroke:none;stroke-width:0.9585526" />
      <path
         inkscape:connector-curvature="0"
         id="path11218"
         d="m -1084.9403,67.523175 c 0,0.21875 0.1875,0.390625 0.4063,0.390625 0.2187,0 0.4062,-0.171875 0.4062,-0.390625 l 0,-3.453125 1.1094,0 c 0.2031,0 0.3594,-0.171875 0.3594,-0.359375 0,-0.203125 -0.1563,-0.375 -0.3594,-0.375 l -3.0313,0 c -0.2031,0 -0.3593,0.171875 -0.3593,0.375 0,0.1875 0.1562,0.359375 0.3593,0.359375 l 1.1094,0 z m 0,0"
         style="fill:#000000;fill-opacity:1;stroke:none;stroke-width:0.9585526" />
      <path
         inkscape:connector-curvature="0"
         id="path11214"
         d="m -1081.6999,67.4763 c 0,0.234375 0.1875,0.40625 0.4063,0.40625 l 2.4531,0 c 0.2031,0 0.375,-0.15625 0.375,-0.359375 0,-0.203125 -0.1719,-0.375 -0.375,-0.375 l -2.0469,0 0,-3.453125 c 0,-0.21875 -0.1875,-0.390625 -0.4062,-0.390625 -0.2188,0 -0.4063,0.171875 -0.4063,0.390625 z m 0,0"
         style="fill:#000000;fill-opacity:1;stroke:none;stroke-width:0.9585526" />
    </g>
    <g
       style="font-style:normal;font-weight:normal;font-size:11.28888893px;line-height:125%;font-family:sans-serif;letter-spacing:0px;word-spacing:0px;fill:#000000;fill-opacity:1;stroke:none;stroke-width:1px;stroke-linecap:butt;stroke-linejoin:miter;stroke-opacity:1"
       id="text6339"
       transform="translate(0.56444442,0)">
      <path
         d="m 63.519893,94.209005 -0.604614,0 0,0.387574 0.505396,0 q 0.07028,0 0.104386,0.03204 0.03514,0.03101 0.03514,0.08372 0,0.05271 -0.03514,0.08372 -0.03514,0.03101 -0.104386,0.03101 l -0.505396,0 0,0.499195 q 0,0.09508 -0.04341,0.141593 -0.04237,0.04547 -0.109554,0.04547 -0.06821,0 -0.111621,-0.04651 -0.04238,-0.04651 -0.04238,-0.14056 l 0,-1.165821 q 0,-0.06614 0.01964,-0.107487 0.01964,-0.04237 0.06098,-0.06098 0.04237,-0.01964 0.107487,-0.01964 l 0.72347,0 q 0.07338,0 0.108521,0.03307 0.03617,0.03204 0.03617,0.08475 0,0.05374 -0.03617,0.08682 -0.03514,0.03204 -0.108521,0.03204 z"
         style="font-style:normal;font-variant:normal;font-weight:normal;font-stretch:normal;font-size:2.11666656px;font-family:'Arial Rounded MT Bold';-inkscape-font-specification:'Arial Rounded MT Bold, '"
         id="path6344"
         inkscape:connector-curvature="0" />
      <path
         d="m 64.304342,94.839458 -0.107487,0 0,0.486792 q 0,0.09612 -0.04237,0.141593 -0.04238,0.04547 -0.110588,0.04547 -0.07338,0 -0.113688,-0.04754 -0.04031,-0.04754 -0.04031,-0.139526 l 0,-1.165821 q 0,-0.09922 0.04444,-0.14366 0.04444,-0.04444 0.143661,-0.04444 l 0.499194,0 q 0.103353,0 0.176734,0.0093 0.07338,0.0083 0.132291,0.03514 0.07131,0.02997 0.126091,0.08578 0.05478,0.05581 0.08268,0.130224 0.02894,0.07338 0.02894,0.156063 0,0.169499 -0.09612,0.270785 -0.09508,0.101286 -0.289388,0.14366 0.08165,0.04341 0.156062,0.128158 0.07441,0.08475 0.132292,0.180867 0.05891,0.09508 0.09095,0.1726 0.03307,0.07648 0.03307,0.105419 0,0.02997 -0.01964,0.05994 -0.0186,0.02894 -0.05168,0.04548 -0.03307,0.01757 -0.07648,0.01757 -0.05168,0 -0.08682,-0.0248 -0.03514,-0.02377 -0.06098,-0.06098 -0.0248,-0.03721 -0.06821,-0.109555 L 64.66401,95.113343 q -0.06615,-0.112655 -0.118856,-0.171566 -0.05168,-0.05891 -0.10542,-0.08062 -0.05374,-0.0217 -0.135392,-0.0217 z m 0.175699,-0.636654 -0.283186,0 0,0.416512 0.274918,0 q 0.110588,0 0.186035,-0.0186 0.07545,-0.01964 0.114722,-0.06511 0.04031,-0.04651 0.04031,-0.127124 0,-0.06304 -0.03204,-0.110587 -0.03204,-0.04858 -0.08888,-0.07235 -0.05374,-0.02274 -0.211874,-0.02274 z"
         style="font-style:normal;font-variant:normal;font-weight:normal;font-stretch:normal;font-size:2.11666656px;font-family:'Arial Rounded MT Bold';-inkscape-font-specification:'Arial Rounded MT Bold, '"
         id="path6346"
         inkscape:connector-curvature="0" />
      <path
         d="m 66.411706,94.209005 -0.69143,0 0,0.372071 0.636653,0 q 0.07028,0 0.104387,0.03204 0.03514,0.03101 0.03514,0.08268 0,0.05168 -0.03411,0.08475 -0.03411,0.03204 -0.10542,0.03204 l -0.636653,0 0,0.430981 0.715202,0 q 0.07235,0 0.10852,0.03411 0.03721,0.03307 0.03721,0.08888 0,0.05374 -0.03721,0.08785 -0.03617,0.03307 -0.10852,0.03307 l -0.834058,0 q -0.100252,0 -0.144694,-0.04444 -0.04341,-0.04444 -0.04341,-0.14366 l 0,-1.138949 q 0,-0.06614 0.01964,-0.107487 0.01964,-0.04237 0.06098,-0.06098 0.04238,-0.01964 0.107487,-0.01964 l 0.810286,0 q 0.07338,0 0.108521,0.03307 0.03617,0.03204 0.03617,0.08475 0,0.05374 -0.03617,0.08682 -0.03514,0.03204 -0.108521,0.03204 z"
         style="font-style:normal;font-variant:normal;font-weight:normal;font-stretch:normal;font-size:2.11666656px;font-family:'Arial Rounded MT Bold';-inkscape-font-specification:'Arial Rounded MT Bold, '"
         id="path6348"
         inkscape:connector-curvature="0" />
      <path
         d="m 68.045715,95.299378 q 0.06718,0.04547 0.146761,0.08888 0.07958,0.04238 0.10542,0.06821 0.02584,0.02481 0.02584,0.07131 0,0.03307 -0.03101,0.06615 -0.02997,0.03307 -0.07338,0.03307 -0.03514,0 -0.08578,-0.02274 -0.04961,-0.02274 -0.117822,-0.06615 -0.06718,-0.04341 -0.147795,-0.101286 -0.149861,0.07648 -0.367936,0.07648 -0.176733,0 -0.317293,-0.05581 -0.139527,-0.05684 -0.234611,-0.162264 -0.09509,-0.106454 -0.143661,-0.252181 -0.04754,-0.145728 -0.04754,-0.317293 0,-0.174667 0.04961,-0.320394 0.05064,-0.145728 0.145728,-0.248047 0.09508,-0.102319 0.23151,-0.156063 0.136426,-0.05478 0.310059,-0.05478 0.235644,0 0.40411,0.09612 0.169498,0.09508 0.256315,0.271818 0.08682,0.1757 0.08682,0.413412 0,0.360701 -0.195337,0.571541 z m -0.240812,-0.167432 q 0.06408,-0.07338 0.09405,-0.173632 0.03101,-0.100253 0.03101,-0.232544 0,-0.166399 -0.05374,-0.288355 -0.05374,-0.121956 -0.153996,-0.183968 -0.09922,-0.06304 -0.22841,-0.06304 -0.09198,0 -0.170532,0.03514 -0.07752,0.03411 -0.134359,0.100252 -0.05581,0.06615 -0.08888,0.169499 -0.03204,0.102319 -0.03204,0.230477 0,0.261482 0.121957,0.403076 0.121956,0.14056 0.307991,0.14056 0.07648,0 0.157096,-0.03204 -0.04857,-0.03617 -0.121956,-0.07235 -0.07235,-0.03617 -0.09922,-0.05581 -0.02687,-0.01964 -0.02687,-0.05581 0,-0.03101 0.02584,-0.05478 0.02584,-0.02377 0.05684,-0.02377 0.09405,0 0.315226,0.157096 z"
         style="font-style:normal;font-variant:normal;font-weight:normal;font-stretch:normal;font-size:2.11666656px;font-family:'Arial Rounded MT Bold';-inkscape-font-specification:'Arial Rounded MT Bold, '"
         id="path6350"
         inkscape:connector-curvature="0" />
      <path
         d="m 70.325679,95.008956 q 0,0.07235 -0.03617,0.157097 -0.03514,0.08372 -0.111622,0.165364 -0.07648,0.08062 -0.195336,0.131258 -0.118856,0.05064 -0.276986,0.05064 -0.119889,0 -0.218075,-0.02274 -0.09819,-0.02274 -0.1788,-0.07028 -0.07958,-0.04858 -0.146761,-0.127124 -0.05994,-0.07131 -0.10232,-0.159164 -0.04237,-0.08888 -0.06408,-0.189135 -0.02067,-0.100253 -0.02067,-0.212907 0,-0.182935 0.05271,-0.327629 0.05374,-0.144694 0.152962,-0.247013 0.09922,-0.103353 0.232544,-0.157096 0.133325,-0.05374 0.284221,-0.05374 0.183968,0 0.327628,0.07338 0.143661,0.07338 0.220142,0.181901 0.07648,0.107487 0.07648,0.203605 0,0.05271 -0.03721,0.09302 -0.03721,0.04031 -0.08992,0.04031 -0.05891,0 -0.08888,-0.02791 -0.02894,-0.02791 -0.06511,-0.09612 -0.05994,-0.112654 -0.141593,-0.168465 -0.08062,-0.05581 -0.199471,-0.05581 -0.189136,0 -0.301791,0.14366 -0.111621,0.143661 -0.111621,0.408244 0,0.176733 0.04961,0.294556 0.04961,0.116788 0.14056,0.174666 0.09095,0.05788 0.212906,0.05788 0.132292,0 0.223243,-0.06511 0.09198,-0.06615 0.138492,-0.19327 0.01964,-0.05994 0.04858,-0.09715 0.02894,-0.03824 0.09302,-0.03824 0.05478,0 0.09405,0.03824 0.03927,0.03824 0.03927,0.09508 z"
         style="font-style:normal;font-variant:normal;font-weight:normal;font-stretch:normal;font-size:2.11666656px;font-family:'Arial Rounded MT Bold';-inkscape-font-specification:'Arial Rounded MT Bold, '"
         id="path6352"
         inkscape:connector-curvature="0" />
      <path
         d="m 70.825907,94.148027 0.343132,1.015959 0.344165,-1.023194 q 0.02687,-0.08062 0.04031,-0.111621 0.01344,-0.03204 0.04444,-0.05684 0.03101,-0.02584 0.08475,-0.02584 0.03927,0 0.07235,0.01964 0.03411,0.01964 0.05271,0.05271 0.01964,0.03204 0.01964,0.06511 0,0.02274 -0.0062,0.04961 -0.0062,0.02584 -0.0155,0.05168 -0.0093,0.02481 -0.0186,0.05168 l -0.366903,0.99012 q -0.01964,0.05684 -0.03927,0.10852 -0.01964,0.05064 -0.04547,0.08992 -0.02584,0.03824 -0.06925,0.06305 -0.04237,0.0248 -0.104386,0.0248 -0.06201,0 -0.10542,-0.0248 -0.04237,-0.02377 -0.06925,-0.06305 -0.02584,-0.04031 -0.04548,-0.09095 -0.01964,-0.05064 -0.03927,-0.107487 l -0.360701,-0.981852 q -0.0093,-0.02687 -0.01964,-0.05271 -0.0093,-0.02584 -0.01654,-0.05581 -0.0062,-0.02997 -0.0062,-0.05064 0,-0.05271 0.04237,-0.09612 0.04237,-0.04341 0.106453,-0.04341 0.07855,0 0.110588,0.04858 0.03307,0.04754 0.06718,0.152962 z"
         style="font-style:normal;font-variant:normal;font-weight:normal;font-stretch:normal;font-size:2.11666656px;font-family:'Arial Rounded MT Bold';-inkscape-font-specification:'Arial Rounded MT Bold, '"
         id="path6354"
         inkscape:connector-curvature="0" />
    </g>
    <g
       id="g7239">
      <g
         transform="translate(-1.6933332,0)"
         id="text6363"
         style="font-style:normal;font-weight:normal;font-size:11.28888893px;line-height:125%;font-family:sans-serif;letter-spacing:0px;word-spacing:0px;fill:#000000;fill-opacity:1;stroke:none;stroke-width:1px;stroke-linecap:butt;stroke-linejoin:miter;stroke-opacity:1">
        <path
           inkscape:connector-curvature="0"
           id="path6377"
           style="font-style:normal;font-variant:normal;font-weight:normal;font-stretch:normal;font-size:2.11666656px;font-family:'Arial Rounded MT Bold';-inkscape-font-specification:'Arial Rounded MT Bold, '"
           d="m 61.529029,114.94652 -0.326595,0 q -0.07441,0 -0.113689,-0.0341 -0.03824,-0.0351 -0.03824,-0.0899 0,-0.0558 0.03721,-0.0899 0.03824,-0.0351 0.114722,-0.0351 l 0.326595,0 q 0.07648,0 0.113688,0.0351 0.03824,0.0341 0.03824,0.0899 0,0.0548 -0.03721,0.0899 -0.03721,0.0341 -0.114721,0.0341 z" />
        <path
           inkscape:connector-curvature="0"
           id="path6379"
           style="font-style:normal;font-variant:normal;font-weight:normal;font-stretch:normal;font-size:2.11666656px;font-family:'Arial Rounded MT Bold';-inkscape-font-specification:'Arial Rounded MT Bold, '"
           d="m 62.316577,115.23074 0,-0.94051 q -0.262516,0.20153 -0.353466,0.20153 -0.04341,0 -0.07751,-0.0341 -0.03307,-0.0351 -0.03307,-0.0806 0,-0.0527 0.03307,-0.0775 0.03307,-0.0248 0.116789,-0.0641 0.125057,-0.0589 0.199471,-0.12403 0.07545,-0.0651 0.133325,-0.14572 0.05788,-0.0806 0.07545,-0.0992 0.01757,-0.0186 0.06615,-0.0186 0.05478,0 0.08785,0.0424 0.03307,0.0424 0.03307,0.11679 l 0,1.18339 q 0,0.20774 -0.141593,0.20774 -0.06305,0 -0.101286,-0.0424 -0.03824,-0.0424 -0.03824,-0.12505 z" />
      </g>
      <g
         transform="translate(1.1288888,0)"
         id="text6367"
         style="font-style:normal;font-weight:normal;font-size:11.28888893px;line-height:125%;font-family:sans-serif;letter-spacing:0px;word-spacing:0px;fill:#000000;fill-opacity:1;stroke:none;stroke-width:1px;stroke-linecap:butt;stroke-linejoin:miter;stroke-opacity:1">
        <path
           inkscape:connector-curvature="0"
           id="path6372"
           style="font-style:normal;font-variant:normal;font-weight:normal;font-stretch:normal;font-size:2.11666656px;font-family:'Arial Rounded MT Bold';-inkscape-font-specification:'Arial Rounded MT Bold, '"
           d="m 72.879984,115.15426 -0.26665,0 0,-0.39378 -0.395841,0 0,-0.27078 0.395841,0 0,-0.39585 0.26665,0 0,0.39585 0.397909,0 0,0.27078 -0.397909,0 0,0.39378 z" />
        <path
           inkscape:connector-curvature="0"
           id="path6374"
           style="font-style:normal;font-variant:normal;font-weight:normal;font-stretch:normal;font-size:2.11666656px;font-family:'Arial Rounded MT Bold';-inkscape-font-specification:'Arial Rounded MT Bold, '"
           d="m 73.964156,115.23074 0,-0.94051 q -0.262516,0.20153 -0.353467,0.20153 -0.04341,0 -0.07751,-0.0341 -0.03307,-0.0351 -0.03307,-0.0806 0,-0.0527 0.03307,-0.0775 0.03307,-0.0248 0.116788,-0.0641 0.125057,-0.0589 0.199471,-0.12403 0.07545,-0.0651 0.133326,-0.14572 0.05788,-0.0806 0.07545,-0.0992 0.01757,-0.0186 0.06615,-0.0186 0.05478,0 0.08785,0.0424 0.03307,0.0424 0.03307,0.11679 l 0,1.18339 q 0,0.20774 -0.141594,0.20774 -0.06305,0 -0.101285,-0.0424 -0.03824,-0.0424 -0.03824,-0.12505 z" />
      </g>
      <g
         id="text6381"
         style="font-style:normal;font-weight:normal;font-size:11.28888893px;line-height:125%;font-family:sans-serif;letter-spacing:0px;word-spacing:0px;fill:#000000;fill-opacity:1;stroke:none;stroke-width:1px;stroke-linecap:butt;stroke-linejoin:miter;stroke-opacity:1">
        <path
           inkscape:connector-curvature="0"
           id="path6386"
           style="font-style:normal;font-variant:normal;font-weight:normal;font-stretch:normal;font-size:2.11666656px;font-family:'Arial Rounded MT Bold';-inkscape-font-specification:'Arial Rounded MT Bold, '"
           d="m 68.227926,106.0766 q 0,0.16949 -0.02067,0.29145 -0.02067,0.12196 -0.07648,0.22118 -0.07028,0.12195 -0.181901,0.1881 -0.111621,0.0661 -0.248047,0.0661 -0.157096,0 -0.282153,-0.0889 -0.124024,-0.0889 -0.187069,-0.24598 -0.03204,-0.0858 -0.04754,-0.18914 -0.01447,-0.10438 -0.01447,-0.2253 0,-0.15607 0.01654,-0.28112 0.01654,-0.12506 0.05168,-0.21498 0.06098,-0.14883 0.176734,-0.22634 0.116788,-0.0785 0.278019,-0.0785 0.106453,0 0.19327,0.0351 0.08682,0.0341 0.151928,0.10129 0.06615,0.0661 0.111621,0.16433 0.07855,0.17053 0.07855,0.48266 z m -0.283187,-0.0207 q 0,-0.18913 -0.02274,-0.30902 -0.02274,-0.12092 -0.07648,-0.1819 -0.05374,-0.062 -0.148828,-0.062 -0.136426,0 -0.190169,0.13746 -0.05271,0.13746 -0.05271,0.42374 0,0.19431 0.02274,0.31833 0.02274,0.12402 0.07648,0.1881 0.05374,0.063 0.145728,0.063 0.09509,0 0.148828,-0.0661 0.05374,-0.0661 0.07545,-0.18913 0.0217,-0.12299 0.0217,-0.32247 z" />
      </g>
    </g>
    <g
       transform="translate(47.974409,57.966302)"
       style="font-style:normal;font-weight:normal;font-size:11.28888893px;line-height:125%;font-family:sans-serif;letter-spacing:0px;word-spacing:0px;display:inline;fill:#000000;fill-opacity:1;stroke:none;stroke-width:1px;stroke-linecap:butt;stroke-linejoin:miter;stroke-opacity:1"
       id="text8195-6">
      <path
         d="m 32.488727,18.336707 q 0,0.11455 -0.05943,0.205845 -0.05857,0.09129 -0.172255,0.142971 -0.113688,0.05168 -0.269578,0.05168 -0.186897,0 -0.308336,-0.07062 -0.08613,-0.05082 -0.140388,-0.13522 -0.0534,-0.08527 -0.0534,-0.165364 0,-0.04651 0.03187,-0.07924 0.03273,-0.03359 0.08268,-0.03359 0.04048,0 0.06804,0.02584 0.02842,0.02584 0.04823,0.07665 0.02412,0.06029 0.05168,0.100769 0.02842,0.04048 0.07924,0.06718 0.05082,0.02584 0.133498,0.02584 0.113688,0 0.184312,-0.05254 0.07149,-0.0534 0.07149,-0.132636 0,-0.06287 -0.03876,-0.10163 -0.0379,-0.03962 -0.09905,-0.06029 -0.06029,-0.02067 -0.161919,-0.04393 -0.136082,-0.03187 -0.228238,-0.07407 -0.09129,-0.04306 -0.145555,-0.116272 -0.0534,-0.07407 -0.0534,-0.183451 0,-0.104214 0.05684,-0.185174 0.05684,-0.08096 0.164503,-0.124024 0.107659,-0.04392 0.253215,-0.04392 0.116272,0 0.200676,0.02928 0.08527,0.02842 0.141249,0.07665 0.05598,0.04737 0.08182,0.09991 0.02584,0.05254 0.02584,0.102491 0,0.04565 -0.03273,0.08268 -0.03187,0.03617 -0.0801,0.03617 -0.04393,0 -0.06718,-0.02153 -0.02239,-0.02239 -0.04909,-0.07235 -0.03445,-0.07149 -0.08268,-0.111104 -0.04823,-0.04048 -0.155029,-0.04048 -0.09905,0 -0.160197,0.04392 -0.06029,0.04306 -0.06029,0.104214 0,0.0379 0.02067,0.06546 0.02067,0.02756 0.05684,0.04737 0.03617,0.01981 0.07321,0.03101 0.03703,0.0112 0.122301,0.03273 0.106798,0.02498 0.192925,0.05512 0.08699,0.03015 0.147278,0.07321 0.06115,0.04306 0.09474,0.109382 0.03445,0.06546 0.03445,0.161058 z"
         style="font-style:normal;font-variant:normal;font-weight:normal;font-stretch:normal;font-size:1.76388884px;font-family:'Arial Rounded MT Bold';-inkscape-font-specification:'Arial Rounded MT Bold, '"
         id="path8204-7"
         inkscape:connector-curvature="0" />
      <path
         d="m 32.958121,17.586538 0,0.918979 0.518487,0 q 0.06201,0 0.09474,0.03014 0.03359,0.03014 0.03359,0.07579 0,0.04651 -0.03273,0.07579 -0.03273,0.02842 -0.0956,0.02842 l -0.617533,0 q -0.08354,0 -0.120578,-0.03703 -0.03617,-0.03704 -0.03617,-0.119717 l 0,-0.972378 q 0,-0.07752 0.03445,-0.116272 0.03531,-0.03876 0.09216,-0.03876 0.05771,0 0.09302,0.03876 0.03617,0.0379 0.03617,0.116272 z"
         style="font-style:normal;font-variant:normal;font-weight:normal;font-stretch:normal;font-size:1.76388884px;font-family:'Arial Rounded MT Bold';-inkscape-font-specification:'Arial Rounded MT Bold, '"
         id="path8206-0"
         inkscape:connector-curvature="0" />
      <path
         d="m 34.241419,17.431508 q 0.196371,0 0.336759,0.0801 0.141248,0.07924 0.213595,0.226515 0.07235,0.146416 0.07235,0.344509 0,0.146417 -0.03962,0.266134 -0.03962,0.119717 -0.118856,0.207567 -0.07924,0.08785 -0.194648,0.134359 -0.115411,0.04651 -0.264411,0.04651 -0.148139,0 -0.265272,-0.04737 -0.117133,-0.04823 -0.195509,-0.13522 -0.07838,-0.08699 -0.118856,-0.20929 -0.03962,-0.122301 -0.03962,-0.264411 0,-0.145555 0.04134,-0.266995 0.0422,-0.12144 0.12144,-0.206706 0.07924,-0.08527 0.192925,-0.130052 0.113688,-0.04565 0.258382,-0.04565 z m 0.363458,0.649401 q 0,-0.138665 -0.04479,-0.240296 -0.04479,-0.10163 -0.12833,-0.153306 -0.08268,-0.05254 -0.190342,-0.05254 -0.07665,0 -0.14211,0.02928 -0.06459,0.02842 -0.111965,0.08354 -0.04651,0.05512 -0.07407,0.141249 -0.0267,0.08527 -0.0267,0.192064 0,0.107659 0.0267,0.194648 0.02756,0.08699 0.07665,0.144694 0.04995,0.05684 0.113688,0.08527 0.06459,0.02842 0.141249,0.02842 0.09819,0 0.180006,-0.04909 0.08268,-0.04909 0.130913,-0.151584 0.04909,-0.102491 0.04909,-0.252353 z"
         style="font-style:normal;font-variant:normal;font-weight:normal;font-stretch:normal;font-size:1.76388884px;font-family:'Arial Rounded MT Bold';-inkscape-font-specification:'Arial Rounded MT Bold, '"
         id="path8208-4"
         inkscape:connector-curvature="0" />
      <path
         d="m 35.999279,18.516713 -0.204122,-0.757059 -0.206705,0.757059 q -0.02412,0.08613 -0.03876,0.124024 -0.01378,0.03703 -0.04909,0.06718 -0.03531,0.02928 -0.09388,0.02928 -0.04737,0 -0.07838,-0.01809 -0.03014,-0.01723 -0.04909,-0.04909 -0.01895,-0.03273 -0.03101,-0.07665 -0.01206,-0.04479 -0.02153,-0.08268 l -0.210151,-0.850078 q -0.01895,-0.07407 -0.01895,-0.112827 0,-0.04909 0.03445,-0.08268 0.03445,-0.03359 0.08527,-0.03359 0.06976,0 0.09388,0.04479 0.02412,0.04479 0.0422,0.130052 l 0.165365,0.73725 0.185174,-0.68988 q 0.02067,-0.07924 0.03703,-0.120578 0.01637,-0.04134 0.0534,-0.07149 0.03704,-0.03014 0.100769,-0.03014 0.0646,0 0.09991,0.03187 0.03617,0.03101 0.04995,0.06804 0.01378,0.03703 0.03703,0.122301 l 0.186896,0.68988 0.165365,-0.73725 q 0.01206,-0.0577 0.02239,-0.09043 0.0112,-0.03273 0.03704,-0.05857 0.0267,-0.02584 0.07665,-0.02584 0.04995,0 0.0844,0.03359 0.03531,0.03273 0.03531,0.08268 0,0.03531 -0.01895,0.112827 l -0.210151,0.850078 q -0.02153,0.08613 -0.03617,0.126607 -0.01378,0.03962 -0.04823,0.06976 -0.03359,0.03015 -0.0956,0.03015 -0.05857,0 -0.09388,-0.02928 -0.03531,-0.02928 -0.04909,-0.06546 -0.01378,-0.03703 -0.03876,-0.125746 z"
         style="font-style:normal;font-variant:normal;font-weight:normal;font-stretch:normal;font-size:1.76388884px;font-family:'Arial Rounded MT Bold';-inkscape-font-specification:'Arial Rounded MT Bold, '"
         id="path8210-7"
         inkscape:connector-curvature="0" />
    </g>
    <g
       transform="translate(47.974409,57.966302)"
       style="font-style:normal;font-weight:normal;font-size:11.28888893px;line-height:125%;font-family:sans-serif;letter-spacing:0px;word-spacing:0px;display:inline;fill:#000000;fill-opacity:1;stroke:none;stroke-width:1px;stroke-linecap:butt;stroke-linejoin:miter;stroke-opacity:1"
       id="text8199-1">
      <path
         d="m 30.547846,27.497914 0.491787,0.744141 0,-0.751031 q 0,-0.07321 0.03101,-0.109382 0.03187,-0.03703 0.08527,-0.03703 0.05512,0 0.08699,0.03703 0.03187,0.03617 0.03187,0.109382 l 0,0.993049 q 0,0.166226 -0.137804,0.166226 -0.03445,0 -0.06201,-0.01034 -0.02756,-0.0095 -0.05168,-0.03101 -0.02412,-0.02153 -0.04479,-0.04995 -0.02067,-0.02928 -0.04134,-0.05943 l -0.479729,-0.735528 0,0.739834 q 0,0.07235 -0.03359,0.109382 -0.03359,0.03703 -0.08613,0.03703 -0.05426,0 -0.08699,-0.03703 -0.03273,-0.0379 -0.03273,-0.109382 l 0,-0.9741 q 0,-0.06201 0.01378,-0.09732 0.01636,-0.03876 0.05426,-0.06287 0.0379,-0.02498 0.08182,-0.02498 0.03445,0 0.05857,0.0112 0.02498,0.0112 0.04306,0.03015 0.01895,0.01895 0.0379,0.04909 0.01981,0.03015 0.04048,0.06287 z"
         style="font-style:normal;font-variant:normal;font-weight:normal;font-stretch:normal;font-size:1.76388884px;font-family:'Arial Rounded MT Bold';-inkscape-font-specification:'Arial Rounded MT Bold, '"
         id="path8213-1"
         inkscape:connector-curvature="0" />
      <path
         d="m 32.110196,27.344608 q 0.196371,0 0.336758,0.0801 0.141249,0.07924 0.213596,0.226515 0.07235,0.146417 0.07235,0.34451 0,0.146416 -0.03962,0.266133 -0.03962,0.119717 -0.118856,0.207567 -0.07924,0.08785 -0.194648,0.134359 -0.115411,0.04651 -0.264411,0.04651 -0.148139,0 -0.265272,-0.04737 -0.117134,-0.04823 -0.195509,-0.13522 -0.07838,-0.08699 -0.118856,-0.20929 -0.03962,-0.122301 -0.03962,-0.264411 0,-0.145555 0.04134,-0.266995 0.0422,-0.121439 0.12144,-0.206705 0.07924,-0.08527 0.192925,-0.130053 0.113688,-0.04565 0.258382,-0.04565 z m 0.363458,0.6494 q 0,-0.138665 -0.04479,-0.240295 -0.04479,-0.101631 -0.12833,-0.153307 -0.08268,-0.05254 -0.190342,-0.05254 -0.07665,0 -0.14211,0.02928 -0.0646,0.02842 -0.111965,0.08354 -0.04651,0.05512 -0.07407,0.141249 -0.0267,0.08527 -0.0267,0.192064 0,0.107659 0.0267,0.194648 0.02756,0.08699 0.07665,0.144694 0.04995,0.05684 0.113689,0.08527 0.0646,0.02842 0.141248,0.02842 0.09819,0 0.180007,-0.04909 0.08268,-0.04909 0.130913,-0.151585 0.04909,-0.102491 0.04909,-0.252353 z"
         style="font-style:normal;font-variant:normal;font-weight:normal;font-stretch:normal;font-size:1.76388884px;font-family:'Arial Rounded MT Bold';-inkscape-font-specification:'Arial Rounded MT Bold, '"
         id="path8215-0"
         inkscape:connector-curvature="0" />
      <path
         d="m 33.297032,28.088748 -0.08957,0 0,0.40566 q 0,0.0801 -0.03531,0.117995 -0.03531,0.0379 -0.09216,0.0379 -0.06115,0 -0.09474,-0.03962 -0.03359,-0.03962 -0.03359,-0.116272 l 0,-0.971517 q 0,-0.08268 0.03703,-0.119717 0.03703,-0.03703 0.119717,-0.03703 l 0.415995,0 q 0.08613,0 0.147278,0.0078 0.06115,0.0069 0.110243,0.02928 0.05943,0.02498 0.105075,0.07149 0.04565,0.04651 0.0689,0.108521 0.02412,0.06115 0.02412,0.130052 0,0.141249 -0.0801,0.225654 -0.07924,0.08441 -0.241156,0.119717 0.06804,0.03617 0.130052,0.106798 0.06201,0.07062 0.110243,0.150723 0.04909,0.07924 0.07579,0.143832 0.02756,0.06374 0.02756,0.08785 0,0.02498 -0.01636,0.04995 -0.0155,0.02412 -0.04306,0.0379 -0.02756,0.01464 -0.06373,0.01464 -0.04306,0 -0.07235,-0.02067 -0.02928,-0.01981 -0.05082,-0.05082 -0.02067,-0.03101 -0.05684,-0.09129 l -0.102492,-0.170532 q -0.05512,-0.09388 -0.09905,-0.142972 -0.04306,-0.04909 -0.08785,-0.06718 -0.04479,-0.01809 -0.112827,-0.01809 z m 0.146416,-0.530544 -0.235989,0 0,0.347093 0.229099,0 q 0.09216,0 0.155029,-0.0155 0.06287,-0.01636 0.0956,-0.05426 0.03359,-0.03876 0.03359,-0.105937 0,-0.05254 -0.0267,-0.09216 -0.0267,-0.04048 -0.07407,-0.06029 -0.04479,-0.01895 -0.176561,-0.01895 z"
         style="font-style:normal;font-variant:normal;font-weight:normal;font-stretch:normal;font-size:1.76388884px;font-family:'Arial Rounded MT Bold';-inkscape-font-specification:'Arial Rounded MT Bold, '"
         id="path8217-9"
         inkscape:connector-curvature="0" />
      <path
         d="m 34.647509,28.438425 -0.202399,-0.804429 0,0.871609 q 0,0.07235 -0.03273,0.10852 -0.03187,0.03617 -0.08527,0.03617 -0.05168,0 -0.0844,-0.03531 -0.03273,-0.03617 -0.03273,-0.109382 l 0,-0.999078 q 0,-0.08268 0.04306,-0.111104 0.04306,-0.02928 0.116272,-0.02928 l 0.07924,0 q 0.07149,0 0.103353,0.01292 0.03273,0.01292 0.04823,0.04651 0.0155,0.03359 0.03531,0.109382 l 0.183451,0.691603 0.183451,-0.691603 q 0.01981,-0.07579 0.03531,-0.109382 0.0155,-0.03359 0.04737,-0.04651 0.03273,-0.01292 0.104215,-0.01292 l 0.07924,0 q 0.07321,0 0.116272,0.02928 0.04306,0.02842 0.04306,0.111104 l 0,0.999078 q 0,0.07235 -0.03273,0.10852 -0.03187,0.03617 -0.08613,0.03617 -0.05082,0 -0.08354,-0.03617 -0.03273,-0.03617 -0.03273,-0.10852 l 0,-0.871609 -0.2024,0.804429 q -0.01981,0.07838 -0.03273,0.115411 -0.01206,0.03617 -0.04565,0.06632 -0.03359,0.03015 -0.09302,0.03015 -0.04479,0 -0.07579,-0.01981 -0.03101,-0.01895 -0.04823,-0.04909 -0.01723,-0.03014 -0.02756,-0.06632 -0.0095,-0.03703 -0.01981,-0.07665 z"
         style="font-style:normal;font-variant:normal;font-weight:normal;font-stretch:normal;font-size:1.76388884px;font-family:'Arial Rounded MT Bold';-inkscape-font-specification:'Arial Rounded MT Bold, '"
         id="path8219-0"
         inkscape:connector-curvature="0" />
      <path
         d="m 36.500109,28.485796 -0.06029,-0.158475 -0.513319,0 -0.06029,0.16192 q -0.03531,0.09474 -0.06029,0.128329 -0.02498,0.03273 -0.08182,0.03273 -0.04823,0 -0.08527,-0.03531 -0.03703,-0.03531 -0.03703,-0.0801 0,-0.02584 0.0086,-0.0534 0.0086,-0.02756 0.02842,-0.07665 l 0.322978,-0.819933 q 0.01378,-0.03531 0.03273,-0.08441 0.01981,-0.04995 0.04134,-0.08268 0.02239,-0.03273 0.0577,-0.05254 0.03617,-0.02067 0.08871,-0.02067 0.0534,0 0.08871,0.02067 0.03617,0.01981 0.05771,0.05168 0.02239,0.03187 0.03703,0.0689 0.0155,0.03617 0.03876,0.09732 l 0.329868,0.814765 q 0.03876,0.09302 0.03876,0.13522 0,0.04392 -0.03704,0.08096 -0.03617,0.03617 -0.08785,0.03617 -0.03014,0 -0.05168,-0.0112 -0.02153,-0.01034 -0.03617,-0.02842 -0.01464,-0.01895 -0.03187,-0.05684 -0.01636,-0.03876 -0.02842,-0.06804 z m -0.506429,-0.350539 0.377238,0 -0.190341,-0.521071 -0.186897,0.521071 z"
         style="font-style:normal;font-variant:normal;font-weight:normal;font-stretch:normal;font-size:1.76388884px;font-family:'Arial Rounded MT Bold';-inkscape-font-specification:'Arial Rounded MT Bold, '"
         id="path8221-5"
         inkscape:connector-curvature="0" />
      <path
         d="m 37.21066,27.499637 0,0.918979 0.518487,0 q 0.06201,0 0.09474,0.03015 0.03359,0.03014 0.03359,0.07579 0,0.04651 -0.03273,0.07579 -0.03273,0.02842 -0.0956,0.02842 l -0.617533,0 q -0.08354,0 -0.120579,-0.03703 -0.03617,-0.03703 -0.03617,-0.119717 l 0,-0.972378 q 0,-0.07751 0.03445,-0.116272 0.03531,-0.03876 0.09216,-0.03876 0.0577,0 0.09302,0.03876 0.03617,0.0379 0.03617,0.116272 z"
         style="font-style:normal;font-variant:normal;font-weight:normal;font-stretch:normal;font-size:1.76388884px;font-family:'Arial Rounded MT Bold';-inkscape-font-specification:'Arial Rounded MT Bold, '"
         id="path8223-8"
         inkscape:connector-curvature="0" />
    </g>
    <g
       style="font-style:normal;font-weight:normal;font-size:11.28888893px;line-height:125%;font-family:sans-serif;letter-spacing:0px;word-spacing:0px;fill:#000000;fill-opacity:1;stroke:none;stroke-width:1px;stroke-linecap:butt;stroke-linejoin:miter;stroke-opacity:1"
       id="text3433">
      <path
         d="m 66.316772,151.70085 q 0.0069,0.0138 0.02067,0.0482 0.0069,0.0207 0.0069,0.0345 0,0.0344 -0.03445,0.0551 -0.02067,0.007 -0.03445,0.007 -0.02756,0 -0.04823,-0.0344 -0.01378,-0.0345 -0.02067,-0.0413 0.04134,-0.0276 0.110244,-0.0689 0.06201,0.0965 0.09646,0.17914 0.130914,0.28939 0.130914,0.54433 0,0.21359 -0.09646,0.40652 -0.206706,0.40652 -0.682129,0.54432 -0.213596,0.062 -0.413411,0.062 -0.241157,0 -0.461643,-0.0896 -0.406521,-0.17225 -0.516764,-0.58566 -0.03445,-0.12403 -0.03445,-0.24116 0,-0.31006 0.220486,-0.60634 0.241157,-0.34451 0.689019,-0.58566 0.3514,-0.19293 1.005968,-0.38585 0.310058,-0.0896 0.606337,-0.15848 0.413411,-0.10335 0.599446,-0.11713 0.07579,-0.007 0.172255,-0.007 0.192925,0 0.447862,0.0207 0.502984,0.0413 0.564996,0.0551 0.496094,0.0827 0.923286,0.4203 0.440972,0.34451 0.661458,0.77859 0.234266,0.47543 0.282498,0.9853 0.01378,0.1378 0.01378,0.3514 0,0.31006 -0.02756,0.79237 -0.0069,0.0965 -0.01378,0.2825 0,0.19293 -0.0069,0.2825 -0.02756,0.54432 -0.02756,0.62011 0,0.29628 0.0689,0.59256 0.06201,0.26872 0.151584,0.37896 0.151584,0.17226 0.413412,0.2136 l 0.05512,0 q 0.124024,0 0.434082,-0.0345 l 0.01378,0 q 0.04823,0 0.04823,0.0551 0,0.0689 -0.06201,0.0758 -0.316949,0.0345 -0.413411,0.0345 l -0.02067,0 q -0.220486,-0.0138 -0.392741,-0.11713 -0.254937,-0.15159 -0.3514,-0.57189 -0.0689,-0.2825 -0.07579,-0.50987 l 0,-0.11025 q 0,-0.16536 0.01378,-0.39963 0.01378,-0.18603 0.02756,-0.4892 0.01378,-0.35829 0.02067,-0.48231 0.01378,-0.29628 0.01378,-0.53744 0,-0.37896 -0.03445,-0.60633 -0.08957,-0.53055 -0.365181,-0.95085 -0.289388,-0.44097 -0.764811,-0.70969 -0.234266,-0.13091 -0.475423,-0.19293 -0.130914,-0.0344 -0.558105,-0.062 -0.372071,-0.0345 -0.558106,-0.0345 l -0.05512,0 q -0.248047,0.007 -0.620118,0.0965 -0.757921,0.18604 -1.185112,0.34451 -0.544325,0.19982 -0.854384,0.47543 -0.434082,0.37896 -0.454753,0.7717 l 0,0.0482 q 0,0.41341 0.33073,0.62701 0.241156,0.15847 0.544325,0.15847 0.151584,0 0.316948,-0.0413 0.530545,-0.13091 0.69591,-0.54433 0.06201,-0.15847 0.06201,-0.31694 0,-0.31006 -0.213596,-0.64079 -0.01378,-0.0207 -0.01378,-0.0413 0,-0.0276 0.03445,-0.0413 0.02067,-0.0138 0.04134,-0.0138 0.02756,0 0.04823,0.0276 z m 0.861273,-0.20671 q -0.420301,0.0207 -0.950846,0.33073 -0.01378,0.007 -0.02756,0.007 -0.03445,0 -0.05512,-0.0344 -0.01378,-0.0207 -0.01378,-0.0413 0,-0.0276 0.03445,-0.0413 0.558106,-0.33073 0.992188,-0.3514 l 0.04823,0 q 0.475423,0 0.744141,0.36518 0.220486,0.29628 0.254937,0.77859 0.0069,0.0689 0.0069,0.13091 0,0.19293 -0.03445,0.33073 -0.06201,0.2825 -0.206706,0.41341 -0.124023,0.11025 -0.392741,0.1447 -0.206705,0.0276 -0.468533,0.0965 -0.868164,0.22049 -1.150661,0.3514 -0.792372,0.36518 -0.909506,0.44097 -0.37207,0.23427 -0.654568,0.75103 -0.206705,0.38585 -0.206705,0.79926 0,0.0758 0.0069,0.15848 0.04823,0.49609 0.37207,0.86816 0.172255,0.19293 0.35829,0.2825 0.227376,0.11713 0.516764,0.2136 0.482314,0.15847 0.861274,0.15847 0.124024,0 0.234267,-0.0138 0.282497,-0.0413 0.509874,-0.1378 0.206705,-0.0827 0.454752,-0.27561 0.282498,-0.20671 0.454753,-0.31695 0.268717,-0.15847 0.330729,-0.31006 0.01378,-0.0345 0.04134,-0.0345 0.02067,0 0.04134,0.0138 0.04134,0.0207 0.04134,0.062 0,0.0138 -0.0069,0.0276 -0.07579,0.17226 -0.36518,0.34451 -0.165364,0.10336 -0.489203,0.34451 -0.261828,0.19293 -0.509874,0.28939 -0.261828,0.0965 -0.551216,0.12402 -0.103353,0.0138 -0.206705,0.0138 -0.399631,0 -0.875055,-0.16536 -0.633897,-0.2136 -0.881944,-0.47542 -0.337619,-0.35829 -0.434082,-0.8475 -0.03445,-0.17914 -0.03445,-0.35829 0,-0.30316 0.110243,-0.59255 0.08957,-0.22049 0.234267,-0.42719 0.186035,-0.2825 0.310058,-0.39964 0.241157,-0.22737 0.840603,-0.4892 0.05512,-0.0276 0.248047,-0.11713 0.151584,-0.0689 0.241157,-0.11025 0.248047,-0.0965 0.571886,-0.17914 0.08957,-0.0276 0.289388,-0.0758 0.192925,-0.0482 0.289388,-0.0758 0.08268,-0.0207 0.220486,-0.0413 0.179145,-0.0276 0.220486,-0.0345 0.144694,-0.0276 0.206706,-0.0689 0.07579,-0.0551 0.137804,-0.16536 0.103352,-0.19982 0.103352,-0.47543 -0.0069,-0.50987 -0.186035,-0.80615 -0.234266,-0.37896 -0.668348,-0.37896 l -0.04823,0 z m 1.226454,5.33301 q -0.08268,-0.1447 -0.117133,-0.17915 -0.02067,-0.0207 -0.02067,-0.0413 0,-0.0207 0.02756,-0.0482 0.02067,-0.0276 0.04134,-0.0276 0.02756,0 0.04823,0.0276 0.04823,0.0551 0.124023,0.18604 0.0689,0.13091 0.124024,0.18603 0.151584,0.15848 0.351399,0.25494 0.35829,0.18603 0.875055,0.21359 l 0.144694,0 q 0.413411,0 0.819932,-0.0965 0.310059,-0.0758 0.468533,-0.16536 0.261828,-0.13781 0.378961,-0.1447 0.06201,0 0.06201,0.062 0,0.0689 -0.06201,0.0689 l -0.392741,0.16536 q -0.213596,0.0965 -0.516764,0.15848 -0.372071,0.0827 -0.737251,0.0827 -0.117133,0 -0.227376,-0.007 -0.544325,-0.0413 -0.902615,-0.23427 -0.213596,-0.11713 -0.3514,-0.26872 -0.08957,-0.0896 -0.137804,-0.19292 z m 3.190159,-0.0827 q -0.103353,-0.29628 -0.110243,-0.35829 l 0,-0.0138 q 0,-0.0482 0.06201,-0.0482 0.06201,0 0.0689,0.062 0,0.0138 0.0069,0.0276 0.0069,0.0207 0.01378,0.0345 0.0069,0.0413 0.02756,0.10335 0.05512,0.17226 0.07579,0.23427 0.05512,0.17914 0.05512,0.2756 0,0.0551 -0.02067,0.0827 -0.02067,0.0276 -0.04823,0.0276 -0.02067,0 -0.04134,-0.0207 -0.02756,-0.0276 -0.02756,-0.0482 0,-0.0276 0.02067,-0.0482 -0.0069,0.007 -0.0069,0.0138 l 0,-0.0345 q 0,-0.0276 -0.01378,-0.0758 -0.02067,-0.0758 -0.06201,-0.21359 z m -3.527778,-2.61828 q -0.03445,-0.0276 -0.03445,-0.0551 0,-0.0207 0.01378,-0.0413 0.02067,-0.0344 0.04823,-0.0344 0.01378,0 0.03445,0.0138 0.04134,0.0344 0.04823,0.14469 0.0069,0.0413 0.0069,0.10336 0,0.0551 -0.0069,0.1378 0,0.17226 -0.02067,0.59256 -0.0069,0.15847 -0.0069,0.18603 l -0.04823,0.53744 q -0.04134,0.41341 -0.04823,0.57877 0,0.062 -0.06201,0.062 -0.0689,0 -0.0689,-0.062 0.0069,-0.22048 0.05512,-0.63389 0.04134,-0.4272 0.04823,-0.6339 0.02067,-0.52366 0.02067,-0.565 0.0069,-0.0827 0.0069,-0.14469 0,-0.062 -0.0069,-0.10335 l 0,-0.10336 0.02067,0.0207 z m -0.537435,0.23427 q 0.330729,-0.15158 0.502984,-0.26183 0.02067,-0.0138 0.04134,-0.0138 0.02756,0 0.04134,0.0345 0.01378,0.0207 0.01378,0.0413 0,0.0276 -0.02756,0.0482 -0.158474,0.0965 -0.35829,0.19292 -0.751031,0.35829 -0.937066,0.54433 -0.399631,0.38585 -0.399631,0.81993 l 0,0.0551 q 0.01378,0.26872 0.165365,0.41341 0.158474,0.1447 0.37896,0.18604 0.103353,0.0207 0.206706,0.0207 0.137804,0 0.275607,-0.0413 0.05512,-0.0207 0.482314,-0.22049 0.01378,-0.007 0.02756,-0.007 0.03445,0 0.06201,0.0413 0.01378,0.0207 0.01378,0.0344 0,0.0276 -0.04134,0.0482 -0.599447,0.27561 -0.826823,0.27561 -0.502984,0 -0.744141,-0.33762 -0.144694,-0.19981 -0.144694,-0.44097 0,-0.2136 0.110243,-0.46164 0.199816,-0.44787 0.647678,-0.71658 0.144694,-0.0896 0.509874,-0.25494 z m -2.88699,2.41157 q 0.475423,0.50298 0.599447,0.72347 l 0,0.007 q 0,0.0138 -0.0069,0.0207 l -0.02756,0 q -0.08268,-0.0827 -0.192926,-0.22049 -0.151584,-0.19981 -0.179144,-0.23426 -0.241157,-0.2825 -0.35829,-0.39275 -0.01378,-0.007 -0.06201,-0.0482 -0.04823,-0.0413 -0.08268,-0.0689 -0.08268,-0.0827 -0.08268,-0.13091 l 0,-0.0138 q 0.0069,-0.0138 0.02067,-0.0138 l 0.02756,0 q 0.01378,0.007 0.01378,0.0138 0,0.007 -0.01378,0.0138 0,0.007 0.0069,0.0138 0.02067,0.0207 0.03445,0.0344 0.04823,0.0482 0.08957,0.0827 0.130914,0.12402 0.213596,0.2136 z m 1.212674,0.86816 q 0.01378,0.007 0.01378,0.0207 0,0.0138 -0.01378,0.0276 -0.0069,0.007 -0.02067,0.007 -0.0069,0 -0.02067,-0.007 -0.585667,-0.57877 -0.937066,-1.04731 -0.130914,-0.17914 -0.406522,-0.4892 -0.241156,-0.26872 -0.296278,-0.37207 l 0,-0.0276 0.0069,0 q 0.0069,0 0.01378,0.007 1.660536,1.87413 1.660536,1.88102 z m -1.557183,-2.26687 q 1.295356,1.13688 2.246202,2.21175 0.01378,0.0138 0.01378,0.0276 0,0.007 -0.01378,0.0207 -0.01378,0.0138 -0.02756,0.0138 -0.0069,0 -0.02067,-0.0138 -0.461643,-0.50987 -2.211752,-2.23931 -0.0069,-0.007 -0.0069,-0.0138 0,-0.007 0.0069,-0.007 l 0.0069,-0.007 q 0.0069,0 0.0069,0.007 z m 1.750108,1.15066 q 0.530545,0.62701 0.916395,1.11621 0.01378,0.0138 0.01378,0.0276 0,0.007 -0.01378,0.0207 -0.01378,0.0138 -0.02756,0.0138 -0.0069,0 -0.02067,-0.0138 -1.178222,-1.46072 -1.619195,-1.86724 -0.447862,-0.4203 -0.620117,-0.62701 -0.199815,-0.24115 -0.199815,-0.34451 0,-0.0207 0.0069,-0.0344 0.0069,-0.007 0.01378,-0.007 l 0.0069,0 q 0.01378,0.007 0.01378,0.0138 l 0,0.0207 q 0,0.0689 0.08957,0.18604 0.09646,0.12402 0.261827,0.28939 0.172255,0.18603 0.585667,0.56499 0.220486,0.20671 0.592556,0.64079 z m -0.03445,-0.61323 q 0.751031,0.65457 1.274685,1.54341 0.0069,0.007 0.0069,0.0207 0,0.0138 -0.02067,0.0276 -0.0069,0.007 -0.02067,0.007 -0.01378,0 -0.02756,-0.0207 -0.544325,-0.9164 -1.364258,-1.6192 -1.005968,-0.86816 -1.185113,-1.29535 l -0.0069,0 0,-0.0138 q 0,-0.0138 0.01378,-0.0207 l 0.01378,0 q 0.0069,0 0.01378,0.007 l 0.0069,0 0,0.007 q 0.0069,0.007 0.0069,0.0138 0.03445,0.062 0.08268,0.10335 0.0069,0.007 0.0069,0.0138 -0.0069,0.007 -0.02067,0.007 0.179145,0.30317 1.219564,1.21956 z m 0.999078,0.52366 q 0.399631,0.35829 0.564995,0.68902 l 0,0.0138 q 0,0.0138 -0.0069,0.0207 -0.0069,0.007 -0.02067,0.007 -0.0069,0 -0.01378,-0.007 -0.06201,-0.0689 -0.144694,-0.18604 -0.110243,-0.15158 -0.144694,-0.18603 -0.04823,-0.0551 -0.268717,-0.31695 -0.0069,-0.007 -0.0069,-0.0138 0,-0.0138 0.0069,-0.0207 0.0069,-0.007 0.01378,-0.007 0.01378,0 0.02067,0.007 z m 0.868164,0.37207 q 0.110243,0.11713 0.117133,0.12402 0.0069,0.007 0.0069,0.0138 0,0.007 -0.0069,0.0138 -0.0069,0.007 -0.02067,0.007 l -0.0069,0 q -0.04823,-0.007 -0.234266,-0.2067 -0.186035,-0.20671 -0.186035,-0.22049 l -0.02067,0 q -0.0069,-0.007 -0.0069,-0.0138 l 0,-0.007 q 0.0069,-0.0138 0.02067,-0.0138 0.04134,0 0.165365,0.12402 0.02756,0.0276 0.08268,0.0896 0.05512,0.0551 0.08957,0.0896 z m 0.213596,-0.4203 q 0.04823,0.0551 0.234266,0.2067 0.01378,0.007 0.01378,0.0207 0,0.007 -0.0069,0.0138 -0.0069,0.0138 -0.02756,0.0138 l -0.0069,0 q -0.110243,-0.0276 -0.241156,-0.18603 -0.151584,-0.19293 -0.192926,-0.25494 l 0,-0.007 q 0,-0.0138 0.0069,-0.0207 0.0069,-0.007 0.01378,-0.007 0.0069,0 0.01378,0.007 0.02756,0.0207 0.192926,0.2136 z m -2.067057,-0.9164 q 0.220486,0.17915 0.248046,0.22049 l 0,0.007 q 0,0.007 -0.0069,0.0138 -0.0069,0.007 -0.01378,0.007 l -0.0069,0 q -0.04823,-0.0207 -0.34451,-0.26872 -0.282498,-0.22049 -0.434082,-0.37207 -0.241157,-0.22049 -0.337619,-0.3514 -0.110243,-0.14469 -0.110243,-0.22738 0,-0.0207 0.0069,-0.0344 0.0069,-0.007 0.01378,-0.007 0.01378,0 0.02067,0.007 0.09646,0.27561 0.564995,0.67524 0.144694,0.12403 0.399632,0.33073 z m -0.613227,-1.34359 q 0.05512,0.10336 1.08865,1.18512 0.01378,0.0138 0.01378,0.0207 0,0.0138 -0.0069,0.0207 -0.0069,0.007 -0.02067,0.007 -0.01378,0 -0.02756,-0.007 -0.378961,-0.31695 -0.661459,-0.61323 -0.399631,-0.40652 -0.420301,-0.60634 0,-0.007 0.01378,-0.0138 0.01378,0 0.02067,0.007 z m 0.778591,0.33073 q 0.303169,0.27561 0.385851,0.45476 l 0,0.0138 q 0,0.0138 -0.01378,0.0207 -0.0069,0.007 -0.01378,0.007 -0.0069,0 -0.02067,-0.0138 -0.220486,-0.29628 -0.454752,-0.50299 -0.261827,-0.24115 -0.330729,-0.32384 l -0.0069,0 q -0.02756,-0.0276 -0.04134,-0.0551 -0.0069,-0.007 -0.0069,-0.0138 0,-0.007 0.0069,-0.007 0.01378,-0.007 0.02067,-0.007 0.0069,0 0.0069,0.007 0.07579,0.0689 0.234267,0.20671 0.158474,0.1378 0.234266,0.21359 z m 0.482313,0.0344 q 0.151585,0.17226 0.165365,0.2136 0.0069,0.007 0.0069,0.0138 0,0.0138 -0.01378,0.0207 -0.0069,0.007 -0.01378,0.007 -0.0069,0 -0.02067,-0.0138 l -0.392741,-0.45475 q -0.144694,-0.16537 -0.248047,-0.26872 l -0.124023,-0.1378 -0.0069,0 q -0.0069,0 -0.01378,-0.007 l 0,-0.0138 q 0,-0.007 0.0069,-0.007 0.0069,-0.007 0.02067,-0.007 0.05512,0 0.172255,0.12402 0.04134,0.0482 0.103353,0.11713 l 0.06201,0.0758 q 0.158475,0.17226 0.296278,0.33762 z m 0.282498,-0.36518 q 0.227377,0.22049 0.372071,0.35829 0.0069,0.007 0.0069,0.0207 0,0.007 -0.0069,0.0138 -0.0069,0.0138 -0.02067,0.0138 -0.0069,0 -0.01378,-0.007 -0.310059,-0.21359 -0.737251,-0.72347 -0.0069,-0.0138 -0.0069,-0.0207 0,-0.007 0.0069,-0.0138 0.0069,-0.007 0.01378,-0.007 0.0069,0 0.01378,0.007 0.0689,0.0689 0.37207,0.35829 z m 0.323839,-0.13091 q 0.310059,0.2825 0.310059,0.28939 0.0069,0 0.0069,0.007 0,0.007 -0.0069,0.0138 -0.0069,0.0138 -0.01378,0.0138 -0.0069,0 -0.01378,-0.007 -0.130914,-0.0827 -0.3514,-0.30317 -0.206705,-0.20671 -0.268717,-0.3514 -0.0069,-0.007 -0.0069,-0.0138 0,-0.007 0.01378,-0.0138 0.0069,-0.007 0.01378,-0.007 0.0069,0 0.01378,0.0138 0.09646,0.16536 0.303168,0.35829 z m 0.461643,-0.14469 q 0.172255,0.1378 0.220486,0.2067 l 0,0.007 q 0,0.0138 -0.0069,0.0207 -0.0069,0.007 -0.01378,0.007 -0.0069,0 -0.01378,-0.007 -0.07579,-0.0482 -0.454752,-0.37207 -0.08268,-0.062 -0.151585,-0.17225 l 0,-0.007 q 0,-0.0138 0.0069,-0.0207 l 0.0069,-0.007 q 0.0069,0 0.01378,0.007 0.02756,0.0207 0.08268,0.0827 0.04823,0.0551 0.08268,0.0758 0.0069,0 0.227376,0.17915 z m 0.930176,2.67339 q 0.04823,0.0482 0.74414,0.85438 0.01378,0.007 0.01378,0.0207 0,0.0138 -0.01378,0.0276 -0.0069,0.007 -0.02067,0.007 -0.0069,0 -0.02067,-0.007 -0.72347,-0.84061 -0.785482,-0.89573 -0.544325,-0.50298 -0.613226,-0.66146 -0.0069,-0.007 -0.0069,-0.0138 0,-0.0138 0.01378,-0.0207 l 0.01378,0 q 0.0069,0 0.01378,0.007 0.04134,0.0758 0.661459,0.68213 z m 0.496094,-0.14469 q 0.682128,0.60633 0.957736,1.02663 0.0069,0.007 0.0069,0.0138 0,0.0138 -0.01378,0.0207 -0.01378,0.007 -0.02067,0.007 -0.01378,0 -0.02756,-0.0138 -0.392741,-0.51677 -0.985298,-1.04042 -0.847493,-0.75792 -1.019748,-0.96463 l 0,-0.0207 q 0.0069,-0.007 0.01378,-0.007 0.0069,0 0.01378,0.007 0.248047,0.22738 1.07487,0.97152 z m 0.654568,0.22048 q 0.454752,0.48232 0.72347,0.81304 0.0069,0.0138 0.0069,0.0207 0,0.0138 -0.01378,0.0276 -0.0069,0.007 -0.02067,0.007 -0.0069,0 -0.02067,-0.007 -0.434082,-0.52366 -1.378038,-1.51585 -0.248047,-0.25493 -0.682129,-0.61322 -0.04823,-0.0413 -0.199815,-0.18604 -0.124024,-0.11024 -0.124024,-0.13091 0,0.007 -0.01378,0.0138 -0.01378,0 -0.01378,-0.007 -0.0069,-0.0138 -0.0069,-0.0207 0,-0.0138 0.01378,-0.0207 l 0.0069,0 q 0.05512,0 0.158474,0.0965 0.02756,0.0276 0.07579,0.0827 0.04823,0.0482 0.06201,0.062 0.06201,0.0482 0.323839,0.26872 0.199816,0.16537 0.316949,0.2825 0.02067,0.0207 0.785482,0.82682 z m -0.275608,-0.9095 q 1.129991,1.07487 1.467611,1.46072 0.01378,0.007 0.01378,0.0207 0,0.0138 -0.01378,0.0276 -0.0069,0.007 -0.02067,0.007 -0.0069,0 -0.02067,-0.007 -1.040418,-1.0542 -1.46761,-1.46072 -0.999078,-0.95085 -1.474501,-1.46761 -0.0069,-0.007 -0.0069,-0.0138 0,-0.007 0.0069,-0.0138 0.0069,-0.007 0.01378,-0.007 0.0069,0 0.01378,0.007 0.475423,0.4892 1.488281,1.44694 z m 1.626085,1.12999 q 0.144694,0.15158 0.248047,0.24115 0.01378,0.007 0.01378,0.0207 0,0.007 -0.01378,0.0207 -0.01378,0.0138 -0.02756,0.0138 -0.0069,0 -0.02067,-0.007 -0.186036,-0.15848 -0.606337,-0.64079 -0.0069,-0.007 -0.0069,-0.0138 0,-0.0138 0.0069,-0.0207 0.0069,-0.007 0.01378,-0.007 0.01378,0 0.02067,0.007 l 0.06201,0.062 q -0.01378,-0.007 0.103353,0.0482 0.0069,0.007 0.0069,0.0207 -0.0069,0.007 -0.02067,0.007 -0.0069,-0.007 -0.02067,-0.007 0.03445,0.0276 0.241157,0.25494 z m 0.385851,-0.0896 q 0,0.0138 -0.0069,0.0207 -0.0069,0.007 -0.01378,0.007 -0.0069,0 -0.01378,-0.007 -0.07579,-0.0551 -0.289388,-0.33762 -0.0069,-0.007 -0.0069,-0.0138 0,-0.0138 0.01378,-0.0207 0.0069,-0.007 0.01378,-0.007 0.01378,0 0.02067,0.0138 0.0069,0.007 0.144694,0.17225 0.130914,0.16537 0.137804,0.16537 l 0,0.007 z m -1.846571,-1.46072 q 0.413411,0.36518 0.606336,0.627 0.0069,0.007 0.0069,0.0138 0,0.0138 -0.01378,0.0207 -0.01378,0.007 -0.02067,0.007 -0.01378,0 -0.02067,-0.007 -0.206706,-0.26182 -0.647678,-0.64767 -0.248047,-0.22738 -0.620117,-0.61323 -0.172255,-0.19293 -0.627007,-0.59945 -0.420302,-0.37207 -0.627008,-0.60633 l 0,-0.007 q 0,-0.0138 0.0069,-0.0207 l 0.0069,-0.007 q 0.0069,0 0.01378,0.007 0.165365,0.16537 0.661458,0.60634 0.420302,0.37207 0.647678,0.62701 0.151584,0.17225 0.627008,0.59945 z m -0.165365,-0.565 q 0.427192,0.50987 0.73036,0.77859 0.01378,0.0138 0.01378,0.0207 0,0.0138 -0.0069,0.0207 -0.01378,0.0138 -0.02756,0.0138 -0.01378,0 -0.02067,-0.007 -0.254937,-0.21359 -0.689019,-0.73036 -0.427192,-0.50987 -0.689019,-0.72347 -0.482313,-0.40652 -0.585666,-0.50298 -0.261828,-0.24805 -0.261828,-0.34451 l 0,-0.007 q 0,-0.0138 0.01378,-0.0138 l 0.0069,0 q 0.0069,0 0.01378,0.007 0.02756,0.11713 0.372071,0.41341 0.09646,0.0758 0.282498,0.22738 0.192925,0.15847 0.282497,0.23426 0.165365,0.1447 0.564996,0.61323 z m -0.37207,-0.88883 q 0.38585,0.37207 1.143771,1.20578 0.0069,0.0138 0.0069,0.0207 0,0.0207 -0.01378,0.0345 -0.0069,0.007 -0.02067,0.007 -0.0069,0 -0.02067,-0.007 -1.033529,-1.10932 -1.178223,-1.25401 -0.950846,-0.86817 -1.074869,-1.04731 -0.0069,-0.007 -0.0069,-0.0138 0,-0.007 0.0069,-0.007 l 0.0069,0 q 0.0069,0 0.01378,0.007 0.186035,0.24804 0.544325,0.55121 0.530545,0.44097 0.592557,0.50299 z m 1.09554,0.52365 q 0.117133,0.0207 0.179145,0.0965 0.0069,0.007 0.0069,0.0138 0,0.007 -0.0069,0.0138 -0.0069,0.0138 -0.01378,0.0138 l -0.0069,0 -0.124023,-0.0758 -0.02067,-0.007 0,0.007 q 0,0.0207 -0.02067,0.0276 l -0.0069,0 q -0.02067,0 -0.02756,-0.0207 -0.103353,-0.26183 -0.420302,-0.54432 -0.07579,-0.062 -0.268717,-0.22738 -0.172255,-0.1378 -0.261827,-0.22049 -1.033529,-0.98529 -1.267796,-1.26779 -0.0069,-0.007 -0.0069,-0.0138 0,-0.007 0.0069,-0.0138 0.01378,-0.0138 0.02067,-0.0138 0.0069,0 0.01378,0.0138 0.261828,0.29628 0.689019,0.68902 0.08268,0.0689 0.323839,0.30317 0.199816,0.19292 0.323839,0.30316 0.592557,0.51677 0.558106,0.48232 0.261827,0.25493 0.330729,0.44097 z m -0.813042,-1.59852 q 0.261827,0.33072 0.38585,0.45475 -0.0069,0 0.33762,0.28939 0.206705,0.17225 0.261827,0.34451 0.0069,0.007 0.0069,0.0138 0,0.0138 -0.02067,0.0207 -0.01378,0.007 -0.02067,0.007 -0.01378,0 -0.02067,-0.0138 -0.08957,-0.17915 -0.330729,-0.38585 -0.303168,-0.26183 -0.37207,-0.34451 -0.627008,-0.75792 -0.744141,-0.86817 l -1.564073,-1.42627 q -0.0069,0 -0.0069,-0.007 -0.0069,0 -0.0069,-0.0138 l -0.05512,-0.0758 0,-0.0138 q 0.0069,-0.0138 0.02067,-0.0138 l 0.01378,0 q 0.01378,0.007 0.02067,0.0207 l 0.0069,0.0207 q 0.36518,0.4203 0.799262,0.78548 0.785482,0.64768 0.895725,0.75103 0.158474,0.15159 0.392741,0.45476 z m -0.310059,-0.83372 q 0.902615,0.87506 1.226454,1.38493 0.0069,0.007 0.0069,0.0207 0,0.0138 -0.02067,0.0207 -0.01378,0.007 -0.02067,0.007 -0.01378,0 -0.02067,-0.0138 -0.544325,-0.7717 -1.295355,-1.44694 -0.110244,-0.10335 -0.316949,-0.26872 -0.241157,-0.19292 -0.323839,-0.26182 -0.372071,-0.31695 -0.544325,-0.60634 l 0,-0.007 q 0,-0.0138 0.0069,-0.0207 l 0.0069,0 q 0.0069,0 0.01378,0.007 0.206706,0.26872 0.613227,0.61323 0.564996,0.46853 0.668349,0.57188 z m 0.310059,-0.14469 q 0.771701,0.81304 0.854383,0.87505 0.01378,0.0138 0.01378,0.0276 0,0.007 -0.0069,0.0138 -0.01378,0.0207 -0.02756,0.0207 -0.0069,0 -0.01378,-0.007 -0.03445,-0.0276 -0.868164,-0.88883 -0.248047,-0.25494 -1.08176,-0.97152 -0.0069,-0.007 -0.0069,-0.0138 0,-0.007 0.0069,-0.0138 0.0069,-0.007 0.01378,-0.007 0.0069,0 0.01378,0.007 0.854384,0.69591 1.102431,0.95774 z m 0.144694,-0.2825 q 0.447862,0.37207 0.592556,0.57189 l 0,0.0138 q 0,0.0138 -0.0069,0.0207 -0.0069,0.007 -0.02067,0.007 -0.0069,0 -0.01378,-0.007 -0.413412,-0.41341 -0.592557,-0.55811 -0.585666,-0.4892 -0.620117,-0.51676 l 0,-0.0276 q 0.0069,-0.0138 0.01378,-0.0138 0.0069,0 0.01378,0.007 0.296278,0.22048 0.633898,0.50298 z m -2.446018,-0.24805 q 0.05512,0.062 0.08268,0.0965 0.0069,0.007 0.0069,0.0138 0,0.007 -0.0069,0.0207 -0.0069,0.0138 -0.02067,0.0138 -0.0069,0 -0.01378,-0.007 -0.06201,-0.0413 -0.179145,-0.18604 -0.02756,-0.0344 -0.172255,-0.2067 -0.0069,-0.0138 -0.0069,-0.0207 0,-0.007 0.0069,-0.0138 0.0069,-0.0138 0.01378,-0.0138 0.01378,0 0.02067,0.0138 0.04823,0.0413 0.179145,0.19292 0.02756,0.0344 0.08957,0.0965 z m -0.303169,0.2136 q 0,0.0138 -0.0069,0.0207 l -0.02067,0 q -0.103353,-0.0482 -0.234267,-0.20671 -0.09646,-0.11024 -0.144694,-0.22737 l 0,-0.007 q 0,-0.007 0.01378,-0.0138 l 0.0069,0 q 0.0069,0 0.01378,0.007 0.06201,0.13091 0.179145,0.24115 0.186035,0.17915 0.192925,0.17915 l 0,0.007 z m -0.475423,0.007 q 0.110243,0.0965 0.124024,0.13091 l 0,0.007 q 0,0.007 -0.0069,0.0138 -0.0069,0.007 -0.01378,0.007 l -0.0069,0 q -0.02067,-0.0138 -0.137804,-0.11713 -0.08268,-0.0758 -0.172255,-0.15847 -0.117133,-0.0965 -0.158474,-0.13781 -0.08268,-0.0758 -0.08957,-0.0758 -0.01378,-0.007 -0.01378,-0.0207 l 0,-0.007 q 0.0069,-0.0138 0.02067,-0.0138 l 0.0069,0 q 0.04134,0.0138 0.254937,0.19981 0.103353,0.0827 0.192925,0.17226 z m -0.399631,0.17225 q 0.151584,0.13092 0.34451,0.2825 0.0069,0.007 0.0069,0.0138 0,0.007 -0.0069,0.0138 -0.0069,0.007 -0.01378,0.007 l -0.01378,0 q -0.144694,-0.062 -0.475423,-0.38585 -0.186035,-0.17914 -0.186035,-0.23426 0,-0.0207 0.02067,-0.0276 0.01378,0 0.02067,0.0138 0,0.007 -0.0069,0.0138 l 0,0.007 q 0,0.0276 0.310058,0.29627 z m 0.03445,0.46165 q 0.440972,0.35829 0.516764,0.50987 l 0,0.007 q 0,0.0207 -0.01378,0.0344 -0.0069,0.007 -0.02067,0.007 -0.01378,0 -0.02067,-0.0207 -0.04823,-0.0896 -0.537435,-0.52365 -0.36518,-0.32384 -0.661458,-0.6339 -0.01378,-0.007 -0.01378,-0.0138 0,-0.007 0.0069,-0.0138 0.0069,-0.007 0.02067,-0.007 l 0.01378,0 q 0.01378,0.007 0.04823,0.0207 0.03445,0.0138 0.04823,0.0207 0.0069,0.007 0.0069,0.0138 l 0,0.007 q 0,0.007 -0.01378,0.007 -0.02067,-0.007 -0.01378,-0.007 0.08957,0.0827 0.316948,0.30317 0.192926,0.19292 0.316949,0.28939 z m -0.37896,0.30317 q 0.578776,0.60633 0.647678,0.71658 0.0069,0.007 0.0069,0.0138 0,0.0138 -0.02067,0.0207 -0.0069,0.007 -0.01378,0.007 -0.01378,0 -0.02067,-0.0138 -0.04823,-0.0689 -0.764811,-0.82683 -0.289388,-0.30317 -0.385851,-0.42719 -0.08957,-0.11713 -0.08957,-0.17225 l 0,-0.0138 q 0.0069,-0.0138 0.02067,-0.0138 0.01378,0 0.01378,0.0138 0,0.0413 0.192925,0.26182 0.137804,0.15159 0.413412,0.43409 z m -0.0069,0.54432 q 0.213596,0.2136 0.227377,0.24116 l 0,0.0138 q 0,0.007 -0.0069,0.0138 -0.0069,0.007 -0.01378,0.007 l -0.0069,0 q -0.04134,-0.0207 -0.275608,-0.26183 -0.206705,-0.2067 -0.344509,-0.36518 -0.399631,-0.45475 -0.461643,-0.65457 0,-0.0138 0.01378,-0.0207 0.01378,0 0.02067,0.007 0.310059,0.45476 0.530545,0.69591 0.137804,0.1447 0.316948,0.32384 z m -0.930175,-0.43408 q 0.01378,0.0207 0.268717,0.33762 0.35829,0.45475 0.385851,0.52365 l 0,0.007 q 0,0.007 -0.01378,0.0138 -0.0069,0.007 -0.01378,0.007 -0.0069,0 -0.01378,-0.007 -0.02067,-0.0276 -0.516765,-0.66146 -0.0069,-0.007 -0.0689,-0.0827 -0.06201,-0.0689 -0.103352,-0.12402 -0.103353,-0.1378 -0.103353,-0.19293 0,-0.0138 0.0069,-0.0207 l 0.0069,-0.007 q 0.0069,0 0.01378,0.007 0.0069,0.007 0.0069,0.0207 0.0069,0 0.144694,0.17915 z"
         style="font-style:normal;font-variant:normal;font-weight:normal;font-stretch:normal;font-size:14.11111069px;font-family:Archistico;-inkscape-font-specification:Archistico;fill:#cccccc"
         id="path3438" />
    </g>
  </g>
</svg>
