<?xml version="1.0" encoding="UTF-8" standalone="no"?>
<!-- Created with Inkscape (http://www.inkscape.org/) -->

<svg
   xmlns:dc="http://purl.org/dc/elements/1.1/"
   xmlns:cc="http://creativecommons.org/ns#"
   xmlns:rdf="http://www.w3.org/1999/02/22-rdf-syntax-ns#"
   xmlns:svg="http://www.w3.org/2000/svg"
   xmlns="http://www.w3.org/2000/svg"
   xmlns:sodipodi="http://sodipodi.sourceforge.net/DTD/sodipodi-0.dtd"
   xmlns:inkscape="http://www.inkscape.org/namespaces/inkscape"
   width="31.797722mm"
   height="100.54166mm"
   viewBox="0 0 31.797722 100.54167"
   version="1.1"
   id="svg4541"
   sodipodi:docname="MultiModeFilter.svg"
   inkscape:version="0.91 r13725">
  <defs
     id="defs4535" />
  <sodipodi:namedview
     id="base"
     pagecolor="#ffffff"
     bordercolor="#666666"
     borderopacity="1.0"
     inkscape:pageopacity="0.0"
     inkscape:pageshadow="2"
     inkscape:zoom="5.1811627"
     inkscape:cx="69.182075"
     inkscape:cy="188.48675"
     inkscape:document-units="mm"
     inkscape:current-layer="layer1"
     showgrid="false"
     fit-margin-top="0"
     fit-margin-left="0"
     fit-margin-right="0"
     fit-margin-bottom="0"
     inkscape:window-width="1920"
     inkscape:window-height="996"
     inkscape:window-x="71"
     inkscape:window-y="0"
     inkscape:window-maximized="0" />
  <metadata
     id="metadata4538">
    <rdf:RDF>
      <cc:Work
         rdf:about="">
        <dc:format>image/svg+xml</dc:format>
        <dc:type
           rdf:resource="http://purl.org/dc/dcmitype/StillImage" />
        <dc:title />
      </cc:Work>
    </rdf:RDF>
  </metadata>
  <g
     inkscape:groupmode="layer"
     id="layer11"
     inkscape:label="SFONDO"
     style="display:inline">
    <rect
       style="fill:#ececec"
       id="rect7273"
       width="217.63713"
       height="398.75797"
       x="-1119.874"
       y="-25.85247" />
    <rect
       style="fill:#e6e6e6;fill-opacity:1"
       id="rect7279"
       width="72.615471"
       height="116.51748"
       x="-2.8222249"
       y="-3.2758048" />
  </g>
  <g
     inkscape:label="Layer 1"
     inkscape:groupmode="layer"
     id="layer1"
     transform="translate(-49.620829,-52.061968)"
     style="display:inline">
    <g
       transform="matrix(0.27602379,0,0,0.27602379,354.09618,57.736346)"
       id="g13122"
       style="display:inline;stroke-width:0.9585526">
      <g
         transform="translate(-167.07644,-20.557569)"
         id="g13178"
         style="stroke-width:0.91882312">
        <path
           style="fill:#212121;fill-opacity:1;fill-rule:nonzero;stroke:none;stroke-width:0.91882312"
           d="m -828.96098,297.40625 c 0,-1.55859 -1.27735,-2.83203 -2.83594,-2.83203 l -21.77344,0 c -1.55859,0 -2.83593,1.27344 -2.83593,2.83203 l 0,33.08984 c 0,1.5586 1.27734,2.83594 2.83593,2.83594 l 21.77344,0 c 1.55859,0 2.83594,-1.27734 2.83594,-2.83594 z m 0,0"
           id="path25247"
           inkscape:connector-curvature="0" />
        <path
           inkscape:connector-curvature="0"
           id="path11938"
           d="m -849.13823,302.85642 c 0,0.28125 0.21875,0.5 0.5,0.5 0.28125,0 0.5,-0.21875 0.5,-0.5 l 0,-1.35937 1.84375,0 0,1.35937 c 0,0.28125 0.21875,0.5 0.5,0.5 0.28125,0 0.5,-0.21875 0.5,-0.5 l 0,-3.625 c 0,-0.28125 -0.21875,-0.5 -0.5,-0.5 -0.28125,0 -0.5,0.21875 -0.5,0.5 l 0,1.34375 -1.84375,0 0,-1.34375 c 0,-0.28125 -0.21875,-0.5 -0.5,-0.5 -0.28125,0 -0.5,0.21875 -0.5,0.5 z m 0,0"
           style="fill:#e6e6e6;fill-opacity:1;stroke:none;stroke-width:0.91882312" />
        <path
           inkscape:connector-curvature="0"
           id="path11934"
           d="m -843.94993,302.85642 c 0,0.28125 0.21875,0.5 0.5,0.5 0.28125,0 0.5,-0.21875 0.5,-0.5 l 0,-0.89062 0.76562,0 c 1.01563,0 1.82813,-0.54688 1.82813,-1.60938 l 0,-0.0156 c 0,-0.92188 -0.65625,-1.5625 -1.73438,-1.5625 l -1.35937,0 c -0.28125,0 -0.5,0.21875 -0.5,0.5 z m 1,-1.78125 0,-1.39062 0.78125,0 c 0.5,0 0.8125,0.23437 0.8125,0.6875 l 0,0.0156 c 0,0.39063 -0.29688,0.6875 -0.79688,0.6875 z m 0,0"
           style="fill:#e6e6e6;fill-opacity:1;stroke:none;stroke-width:0.91882312" />
        <path
           inkscape:connector-curvature="0"
           id="path11930"
           d="m -839.39991,302.72422 c 0,0.28125 0.21875,0.5 0.5,0.5 0.28125,0 0.5,-0.21875 0.5,-0.5 l 0,-1.29687 1.75,0 c 0.26562,0 0.45312,-0.20313 0.45312,-0.45313 0,-0.25 -0.1875,-0.45312 -0.45312,-0.45312 l -1.75,0 0,-0.96875 2.04687,0 c 0.25,0 0.45313,-0.20313 0.45313,-0.45313 0,-0.25 -0.20313,-0.45312 -0.45313,-0.45312 l -2.54687,0 c -0.28125,0 -0.5,0.21875 -0.5,0.5 z m 0,0"
           style="fill:#e6e6e6;fill-opacity:1;stroke:none;stroke-width:0.91882312" />
        <path
           style="fill:#212121;fill-opacity:1;fill-rule:nonzero;stroke:none;stroke-width:0.91882312"
           d="m -864.67583,297.40625 c 0,-1.55859 -1.27734,-2.83203 -2.83593,-2.83203 l -21.77735,0 c -1.55859,0 -2.83203,1.27344 -2.83203,2.83203 l 0,33.08984 c 0,1.5586 1.27344,2.83594 2.83203,2.83594 l 21.77735,0 c 1.55859,0 2.83593,-1.27734 2.83593,-2.83594 z m 0,0"
           id="path25259"
           inkscape:connector-curvature="0" />
        <path
           inkscape:connector-curvature="0"
           id="path11926"
           d="m -884.35011,302.82517 c 0,0.28125 0.21875,0.5 0.5,0.5 l 2.35937,0 c 0.25,0 0.45313,-0.20312 0.45313,-0.45312 0,-0.25 -0.20313,-0.45313 -0.45313,-0.45313 l -1.85937,0 0,-3.1875 c 0,-0.28125 -0.21875,-0.5 -0.5,-0.5 -0.28125,0 -0.5,0.21875 -0.5,0.5 z m 0,0"
           style="fill:#e6e6e6;fill-opacity:1;stroke:none;stroke-width:0.91882312" />
        <path
           inkscape:connector-curvature="0"
           id="path11922"
           d="m -880.17063,302.85642 c 0,0.28125 0.21875,0.5 0.5,0.5 0.28125,0 0.5,-0.21875 0.5,-0.5 l 0,-0.89062 0.76562,0 c 1.01563,0 1.82813,-0.54688 1.82813,-1.60938 l 0,-0.0156 c 0,-0.92188 -0.65625,-1.5625 -1.73438,-1.5625 l -1.35937,0 c -0.28125,0 -0.5,0.21875 -0.5,0.5 z m 1,-1.78125 0,-1.39062 0.78125,0 c 0.5,0 0.8125,0.23437 0.8125,0.6875 l 0,0.0156 c 0,0.39063 -0.29688,0.6875 -0.79688,0.6875 z m 0,0"
           style="fill:#e6e6e6;fill-opacity:1;stroke:none;stroke-width:0.91882312" />
        <path
           inkscape:connector-curvature="0"
           id="path11918"
           d="m -875.61866,302.85642 c 0,0.28125 0.21875,0.5 0.5,0.5 0.28125,0 0.5,-0.21875 0.5,-0.5 l 0,-1.29687 1.75,0 c 0.26562,0 0.45312,-0.20313 0.45312,-0.45313 0,-0.25 -0.1875,-0.45312 -0.45312,-0.45312 l -1.75,0 0,-0.96875 2.04687,0 c 0.25,0 0.45313,-0.20313 0.45313,-0.45313 0,-0.25 -0.20313,-0.45312 -0.45313,-0.45312 l -2.54687,0 c -0.28125,0 -0.5,0.21875 -0.5,0.5 z m 0,0"
           style="fill:#e6e6e6;fill-opacity:1;stroke:none;stroke-width:0.91882312" />
        <path
           inkscape:connector-curvature="0"
           id="path11914"
           d="m -923.18889,259.00628 c 0,0.21875 0.1875,0.39063 0.40625,0.39063 0.21875,0 0.40625,-0.17188 0.40625,-0.39063 l 0,-1.5 1.95313,0 c 0.20312,0 0.375,-0.15625 0.375,-0.35937 0,-0.20313 -0.17188,-0.35938 -0.375,-0.35938 l -1.95313,0 0,-1.25 2.25,0 c 0.20313,0 0.35938,-0.15625 0.35938,-0.35937 0,-0.20313 -0.15625,-0.35938 -0.35938,-0.35938 l -2.65625,0 c -0.21875,0 -0.40625,0.17188 -0.40625,0.40625 z m 0,0"
           style="fill:#000000;fill-opacity:1;stroke:none;stroke-width:0.91882312" />
        <path
           inkscape:connector-curvature="0"
           id="path11910"
           d="m -918.78642,259.00628 c 0,0.21875 0.1875,0.39063 0.40625,0.39063 0.21875,0 0.40625,-0.17188 0.40625,-0.39063 l 0,-1.23437 1,0 1.10937,1.42187 c 0.0937,0.125 0.20313,0.20313 0.39063,0.20313 0.1875,0 0.375,-0.14063 0.375,-0.375 0,-0.125 -0.0469,-0.20313 -0.125,-0.29688 l -0.875,-1.09375 c 0.60937,-0.20312 1.03125,-0.64062 1.03125,-1.35937 l 0,-0.0156 c 0,-0.40625 -0.125,-0.73437 -0.375,-0.98437 -0.28125,-0.28125 -0.73438,-0.45313 -1.3125,-0.45313 l -1.625,0 c -0.21875,0 -0.40625,0.17188 -0.40625,0.40625 z m 0.8125,-1.9375 0,-1.53125 1.15625,0 c 0.59375,0 0.9375,0.26563 0.9375,0.76563 0,0.46875 -0.35938,0.76562 -0.9375,0.76562 z m 0,0"
           style="fill:#000000;fill-opacity:1;stroke:none;stroke-width:0.91882312" />
        <path
           inkscape:connector-curvature="0"
           id="path11906"
           d="m -913.45188,259.36566 2.6875,0 c 0.1875,0 0.35937,-0.15625 0.35937,-0.35938 0,-0.1875 -0.17187,-0.35937 -0.35937,-0.35937 l -2.28125,0 0,-1.21875 1.95312,0 c 0.1875,0 0.35938,-0.15625 0.35938,-0.34375 0,-0.20313 -0.17188,-0.375 -0.35938,-0.375 l -1.95312,0 0,-1.17188 2.25,0 c 0.1875,0 0.34375,-0.15625 0.34375,-0.35937 0,-0.20313 -0.15625,-0.35938 -0.34375,-0.35938 l -2.65625,0 c -0.21875,0 -0.40625,0.17188 -0.40625,0.40625 l 0,3.73438 c 0,0.23437 0.1875,0.40625 0.40625,0.40625 z m 0,0"
           style="fill:#000000;fill-opacity:1;stroke:none;stroke-width:0.91882312" />
        <path
           inkscape:connector-curvature="0"
           id="path11902"
           d="m -907.24675,259.44378 c 0.53125,0 1,-0.15625 1.39062,-0.42187 l 0.32813,0.28125 c 0.0625,0.0781 0.15625,0.125 0.28125,0.125 0.20312,0 0.375,-0.17188 0.375,-0.39063 0,-0.14062 -0.0625,-0.23437 -0.15625,-0.3125 l -0.28125,-0.23437 c 0.28125,-0.40625 0.45312,-0.89063 0.45312,-1.40625 0,-1.28125 -0.96875,-2.34375 -2.375,-2.34375 -1.39062,0 -2.375,1.0625 -2.375,2.34375 l 0,0.0156 c 0,1.28125 0.96875,2.34375 2.35938,2.34375 z m 0.23437,-1.4375 0.57813,0.48438 c -0.23438,0.14062 -0.5,0.21875 -0.79688,0.21875 -0.90625,0 -1.54687,-0.73438 -1.54687,-1.625 0,-0.89063 0.64062,-1.60938 1.53125,-1.60938 0.90625,0 1.54687,0.73438 1.54687,1.60938 l 0,0.0156 c 0,0.32813 -0.0781,0.625 -0.21875,0.875 l -0.57812,-0.54687 c -0.0937,-0.0781 -0.17188,-0.10938 -0.28125,-0.10938 -0.20313,0 -0.375,0.17188 -0.375,0.39063 0,0.125 0.0625,0.21875 0.14062,0.29687 z m 0,0"
           style="fill:#000000;fill-opacity:1;stroke:none;stroke-width:0.91882312" />
        <path
           inkscape:connector-curvature="0"
           id="path11898"
           d="m -852.91088,258.95941 c 0,0.23437 0.1875,0.40625 0.40625,0.40625 l 1.29688,0 c 1.4375,0 2.42187,-1 2.42187,-2.28125 0,-1.28125 -0.98437,-2.26563 -2.42187,-2.26563 l -1.29688,0 c -0.21875,0 -0.40625,0.17188 -0.40625,0.40625 z m 0.8125,-0.32813 0,-3.09375 0.89063,0 c 0.95312,0 1.57812,0.65625 1.57812,1.54688 l 0,0.0156 c 0,0.89063 -0.625,1.53125 -1.57812,1.53125 z m 0,0"
           style="fill:#000000;fill-opacity:1;stroke:none;stroke-width:0.91882312" />
        <path
           inkscape:connector-curvature="0"
           id="path11894"
           d="m -847.63676,259.00628 c 0,0.21875 0.1875,0.39063 0.40625,0.39063 0.21875,0 0.40625,-0.17188 0.40625,-0.39063 l 0,-1.23437 1,0 1.10937,1.42187 c 0.0937,0.125 0.20313,0.20313 0.39063,0.20313 0.1875,0 0.375,-0.14063 0.375,-0.375 0,-0.125 -0.0469,-0.20313 -0.125,-0.29688 l -0.875,-1.09375 c 0.60937,-0.20312 1.03125,-0.64062 1.03125,-1.35937 l 0,-0.0156 c 0,-0.40625 -0.125,-0.73437 -0.375,-0.98437 -0.28125,-0.28125 -0.73438,-0.45313 -1.3125,-0.45313 l -1.625,0 c -0.21875,0 -0.40625,0.17188 -0.40625,0.40625 z m 0.8125,-1.9375 0,-1.53125 1.15625,0 c 0.59375,0 0.9375,0.26563 0.9375,0.76563 0,0.46875 -0.35938,0.76562 -0.9375,0.76562 z m 0,0"
           style="fill:#000000;fill-opacity:1;stroke:none;stroke-width:0.91882312" />
        <path
           inkscape:connector-curvature="0"
           id="path11890"
           d="m -842.68239,259.00628 c 0,0.21875 0.1875,0.39063 0.40625,0.39063 0.21875,0 0.40625,-0.17188 0.40625,-0.39063 l 0,-3.82812 c 0,-0.21875 -0.1875,-0.39063 -0.40625,-0.39063 -0.21875,0 -0.40625,0.17188 -0.40625,0.39063 z m 0,0"
           style="fill:#000000;fill-opacity:1;stroke:none;stroke-width:0.91882312" />
        <path
           inkscape:connector-curvature="0"
           id="path11886"
           d="m -838.78353,259.42816 0.0469,0 c 0.21875,0 0.375,-0.125 0.45312,-0.32813 l 1.60938,-3.76562 c 0.0156,-0.0469 0.0312,-0.10938 0.0312,-0.17188 0,-0.20312 -0.17188,-0.375 -0.39063,-0.375 -0.1875,0 -0.32812,0.125 -0.39062,0.25 l -1.32813,3.3125 -1.3125,-3.28125 c -0.0625,-0.17187 -0.20312,-0.28125 -0.40625,-0.28125 -0.23437,0 -0.40625,0.17188 -0.40625,0.39063 0,0.0625 0.0156,0.125 0.0469,0.1875 l 1.59375,3.73437 c 0.0781,0.20313 0.23437,0.32813 0.45312,0.32813 z m 0,0"
           style="fill:#000000;fill-opacity:1;stroke:none;stroke-width:0.91882312" />
        <path
           inkscape:connector-curvature="0"
           id="path11882"
           d="m -835.25557,259.36566 2.6875,0 c 0.1875,0 0.35938,-0.15625 0.35938,-0.35938 0,-0.1875 -0.17188,-0.35937 -0.35938,-0.35937 l -2.28125,0 0,-1.21875 1.95313,0 c 0.1875,0 0.35937,-0.15625 0.35937,-0.34375 0,-0.20313 -0.17187,-0.375 -0.35937,-0.375 l -1.95313,0 0,-1.17188 2.25,0 c 0.1875,0 0.34375,-0.15625 0.34375,-0.35937 0,-0.20313 -0.15625,-0.35938 -0.34375,-0.35938 l -2.65625,0 c -0.21875,0 -0.40625,0.17188 -0.40625,0.40625 l 0,3.73438 c 0,0.23437 0.1875,0.40625 0.40625,0.40625 z m 0,0"
           style="fill:#000000;fill-opacity:1;stroke:none;stroke-width:0.91882312" />
        <path
           inkscape:connector-curvature="0"
           id="path11878"
           d="m -884.64387,259.00628 c 0,0.21875 0.1875,0.39063 0.40625,0.39063 0.21875,0 0.40625,-0.17188 0.40625,-0.39063 l 0,-1.23437 1,0 1.10937,1.42187 c 0.0937,0.125 0.20313,0.20313 0.39063,0.20313 0.1875,0 0.375,-0.14063 0.375,-0.375 0,-0.125 -0.0469,-0.20313 -0.125,-0.29688 l -0.875,-1.09375 c 0.60937,-0.20312 1.03125,-0.64062 1.03125,-1.35937 l 0,-0.0156 c 0,-0.40625 -0.125,-0.73437 -0.375,-0.98437 -0.28125,-0.28125 -0.73438,-0.45313 -1.3125,-0.45313 l -1.625,0 c -0.21875,0 -0.40625,0.17188 -0.40625,0.40625 z m 0.8125,-1.9375 0,-1.53125 1.15625,0 c 0.59375,0 0.9375,0.26563 0.9375,0.76563 0,0.46875 -0.35938,0.76562 -0.9375,0.76562 z m 0,0"
           style="fill:#000000;fill-opacity:1;stroke:none;stroke-width:0.91882312" />
        <path
           inkscape:connector-curvature="0"
           id="path11874"
           d="m -879.30867,259.36566 2.6875,0 c 0.1875,0 0.35938,-0.15625 0.35938,-0.35938 0,-0.1875 -0.17188,-0.35937 -0.35938,-0.35937 l -2.28125,0 0,-1.21875 1.95313,0 c 0.1875,0 0.35937,-0.15625 0.35937,-0.34375 0,-0.20313 -0.17187,-0.375 -0.35937,-0.375 l -1.95313,0 0,-1.17188 2.25,0 c 0.1875,0 0.34375,-0.15625 0.34375,-0.35937 0,-0.20313 -0.15625,-0.35938 -0.34375,-0.35938 l -2.65625,0 c -0.21875,0 -0.40625,0.17188 -0.40625,0.40625 l 0,3.73438 c 0,0.23437 0.1875,0.40625 0.40625,0.40625 z m 0,0"
           style="fill:#000000;fill-opacity:1;stroke:none;stroke-width:0.91882312" />
        <path
           inkscape:connector-curvature="0"
           id="path11870"
           d="m -873.57119,259.42816 c 0.96875,0 1.625,-0.5 1.625,-1.35938 l 0,-0.0156 c 0,-0.75 -0.48437,-1.09375 -1.45312,-1.32813 -0.875,-0.20312 -1.07813,-0.35937 -1.07813,-0.71875 0,-0.3125 0.26563,-0.54687 0.73438,-0.54687 0.35937,0 0.70312,0.10937 1.04687,0.34375 0.0625,0.0469 0.125,0.0625 0.20313,0.0625 0.21875,0 0.39062,-0.17188 0.39062,-0.375 0,-0.15625 -0.0937,-0.26563 -0.1875,-0.3125 -0.40625,-0.28125 -0.85937,-0.42188 -1.4375,-0.42188 -0.90625,0 -1.54687,0.53125 -1.54687,1.3125 l 0,0.0156 c 0,0.84375 0.53125,1.125 1.5,1.35937 0.85937,0.1875 1.03125,0.375 1.03125,0.6875 l 0,0.0156 c 0,0.34375 -0.3125,0.57812 -0.79688,0.57812 -0.5,0 -0.90625,-0.17187 -1.28125,-0.46875 -0.0469,-0.0469 -0.125,-0.0781 -0.23437,-0.0781 -0.20313,0 -0.375,0.17187 -0.375,0.375 0,0.125 0.0625,0.23437 0.15625,0.3125 0.5,0.375 1.09375,0.5625 1.70312,0.5625 z m 0,0"
           style="fill:#000000;fill-opacity:1;stroke:none;stroke-width:0.91882312" />
        <g
           id="g6101"
           transform="translate(24.142464,0)">
          <path
             style="fill:#000000;fill-opacity:1;stroke:none;stroke-width:0.91882312"
             d="m -879.79849,46.742172 c 0,0.34375 0.26563,0.609375 0.60938,0.609375 0.34375,0 0.60937,-0.265625 0.60937,-0.609375 l 0,-2.28125 3.03125,0 c 0.29688,0 0.54688,-0.25 0.54688,-0.5625 0,-0.3125 -0.25,-0.5625 -0.54688,-0.5625 l -3.03125,0 0,-1.90625 3.46875,0 c 0.3125,0 0.5625,-0.25 0.5625,-0.5625 0,-0.3125 -0.25,-0.5625 -0.5625,-0.5625 l -4.07812,0 c -0.34375,0 -0.60938,0.265625 -0.60938,0.625 z m 0,0"
             id="path11866"
             inkscape:connector-curvature="0" />
          <path
             style="fill:#000000;fill-opacity:1;stroke:none;stroke-width:0.91882312"
             d="m -873.2055,46.742172 c 0,0.34375 0.26563,0.609375 0.60938,0.609375 0.34375,0 0.60937,-0.265625 0.60937,-0.609375 l 0,-1.875 1.5625,0 1.6875,2.171875 c 0.14063,0.1875 0.32813,0.3125 0.60938,0.3125 0.29687,0 0.57812,-0.234375 0.57812,-0.5625 0,-0.1875 -0.0781,-0.328125 -0.1875,-0.46875 l -1.34375,-1.703125 c 0.9375,-0.28125 1.59375,-0.96875 1.59375,-2.078125 l 0,-0.03125 c 0,-0.609375 -0.21875,-1.125 -0.57812,-1.5 -0.45313,-0.4375 -1.14063,-0.703125 -2.03125,-0.703125 l -2.5,0 c -0.34375,0 -0.60938,0.265625 -0.60938,0.625 z m 1.21875,-2.96875 0,-2.34375 1.79688,0 c 0.90625,0 1.45312,0.40625 1.45312,1.15625 l 0,0.01563 c 0,0.71875 -0.5625,1.171875 -1.4375,1.171875 z m 0,0"
             id="path11862"
             inkscape:connector-curvature="0" />
          <path
             style="fill:#000000;fill-opacity:1;stroke:none;stroke-width:0.91882312"
             d="m -865.18511,47.304672 4.125,0 c 0.29687,0 0.54687,-0.234375 0.54687,-0.546875 0,-0.296875 -0.25,-0.546875 -0.54687,-0.546875 l -3.51563,0 0,-1.890625 3.01563,0 c 0.29687,0 0.54687,-0.234375 0.54687,-0.53125 0,-0.3125 -0.25,-0.5625 -0.54687,-0.5625 l -3.01563,0 0,-1.828125 3.46875,0 c 0.29688,0 0.54688,-0.234375 0.54688,-0.546875 0,-0.296875 -0.25,-0.546875 -0.54688,-0.546875 l -4.07812,0 c -0.34375,0 -0.60938,0.265625 -0.60938,0.625 l 0,5.75 c 0,0.359375 0.26563,0.625 0.60938,0.625 z m 0,0"
             id="path11858"
             inkscape:connector-curvature="0" />
          <path
             style="fill:#000000;fill-opacity:1;stroke:none;stroke-width:0.91882312"
             d="m -855.82637,47.429672 c 0.8125,0 1.54687,-0.25 2.14062,-0.671875 l 0.5,0.453125 c 0.10938,0.109375 0.25,0.1875 0.42188,0.1875 0.32812,0 0.57812,-0.28125 0.57812,-0.59375 0,-0.203125 -0.0781,-0.359375 -0.21875,-0.484375 l -0.45312,-0.359375 c 0.45312,-0.609375 0.70312,-1.359375 0.70312,-2.15625 l 0,-0.01563 c 0,-1.96875 -1.5,-3.609375 -3.64062,-3.609375 -2.15625,0 -3.67188,1.65625 -3.67188,3.625 l 0,0.01563 c 0,1.96875 1.5,3.609375 3.64063,3.609375 z m 0.35937,-2.203125 0.875,0.734375 c -0.34375,0.203125 -0.75,0.328125 -1.20312,0.328125 -1.39063,0 -2.39063,-1.125 -2.39063,-2.484375 l 0,-0.01563 c 0,-1.359375 0.96875,-2.46875 2.35938,-2.46875 1.39062,0 2.39062,1.125 2.39062,2.484375 l 0,0.01563 c 0,0.5 -0.125,0.953125 -0.34375,1.328125 l -0.90625,-0.8125 c -0.14062,-0.125 -0.25,-0.1875 -0.42187,-0.1875 -0.32813,0 -0.57813,0.28125 -0.57813,0.59375 0,0.21875 0.0781,0.359375 0.21875,0.484375 z m 0,0"
             id="path11854"
             inkscape:connector-curvature="0" />
        </g>
        <path
           style="fill:none;stroke:#000000;stroke-width:0.62896478;stroke-linecap:round;stroke-linejoin:round;stroke-miterlimit:10;stroke-opacity:1"
           d="m -928.63306,245.32813 173.59806,0"
           id="path25367"
           inkscape:connector-curvature="0" />
        <path
           inkscape:connector-curvature="0"
           id="path11798"
           d="m -917.19441,302.9658 c 0,0.21875 0.1875,0.39062 0.40625,0.39062 0.21875,0 0.40625,-0.17187 0.40625,-0.39062 l 0,-3.82813 c 0,-0.21875 -0.1875,-0.39062 -0.40625,-0.39062 -0.21875,0 -0.40625,0.17187 -0.40625,0.39062 z m 0,0"
           style="fill:#000000;fill-opacity:1;stroke:none;stroke-width:0.91882312" />
        <path
           inkscape:connector-curvature="0"
           id="path11794"
           d="m -914.97276,302.9658 c 0,0.21875 0.1875,0.39062 0.40625,0.39062 0.21875,0 0.39062,-0.17187 0.39062,-0.39062 l 0,-2.89063 2.34375,3.03125 c 0.10938,0.14063 0.21875,0.25 0.40625,0.25 l 0.0312,0 c 0.21875,0 0.39063,-0.1875 0.39063,-0.40625 l 0,-3.8125 c 0,-0.21875 -0.17188,-0.39062 -0.39063,-0.39062 -0.21875,0 -0.39062,0.17187 -0.39062,0.39062 l 0,2.79688 -2.28125,-2.95313 c -0.10938,-0.14062 -0.21875,-0.23437 -0.40625,-0.23437 l -0.0937,0 c -0.21875,0 -0.40625,0.1875 -0.40625,0.40625 z m 0,0"
           style="fill:#000000;fill-opacity:1;stroke:none;stroke-width:0.91882312" />
        <g
           id="g6116"
           transform="translate(24.994399,0)">
          <path
             style="fill:#000000;fill-opacity:1;stroke:none;stroke-width:0.91882312"
             d="m -922.95223,127.52647 c 0,0.28125 0.21875,0.5 0.5,0.5 0.26563,0 0.48438,-0.21875 0.48438,-0.5 l 0,-1.82812 2.42187,0 c 0.25,0 0.4375,-0.20313 0.4375,-0.45313 0,-0.23437 -0.1875,-0.4375 -0.4375,-0.4375 l -2.42187,0 0,-1.53125 2.78125,0 c 0.25,0 0.4375,-0.20312 0.4375,-0.45312 0,-0.25 -0.1875,-0.4375 -0.4375,-0.4375 l -3.26563,0 c -0.28125,0 -0.5,0.20312 -0.5,0.48437 z m 0,0"
             id="path11850"
             inkscape:connector-curvature="0" />
          <path
             style="fill:#000000;fill-opacity:1;stroke:none;stroke-width:0.91882312"
             d="m -917.59704,127.52644 c 0,0.28125 0.21875,0.5 0.5,0.5 0.26563,0 0.48438,-0.21875 0.48438,-0.5 l 0,-1.5 1.23437,0 1.35938,1.73438 c 0.125,0.15625 0.26562,0.26562 0.48437,0.26562 0.25,0 0.46875,-0.1875 0.46875,-0.46875 0,-0.14062 -0.0625,-0.25 -0.15625,-0.375 l -1.0625,-1.34375 c 0.75,-0.23437 1.26563,-0.78125 1.26563,-1.67187 l 0,-0.0156 c 0,-0.48437 -0.17188,-0.90625 -0.46875,-1.21875 -0.35938,-0.34375 -0.90625,-0.54687 -1.60938,-0.54687 l -2,0 c -0.28125,0 -0.5,0.20312 -0.5,0.48437 z m 0.98438,-2.375 0,-1.875 1.4375,0 c 0.71875,0 1.15625,0.32813 1.15625,0.92188 l 0,0.0156 c 0,0.57813 -0.45313,0.9375 -1.15625,0.9375 z m 0,0"
             id="path11846"
             inkscape:connector-curvature="0" />
          <path
             style="fill:#000000;fill-opacity:1;stroke:none;stroke-width:0.91882312"
             d="m -911.09063,127.9796 3.29688,0 c 0.23437,0 0.4375,-0.1875 0.4375,-0.4375 0,-0.25 -0.20313,-0.4375 -0.4375,-0.4375 l -2.8125,0 0,-1.51563 2.40625,0 c 0.25,0 0.4375,-0.1875 0.4375,-0.42187 0,-0.25 -0.1875,-0.45313 -0.4375,-0.45313 l -2.40625,0 0,-1.45312 2.76562,0 c 0.25,0 0.4375,-0.1875 0.4375,-0.4375 0,-0.25 -0.1875,-0.4375 -0.4375,-0.4375 l -3.25,0 c -0.28125,0 -0.5,0.20312 -0.5,0.48437 l 0,4.60938 c 0,0.28125 0.21875,0.5 0.5,0.5 z m 0,0"
             id="path11842"
             inkscape:connector-curvature="0" />
          <path
             style="fill:#000000;fill-opacity:1;stroke:none;stroke-width:0.91882312"
             d="m -903.52118,128.18271 c 0.65625,0 1.23438,-0.1875 1.70313,-0.53125 l 0.40625,0.35937 c 0.0781,0.0937 0.20312,0.15625 0.34375,0.15625 0.25,0 0.45312,-0.21875 0.45312,-0.48437 0,-0.15625 -0.0625,-0.28125 -0.17187,-0.375 l -0.35938,-0.29688 c 0.35938,-0.48437 0.5625,-1.09375 0.5625,-1.71875 l 0,-0.0156 c 0,-1.57813 -1.20312,-2.89063 -2.92187,-2.89063 -1.71875,0 -2.9375,1.32813 -2.9375,2.90625 l 0,0.0156 c 0,1.57812 1.20312,2.875 2.92187,2.875 z m 0.29688,-1.75 0.6875,0.57812 c -0.26563,0.17188 -0.59375,0.26563 -0.96875,0.26563 -1.10938,0 -1.90625,-0.90625 -1.90625,-1.98438 l 0,-0.0156 c 0,-1.09375 0.78125,-1.98438 1.89062,-1.98438 1.10938,0 1.90625,0.90625 1.90625,2 l 0,0.0156 c 0,0.39062 -0.0937,0.75 -0.26562,1.0625 l -0.73438,-0.65625 c -0.10937,-0.0937 -0.1875,-0.14063 -0.34375,-0.14063 -0.25,0 -0.45312,0.21875 -0.45312,0.46875 0,0.17188 0.0625,0.28125 0.1875,0.39063 z m 0,0"
             id="path11838"
             inkscape:connector-curvature="0" />
          <path
             style="fill:#000000;fill-opacity:1;stroke:none;stroke-width:0.91882312"
             d="m -894.39929,128.18276 c 0.90625,0 1.51562,-0.28125 2.04687,-0.75 0.0781,-0.0781 0.15625,-0.20313 0.15625,-0.35938 0,-0.23437 -0.21875,-0.45312 -0.46875,-0.45312 -0.125,0 -0.21875,0.0469 -0.29687,0.10937 -0.40625,0.34375 -0.8125,0.54688 -1.39063,0.54688 -1.07812,0 -1.85937,-0.89063 -1.85937,-1.98438 l 0,-0.0156 c 0,-1.09375 0.78125,-1.98438 1.85937,-1.98438 0.53125,0 0.9375,0.20313 1.32813,0.51563 0.0625,0.0469 0.15625,0.0937 0.29687,0.0937 0.26563,0 0.48438,-0.21875 0.48438,-0.48438 0,-0.17187 -0.0781,-0.3125 -0.1875,-0.39062 -0.48438,-0.375 -1.0625,-0.64063 -1.92188,-0.64063 -1.70312,0 -2.89062,1.3125 -2.89062,2.90625 l 0,0.0156 c 0,1.60937 1.21875,2.875 2.84375,2.875 z m 0,0"
             id="path11834"
             inkscape:connector-curvature="0" />
          <path
             style="fill:#000000;fill-opacity:1;stroke:none;stroke-width:0.91882312"
             d="m -888.69033,128.1046 0.0469,0 c 0.28125,0 0.46875,-0.15625 0.57812,-0.39062 l 1.96875,-4.64063 c 0.0156,-0.0625 0.0469,-0.14062 0.0469,-0.21875 0,-0.26562 -0.21875,-0.46875 -0.48438,-0.46875 -0.23437,0 -0.42187,0.15625 -0.48437,0.32813 l -1.64063,4.0625 -1.60937,-4.03125 c -0.0781,-0.21875 -0.25,-0.35938 -0.5,-0.35938 -0.28125,0 -0.5,0.21875 -0.5,0.48438 0,0.0781 0.0312,0.15625 0.0625,0.23437 l 1.95312,4.60938 c 0.10938,0.23437 0.28125,0.39062 0.5625,0.39062 z m 0,0"
             id="path11830"
             inkscape:connector-curvature="0" />
          <path
             style="fill:#000000;fill-opacity:1;stroke:none;stroke-width:0.91882312"
             d="m -848.19007,189.87158 c 0,0.28125 0.21875,0.5 0.5,0.5 l 1.59375,0 c 1.75,0 2.96875,-1.21875 2.96875,-2.79688 l 0,-0.0156 c 0,-1.57813 -1.21875,-2.78125 -2.96875,-2.78125 l -1.59375,0 c -0.28125,0 -0.5,0.20312 -0.5,0.48437 z m 0.98437,-0.39063 0,-3.8125 1.10938,0 c 1.17187,0 1.9375,0.8125 1.9375,1.90625 l 0,0.0156 c 0,1.09375 -0.76563,1.89062 -1.9375,1.89062 z m 0,0"
             id="path11790"
             inkscape:connector-curvature="0" />
          <path
             style="fill:#000000;fill-opacity:1;stroke:none;stroke-width:0.91882312"
             d="m -841.76047,189.91845 c 0,0.28125 0.21875,0.5 0.5,0.5 0.26563,0 0.48438,-0.21875 0.48438,-0.5 l 0,-1.5 1.23437,0 1.35938,1.73438 c 0.125,0.15625 0.26562,0.26562 0.48437,0.26562 0.25,0 0.46875,-0.1875 0.46875,-0.46875 0,-0.14062 -0.0625,-0.25 -0.15625,-0.375 l -1.0625,-1.34375 c 0.75,-0.23437 1.26563,-0.78125 1.26563,-1.67187 l 0,-0.0156 c 0,-0.48437 -0.17188,-0.90625 -0.46875,-1.21875 -0.35938,-0.34375 -0.90625,-0.54687 -1.60938,-0.54687 l -2,0 c -0.28125,0 -0.5,0.20312 -0.5,0.48437 z m 0.98438,-2.375 0,-1.875 1.4375,0 c 0.71875,0 1.15625,0.32813 1.15625,0.92188 l 0,0.0156 c 0,0.57813 -0.45313,0.9375 -1.15625,0.9375 z m 0,0"
             id="path11786"
             inkscape:connector-curvature="0" />
          <path
             style="fill:#000000;fill-opacity:1;stroke:none;stroke-width:0.91882312"
             d="m -835.71799,189.91845 c 0,0.28125 0.20312,0.5 0.48437,0.5 0.28125,0 0.5,-0.21875 0.5,-0.5 l 0,-4.70312 c 0,-0.26563 -0.21875,-0.48438 -0.5,-0.48438 -0.28125,0 -0.48437,0.21875 -0.48437,0.48438 z m 0,0"
             id="path11782"
             inkscape:connector-curvature="0" />
          <path
             style="fill:#000000;fill-opacity:1;stroke:none;stroke-width:0.91882312"
             d="m -830.99299,190.4497 0.0469,0 c 0.28125,0 0.46875,-0.15625 0.57813,-0.39062 l 1.96875,-4.64063 c 0.0156,-0.0625 0.0469,-0.14062 0.0469,-0.21875 0,-0.26562 -0.21875,-0.46875 -0.48437,-0.46875 -0.23438,0 -0.42188,0.15625 -0.48438,0.32813 l -1.64062,4.0625 -1.60938,-4.03125 c -0.0781,-0.21875 -0.25,-0.35938 -0.5,-0.35938 -0.28125,0 -0.5,0.21875 -0.5,0.48438 0,0.0781 0.0312,0.15625 0.0625,0.23437 l 1.95313,4.60938 c 0.10937,0.23437 0.28125,0.39062 0.5625,0.39062 z m 0,0"
             id="path11778"
             inkscape:connector-curvature="0" />
          <path
             style="fill:#000000;fill-opacity:1;stroke:none;stroke-width:0.91882312"
             d="m -826.70847,190.37158 3.29688,0 c 0.23437,0 0.4375,-0.1875 0.4375,-0.4375 0,-0.25 -0.20313,-0.4375 -0.4375,-0.4375 l -2.8125,0 0,-1.51563 2.40625,0 c 0.25,0 0.4375,-0.1875 0.4375,-0.42187 0,-0.25 -0.1875,-0.45313 -0.4375,-0.45313 l -2.40625,0 0,-1.45312 2.76562,0 c 0.25,0 0.4375,-0.1875 0.4375,-0.4375 0,-0.25 -0.1875,-0.4375 -0.4375,-0.4375 l -3.25,0 c -0.28125,0 -0.5,0.20312 -0.5,0.48437 l 0,4.60938 c 0,0.28125 0.21875,0.5 0.5,0.5 z m 0,0"
             id="path11774"
             inkscape:connector-curvature="0" />
        </g>
        <path
           style="fill:#212121;fill-opacity:1;fill-rule:nonzero;stroke:none;stroke-width:0.91882312"
           d="m -794.20563,297.09413 c 0,-1.55859 -1.27735,-2.83203 -2.83594,-2.83203 l -21.77344,0 c -1.55859,0 -2.83593,1.27344 -2.83593,2.83203 l 0,33.08984 c 0,1.5586 1.27734,2.83594 2.83593,2.83594 l 21.77344,0 c 1.55859,0 2.83594,-1.27734 2.83594,-2.83594 z m 0,0"
           id="path25247-3"
           inkscape:connector-curvature="0" />
        <g
           style="font-style:normal;font-weight:normal;font-size:40.89825058px;line-height:125%;font-family:sans-serif;letter-spacing:0px;word-spacing:0px;fill:#000000;fill-opacity:1;stroke:none;stroke-width:1px;stroke-linecap:butt;stroke-linejoin:miter;stroke-opacity:1"
           id="text6523">
          <path
             d="m -812.31344,303.22043 -1.39789,0 q -0.30267,0 -0.43372,-0.13417 -0.12794,-0.1373 -0.12794,-0.43372 l 0,-3.43856 q 0,-0.30267 0.13106,-0.43372 0.13417,-0.13418 0.4306,-0.13418 l 1.48213,0 q 0.32763,0 0.5679,0.0406 0.24026,0.0406 0.4306,0.15601 0.16225,0.0967 0.28706,0.24651 0.12481,0.14665 0.19034,0.32763 0.0655,0.17785 0.0655,0.37755 0,0.68646 -0.68647,1.00473 0.90177,0.28707 0.90177,1.11707 0,0.38379 -0.19658,0.6927 -0.19658,0.30579 -0.53045,0.45244 -0.20906,0.0874 -0.48053,0.12482 -0.27146,0.0343 -0.63341,0.0343 z m -0.0686,-2.03131 -0.96417,0 0,1.33548 0.99537,0 q 0.93921,0 0.93921,-0.6771 0,-0.34635 -0.24338,-0.50237 -0.24339,-0.15601 -0.72703,-0.15601 z m -0.96417,-1.84721 0,1.18259 0.84872,0 q 0.34635,0 0.53357,-0.0655 0.19034,-0.0655 0.29019,-0.24962 0.078,-0.13105 0.078,-0.29331 0,-0.34635 -0.2465,-0.45868 -0.2465,-0.11545 -0.75199,-0.11545 l -0.75199,0 z"
             style="font-style:normal;font-variant:normal;font-weight:normal;font-stretch:normal;font-size:6.39035177px;font-family:'Arial Rounded MT Bold';-inkscape-font-specification:'Arial Rounded MT Bold, ';fill:#ececec"
             id="path6528"
             inkscape:connector-curvature="0" />
          <path
             d="m -807.89824,301.43874 -0.84871,0 0,1.29492 q 0,0.27771 -0.13106,0.42124 -0.13105,0.14354 -0.33075,0.14354 -0.20906,0 -0.33699,-0.14042 -0.12793,-0.14353 -0.12793,-0.41812 l 0,-3.52592 q 0,-0.30579 0.14041,-0.43684 0.14042,-0.13106 0.4462,-0.13106 l 1.18883,0 q 0.52733,0 0.81128,0.0811 0.28083,0.078 0.48364,0.25899 0.20594,0.18097 0.31203,0.44308 0.10609,0.2621 0.10609,0.58973 0,0.69895 -0.4306,1.0609 -0.4306,0.35883 -1.28244,0.35883 z m -0.22466,-2.09683 -0.62405,0 0,1.39789 0.62405,0 q 0.32763,0 0.54605,-0.0686 0.22154,-0.0686 0.337,-0.22466 0.11545,-0.15601 0.11545,-0.40876 0,-0.30266 -0.17786,-0.493 -0.1997,-0.20282 -0.82064,-0.20282 z"
             style="font-style:normal;font-variant:normal;font-weight:normal;font-stretch:normal;font-size:6.39035177px;font-family:'Arial Rounded MT Bold';-inkscape-font-specification:'Arial Rounded MT Bold, ';fill:#ececec"
             id="path6530"
             inkscape:connector-curvature="0" />
          <path
             d="m -802.67175,299.36063 -1.82537,0 0,1.17011 1.52582,0 q 0.21218,0 0.31515,0.0967 0.10609,0.0936 0.10609,0.25274 0,0.15914 -0.10609,0.25275 -0.10609,0.0936 -0.31515,0.0936 l -1.52582,0 0,1.5071 q 0,0.28707 -0.13105,0.42748 -0.12793,0.1373 -0.33075,0.1373 -0.20594,0 -0.33699,-0.14042 -0.12794,-0.14041 -0.12794,-0.42436 l 0,-3.51968 q 0,-0.1997 0.0593,-0.32451 0.0593,-0.12793 0.1841,-0.1841 0.12793,-0.0593 0.32451,-0.0593 l 2.1842,0 q 0.22154,0 0.32763,0.0999 0.10921,0.0967 0.10921,0.25587 0,0.16225 -0.10921,0.2621 -0.10609,0.0967 -0.32763,0.0967 z"
             style="font-style:normal;font-variant:normal;font-weight:normal;font-stretch:normal;font-size:6.39035177px;font-family:'Arial Rounded MT Bold';-inkscape-font-specification:'Arial Rounded MT Bold, ';fill:#ececec"
             id="path6532"
             inkscape:connector-curvature="0" />
        </g>
        <path
           style="display:inline;fill:#212121;fill-opacity:1;fill-rule:nonzero;stroke:none;stroke-width:0.91882312"
           d="m -758.73508,297.09413 c 0,-1.55859 -1.27735,-2.83203 -2.83594,-2.83203 l -21.77344,0 c -1.55859,0 -2.83593,1.27344 -2.83593,2.83203 l 0,33.08984 c 0,1.5586 1.27734,2.83594 2.83593,2.83594 l 21.77344,0 c 1.55859,0 2.83594,-1.27734 2.83594,-2.83594 z m 0,0"
           id="path25247-3-5"
           inkscape:connector-curvature="0" />
      </g>
      <g
         inkscape:groupmode="layer"
         id="layer10"
         inkscape:label="Layer 2"
         style="display:inline" />
    </g>
    <g
       style="font-style:normal;font-weight:normal;font-size:11.28889084px;line-height:125%;font-family:sans-serif;letter-spacing:0px;word-spacing:0px;fill:#000000;fill-opacity:1;stroke:none;stroke-width:1px;stroke-linecap:butt;stroke-linejoin:miter;stroke-opacity:1"
       id="text6094"
       transform="translate(8.7817364,0)">
      <g
         id="g6110">
        <path
           style="display:inline;fill:#000000;fill-opacity:1;stroke:none;stroke-width:0.91882312"
           d="m -843.35007,127.52644 c 0,0.28125 0.21875,0.5 0.5,0.5 0.26562,0 0.48437,-0.21875 0.48437,-0.5 l 0,-1.5 1.23438,0 1.35937,1.73438 c 0.125,0.15625 0.26563,0.26562 0.48438,0.26562 0.25,0 0.46875,-0.1875 0.46875,-0.46875 0,-0.14062 -0.0625,-0.25 -0.15625,-0.375 l -1.0625,-1.34375 c 0.75,-0.23437 1.26562,-0.78125 1.26562,-1.67187 l 0,-0.0156 c 0,-0.48437 -0.17187,-0.90625 -0.46875,-1.21875 -0.35937,-0.34375 -0.90625,-0.54687 -1.60937,-0.54687 l -2,0 c -0.28125,0 -0.5,0.20312 -0.5,0.48437 z m 0.98437,-2.375 0,-1.875 1.4375,0 c 0.71875,0 1.15625,0.32813 1.15625,0.92188 l 0,0.0156 c 0,0.57813 -0.45312,0.9375 -1.15625,0.9375 z m 0,0"
           id="path11770"
           inkscape:connector-curvature="0"
           transform="matrix(0.27602379,0,0,0.27602379,304.74651,52.061968)" />
        <path
           style="display:inline;fill:#000000;fill-opacity:1;stroke:none;stroke-width:0.91882312"
           d="m -836.84449,127.97957 3.29688,0 c 0.23437,0 0.4375,-0.1875 0.4375,-0.4375 0,-0.25 -0.20313,-0.4375 -0.4375,-0.4375 l -2.8125,0 0,-1.51563 2.40625,0 c 0.25,0 0.4375,-0.1875 0.4375,-0.42187 0,-0.25 -0.1875,-0.45313 -0.4375,-0.45313 l -2.40625,0 0,-1.45312 2.76562,0 c 0.25,0 0.4375,-0.1875 0.4375,-0.4375 0,-0.25 -0.1875,-0.4375 -0.4375,-0.4375 l -3.25,0 c -0.28125,0 -0.5,0.20312 -0.5,0.48437 l 0,4.60938 c 0,0.28125 0.21875,0.5 0.5,0.5 z m 0,0"
           id="path11766"
           inkscape:connector-curvature="0"
           transform="matrix(0.27602379,0,0,0.27602379,304.74651,52.061968)" />
        <path
           style="display:inline;fill:#000000;fill-opacity:1;stroke:none;stroke-width:0.91882312"
           d="m -829.83973,128.05769 c 1.17188,0 2,-0.625 2,-1.67187 l 0,-0.0156 c 0,-0.92187 -0.60937,-1.34375 -1.79687,-1.64062 -1.07813,-0.25 -1.34375,-0.45313 -1.34375,-0.875 l 0,-0.0156 c 0,-0.375 0.34375,-0.67187 0.92187,-0.67187 0.4375,0 0.84375,0.15625 1.28125,0.42187 0.0781,0.0469 0.15625,0.0781 0.26563,0.0781 0.25,0 0.45312,-0.20313 0.45312,-0.45313 0,-0.1875 -0.0937,-0.32812 -0.21875,-0.39062 -0.5,-0.34375 -1.0625,-0.53125 -1.76562,-0.53125 -1.10938,0 -1.92188,0.67187 -1.92188,1.625 l 0,0.0156 c 0,1.03125 0.67188,1.39063 1.875,1.67188 1.03125,0.25 1.26563,0.46875 1.26563,0.85937 l 0,0.0156 c 0,0.42187 -0.39063,0.70312 -1,0.70312 -0.60938,0 -1.10938,-0.20312 -1.5625,-0.57812 -0.0625,-0.0469 -0.15625,-0.0781 -0.29688,-0.0781 -0.25,0 -0.45312,0.20313 -0.45312,0.45313 0,0.15625 0.0781,0.29687 0.1875,0.375 0.625,0.46875 1.34375,0.70312 2.10937,0.70312 z m 0,0"
           id="path11762"
           inkscape:connector-curvature="0"
           transform="matrix(0.27602379,0,0,0.27602379,304.74651,52.061968)" />
      </g>
    </g>
    <g
       style="font-style:normal;font-variant:normal;font-weight:normal;font-stretch:normal;font-size:7.0555563px;line-height:125%;font-family:'Arial Rounded MT Bold';-inkscape-font-specification:'Arial Rounded MT Bold, Normal';text-align:start;letter-spacing:0px;word-spacing:0px;writing-mode:lr-tb;text-anchor:start;fill:#000000;fill-opacity:1;stroke:none;stroke-width:1px;stroke-linecap:butt;stroke-linejoin:miter;stroke-opacity:1"
       id="text3447"
       transform="translate(-1.128889,-1.9435096)">
      <path
         d="m 62.313586,105.27111 -0.604614,0 0,0.38757 0.505395,0 q 0.07028,0 0.104387,0.032 0.03514,0.031 0.03514,0.0837 0,0.0527 -0.03514,0.0837 -0.03514,0.031 -0.104387,0.031 l -0.505395,0 0,0.4992 q 0,0.0951 -0.04341,0.14159 -0.04237,0.0455 -0.109555,0.0455 -0.06821,0 -0.111621,-0.0465 -0.04237,-0.0465 -0.04237,-0.14056 l 0,-1.16582 q 0,-0.0662 0.01964,-0.10749 0.01964,-0.0424 0.06098,-0.061 0.04237,-0.0196 0.107487,-0.0196 l 0.72347,0 q 0.07338,0 0.108521,0.0331 0.03617,0.032 0.03617,0.0847 0,0.0537 -0.03617,0.0868 -0.03514,0.032 -0.108521,0.032 z"
         style="font-size:2.11666703px"
         id="path3452"
         inkscape:connector-curvature="0" />
      <path
         d="m 63.098034,105.90156 -0.107486,0 0,0.48679 q 0,0.0961 -0.04237,0.1416 -0.04237,0.0455 -0.110588,0.0455 -0.07338,0 -0.113688,-0.0475 -0.04031,-0.0475 -0.04031,-0.13953 l 0,-1.16582 q 0,-0.0992 0.04444,-0.14366 0.04444,-0.0444 0.143661,-0.0444 l 0.499194,0 q 0.103353,0 0.176734,0.009 0.07338,0.008 0.132291,0.0351 0.07131,0.03 0.126091,0.0858 0.05478,0.0558 0.08268,0.13023 0.02894,0.0734 0.02894,0.15606 0,0.1695 -0.09612,0.27078 -0.09509,0.10129 -0.289388,0.14366 0.08165,0.0434 0.156062,0.12816 0.07442,0.0847 0.132292,0.18087 0.05891,0.0951 0.09095,0.1726 0.03307,0.0765 0.03307,0.10542 0,0.03 -0.01964,0.0599 -0.0186,0.0289 -0.05168,0.0455 -0.03307,0.0176 -0.07648,0.0176 -0.05168,0 -0.08682,-0.0248 -0.03514,-0.0238 -0.06098,-0.061 -0.0248,-0.0372 -0.06821,-0.10956 l -0.122989,-0.20441 q -0.06615,-0.11266 -0.118856,-0.17157 -0.05168,-0.0589 -0.10542,-0.0806 -0.05374,-0.0217 -0.135393,-0.0217 z m 0.1757,-0.63665 -0.283186,0 0,0.41651 0.274918,0 q 0.110588,0 0.186035,-0.0186 0.07545,-0.0196 0.114722,-0.0651 0.04031,-0.0465 0.04031,-0.12712 0,-0.063 -0.03204,-0.11059 -0.03204,-0.0486 -0.08888,-0.0724 -0.05374,-0.0227 -0.211874,-0.0227 z"
         style="font-size:2.11666703px"
         id="path3454"
         inkscape:connector-curvature="0" />
      <path
         d="m 65.2054,105.27111 -0.691431,0 0,0.37207 0.636654,0 q 0.07028,0 0.104386,0.032 0.03514,0.031 0.03514,0.0827 0,0.0517 -0.03411,0.0847 -0.03411,0.032 -0.10542,0.032 l -0.636654,0 0,0.43098 0.715202,0 q 0.07235,0 0.108521,0.0341 0.03721,0.0331 0.03721,0.0889 0,0.0537 -0.03721,0.0879 -0.03617,0.0331 -0.108521,0.0331 l -0.834058,0 q -0.100252,0 -0.144694,-0.0444 -0.04341,-0.0444 -0.04341,-0.14366 l 0,-1.13895 q 0,-0.0662 0.01964,-0.10748 0.01964,-0.0424 0.06098,-0.061 0.04237,-0.0196 0.107487,-0.0196 l 0.810287,0 q 0.07338,0 0.10852,0.0331 0.03617,0.032 0.03617,0.0847 0,0.0537 -0.03617,0.0868 -0.03514,0.032 -0.10852,0.032 z"
         style="font-size:2.11666703px"
         id="path3456"
         inkscape:connector-curvature="0" />
      <path
         d="m 66.839409,106.36148 q 0.06718,0.0455 0.146761,0.0889 0.07958,0.0424 0.10542,0.0682 0.02584,0.0248 0.02584,0.0713 0,0.0331 -0.03101,0.0661 -0.02997,0.0331 -0.07338,0.0331 -0.03514,0 -0.08578,-0.0227 -0.04961,-0.0227 -0.117822,-0.0662 -0.06718,-0.0434 -0.147795,-0.10128 -0.149862,0.0765 -0.367936,0.0765 -0.176734,0 -0.317294,-0.0558 -0.139526,-0.0568 -0.234611,-0.16227 -0.09508,-0.10645 -0.14366,-0.25218 -0.04754,-0.14573 -0.04754,-0.31729 0,-0.17467 0.04961,-0.3204 0.05064,-0.14572 0.145728,-0.24804 0.09508,-0.10232 0.23151,-0.15606 0.136426,-0.0548 0.310059,-0.0548 0.235644,0 0.404109,0.0961 0.169499,0.0951 0.256316,0.27181 0.08682,0.1757 0.08682,0.41341 0,0.36071 -0.195337,0.57155 z m -0.240812,-0.16743 q 0.06408,-0.0734 0.09405,-0.17363 0.03101,-0.10025 0.03101,-0.23255 0,-0.16639 -0.05374,-0.28835 -0.05374,-0.12196 -0.153996,-0.18397 -0.09922,-0.0631 -0.228409,-0.0631 -0.09198,0 -0.170533,0.0351 -0.07751,0.0341 -0.134358,0.10026 -0.05581,0.0662 -0.08888,0.16949 -0.03204,0.10232 -0.03204,0.23048 0,0.26148 0.121956,0.40308 0.121957,0.14056 0.307992,0.14056 0.07648,0 0.157096,-0.032 -0.04858,-0.0362 -0.121956,-0.0724 -0.07235,-0.0362 -0.09922,-0.0558 -0.02687,-0.0196 -0.02687,-0.0558 0,-0.031 0.02584,-0.0548 0.02584,-0.0238 0.05685,-0.0238 0.09405,0 0.315226,0.15709 z"
         style="font-size:2.11666703px"
         id="path3458"
         inkscape:connector-curvature="0" />
      <path
         d="m 69.119373,106.07106 q 0,0.0724 -0.03617,0.1571 -0.03514,0.0837 -0.111621,0.16536 -0.07648,0.0806 -0.195337,0.13126 -0.118856,0.0506 -0.276986,0.0506 -0.119889,0 -0.218075,-0.0227 -0.09819,-0.0227 -0.1788,-0.0703 -0.07958,-0.0486 -0.146761,-0.12712 -0.05994,-0.0713 -0.102319,-0.15917 -0.04238,-0.0889 -0.06408,-0.18913 -0.02067,-0.10026 -0.02067,-0.21291 0,-0.18293 0.05271,-0.32763 0.05374,-0.14469 0.152962,-0.24701 0.09922,-0.10335 0.232544,-0.1571 0.133326,-0.0537 0.284221,-0.0537 0.183968,0 0.327628,0.0734 0.143661,0.0734 0.220142,0.1819 0.07648,0.10749 0.07648,0.20361 0,0.0527 -0.03721,0.093 -0.03721,0.0403 -0.08992,0.0403 -0.05891,0 -0.08888,-0.0279 -0.02894,-0.0279 -0.06511,-0.0961 -0.05994,-0.11266 -0.141593,-0.16847 -0.08062,-0.0558 -0.199471,-0.0558 -0.189136,0 -0.301791,0.14366 -0.111621,0.14366 -0.111621,0.40825 0,0.17673 0.04961,0.29455 0.04961,0.11679 0.14056,0.17467 0.09095,0.0579 0.212907,0.0579 0.132291,0 0.223242,-0.0651 0.09198,-0.0661 0.138493,-0.19327 0.01964,-0.0599 0.04858,-0.0971 0.02894,-0.0382 0.09302,-0.0382 0.05478,0 0.09405,0.0382 0.03927,0.0382 0.03927,0.0951 z"
         style="font-size:2.11666703px"
         id="path3460"
         inkscape:connector-curvature="0" />
      <path
         d="m 69.619601,105.21013 0.343132,1.01596 0.344165,-1.02319 q 0.02687,-0.0806 0.04031,-0.11162 0.01344,-0.032 0.04444,-0.0568 0.03101,-0.0258 0.08475,-0.0258 0.03927,0 0.07235,0.0196 0.03411,0.0196 0.05271,0.0527 0.01964,0.032 0.01964,0.0651 0,0.0227 -0.0062,0.0496 -0.0062,0.0258 -0.0155,0.0517 -0.0093,0.0248 -0.0186,0.0517 l -0.366903,0.99012 q -0.01964,0.0568 -0.03927,0.10852 -0.01964,0.0506 -0.04547,0.0899 -0.02584,0.0382 -0.06925,0.063 -0.04237,0.0248 -0.104387,0.0248 -0.06201,0 -0.10542,-0.0248 -0.04237,-0.0238 -0.06925,-0.063 -0.02584,-0.0403 -0.04548,-0.091 -0.01964,-0.0506 -0.03927,-0.10749 l -0.360701,-0.98185 q -0.0093,-0.0269 -0.01964,-0.0527 -0.0093,-0.0258 -0.01654,-0.0558 -0.0062,-0.03 -0.0062,-0.0506 0,-0.0527 0.04237,-0.0961 0.04238,-0.0434 0.106453,-0.0434 0.07855,0 0.110588,0.0486 0.03307,0.0475 0.06718,0.15296 z"
         style="font-size:2.11666703px"
         id="path3462"
         inkscape:connector-curvature="0" />
      <path
         d="m 71.157492,106.30567 0.539502,0 q 0.08061,0 0.12299,0.0331 0.04237,0.0331 0.04237,0.0899 0,0.0506 -0.03411,0.0858 -0.03307,0.0351 -0.101286,0.0351 l -0.760677,0 q -0.07752,0 -0.120923,-0.0424 -0.04341,-0.0434 -0.04341,-0.10128 0,-0.0372 0.02791,-0.0982 0.0279,-0.062 0.06098,-0.0971 0.13746,-0.14263 0.248047,-0.24392 0.110588,-0.10232 0.15813,-0.13436 0.08475,-0.0599 0.14056,-0.11988 0.05684,-0.061 0.08578,-0.12403 0.02997,-0.0641 0.02997,-0.12506 0,-0.0661 -0.03204,-0.11782 -0.03101,-0.0527 -0.08578,-0.0816 -0.05374,-0.0289 -0.117822,-0.0289 -0.135392,0 -0.212907,0.11886 -0.01033,0.0155 -0.03514,0.0847 -0.02377,0.0693 -0.05478,0.10645 -0.02997,0.0372 -0.08888,0.0372 -0.05168,0 -0.08578,-0.0341 -0.03411,-0.0341 -0.03411,-0.093 0,-0.0713 0.03204,-0.14883 0.03204,-0.0775 0.09508,-0.14056 0.06408,-0.063 0.161231,-0.10128 0.09819,-0.0393 0.229443,-0.0393 0.15813,0 0.269751,0.0496 0.07235,0.0331 0.127124,0.091 0.05478,0.0579 0.08475,0.13436 0.03101,0.0754 0.03101,0.15709 0,0.12816 -0.06408,0.23358 -0.06305,0.10439 -0.129192,0.16433 -0.06614,0.0589 -0.222208,0.18604 -0.15503,0.12712 -0.212907,0.1974 -0.02481,0.0279 -0.05064,0.0672 z"
         style="font-size:2.11666703px"
         id="path3464"
         inkscape:connector-curvature="0" />
    </g>
    <g
       style="font-style:normal;font-variant:normal;font-weight:normal;font-stretch:normal;font-size:7.0555563px;line-height:125%;font-family:'Arial Rounded MT Bold';-inkscape-font-specification:'Arial Rounded MT Bold, Normal';text-align:start;letter-spacing:0px;word-spacing:0px;writing-mode:lr-tb;text-anchor:start;fill:#000000;fill-opacity:1;stroke:none;stroke-width:1px;stroke-linecap:butt;stroke-linejoin:miter;stroke-opacity:1"
       id="text3466">
      <path
         d="m 82.562469,122.61677 -0.503846,0 0,0.32298 0.421163,0 q 0.05857,0 0.08699,0.0267 0.02928,0.0258 0.02928,0.0698 0,0.0439 -0.02928,0.0698 -0.02928,0.0258 -0.08699,0.0258 l -0.421163,0 0,0.416 q 0,0.0792 -0.03617,0.11799 -0.03531,0.0379 -0.0913,0.0379 -0.05684,0 -0.09302,-0.0388 -0.03531,-0.0388 -0.03531,-0.11713 l 0,-0.97152 q 0,-0.0551 0.01636,-0.0896 0.01637,-0.0353 0.05082,-0.0508 0.03531,-0.0164 0.08957,-0.0164 l 0.602892,0 q 0.06115,0 0.09043,0.0276 0.03014,0.0267 0.03014,0.0706 0,0.0448 -0.03014,0.0724 -0.02928,0.0267 -0.09043,0.0267 z"
         style="font-size:1.76388919px"
         id="path3471"
         inkscape:connector-curvature="0" />
      <path
         d="m 83.216176,123.14215 -0.08957,0 0,0.40566 q 0,0.0801 -0.03531,0.11799 -0.03531,0.0379 -0.09216,0.0379 -0.06115,0 -0.09474,-0.0396 -0.03359,-0.0396 -0.03359,-0.11627 l 0,-0.97152 q 0,-0.0827 0.03703,-0.11972 0.03703,-0.037 0.119717,-0.037 l 0.415995,0 q 0.08613,0 0.147278,0.008 0.06115,0.007 0.110243,0.0293 0.05943,0.025 0.105075,0.0715 0.04565,0.0465 0.0689,0.10852 0.02412,0.0612 0.02412,0.13005 0,0.14125 -0.0801,0.22566 -0.07924,0.0844 -0.241157,0.11971 0.06804,0.0362 0.130052,0.1068 0.06201,0.0706 0.110243,0.15072 0.04909,0.0792 0.07579,0.14384 0.02756,0.0637 0.02756,0.0878 0,0.025 -0.01636,0.05 -0.0155,0.0241 -0.04306,0.0379 -0.02756,0.0146 -0.06373,0.0146 -0.04306,0 -0.07235,-0.0207 -0.02928,-0.0198 -0.05082,-0.0508 -0.02067,-0.031 -0.05684,-0.0913 L 83.5159,123.37066 q -0.05512,-0.0939 -0.09905,-0.14298 -0.04306,-0.0491 -0.08785,-0.0672 -0.04479,-0.0181 -0.112827,-0.0181 z m 0.146416,-0.53055 -0.235989,0 0,0.3471 0.229099,0 q 0.09216,0 0.155029,-0.0155 0.06287,-0.0164 0.0956,-0.0543 0.03359,-0.0388 0.03359,-0.10593 0,-0.0525 -0.0267,-0.0922 -0.0267,-0.0405 -0.07407,-0.0603 -0.04479,-0.019 -0.176562,-0.019 z"
         style="font-size:1.76388919px"
         id="path3473"
         inkscape:connector-curvature="0" />
      <path
         d="m 84.972313,122.61677 -0.576192,0 0,0.31006 0.530545,0 q 0.05857,0 0.08699,0.0267 0.02928,0.0258 0.02928,0.0689 0,0.0431 -0.02842,0.0706 -0.02842,0.0267 -0.08785,0.0267 l -0.530545,0 0,0.35915 0.596002,0 q 0.06029,0 0.09043,0.0284 0.03101,0.0276 0.03101,0.0741 0,0.0448 -0.03101,0.0732 -0.03014,0.0276 -0.09043,0.0276 l -0.695048,0 q -0.08354,0 -0.120579,-0.037 -0.03617,-0.037 -0.03617,-0.11971 l 0,-0.94913 q 0,-0.0551 0.01636,-0.0896 0.01636,-0.0353 0.05082,-0.0508 0.03531,-0.0164 0.08957,-0.0164 l 0.675238,0 q 0.06115,0 0.09043,0.0276 0.03015,0.0267 0.03015,0.0706 0,0.0448 -0.03015,0.0724 -0.02928,0.0267 -0.09043,0.0267 z"
         style="font-size:1.76388919px"
         id="path3475"
         inkscape:connector-curvature="0" />
      <path
         d="m 86.333988,123.52542 q 0.05598,0.0379 0.122301,0.0741 0.06632,0.0353 0.08785,0.0568 0.02153,0.0207 0.02153,0.0594 0,0.0276 -0.02584,0.0551 -0.02498,0.0276 -0.06115,0.0276 -0.02928,0 -0.07149,-0.019 -0.04134,-0.0189 -0.09819,-0.0551 -0.05598,-0.0362 -0.123162,-0.0844 -0.124885,0.0637 -0.306614,0.0637 -0.147278,0 -0.264411,-0.0465 -0.116272,-0.0474 -0.195509,-0.13522 -0.07924,-0.0887 -0.119717,-0.21015 -0.03962,-0.12144 -0.03962,-0.26441 0,-0.14556 0.04134,-0.267 0.0422,-0.12144 0.12144,-0.2067 0.07924,-0.0853 0.192925,-0.13005 0.113688,-0.0456 0.258382,-0.0456 0.196371,0 0.336759,0.0801 0.141248,0.0792 0.213595,0.22651 0.07235,0.14642 0.07235,0.34451 0,0.30059 -0.16278,0.47629 z m -0.200677,-0.13953 q 0.0534,-0.0611 0.07838,-0.1447 0.02584,-0.0835 0.02584,-0.19378 0,-0.13867 -0.04479,-0.2403 -0.04479,-0.10163 -0.12833,-0.1533 -0.08268,-0.0525 -0.190342,-0.0525 -0.07665,0 -0.14211,0.0293 -0.06459,0.0284 -0.111965,0.0836 -0.04651,0.0551 -0.07407,0.14124 -0.0267,0.0853 -0.0267,0.19207 0,0.2179 0.101631,0.33589 0.10163,0.11714 0.256659,0.11714 0.06374,0 0.130914,-0.0267 -0.04048,-0.0302 -0.10163,-0.0603 -0.06029,-0.0301 -0.08268,-0.0465 -0.02239,-0.0164 -0.02239,-0.0465 0,-0.0258 0.02153,-0.0456 0.02153,-0.0198 0.04737,-0.0198 0.07838,0 0.262689,0.13091 z"
         style="font-size:1.76388919px"
         id="path3477"
         inkscape:connector-curvature="0" />
      <path
         d="m 87.414025,123.47891 0.449585,0 q 0.06718,0 0.102492,0.0276 0.03531,0.0276 0.03531,0.0749 0,0.0422 -0.02842,0.0715 -0.02756,0.0293 -0.08441,0.0293 l -0.633898,0 q -0.06459,0 -0.100769,-0.0353 -0.03617,-0.0362 -0.03617,-0.0844 0,-0.031 0.02325,-0.0818 0.02325,-0.0517 0.05082,-0.081 0.11455,-0.11886 0.206706,-0.20326 0.09216,-0.0853 0.131775,-0.11197 0.07062,-0.0499 0.117133,-0.0999 0.04737,-0.0508 0.07149,-0.10336 0.02498,-0.0534 0.02498,-0.10421 0,-0.0551 -0.0267,-0.0982 -0.02584,-0.0439 -0.07149,-0.068 -0.04479,-0.0241 -0.09819,-0.0241 -0.112827,0 -0.177423,0.099 -0.0086,0.0129 -0.02928,0.0706 -0.01981,0.0577 -0.04565,0.0887 -0.02498,0.031 -0.07407,0.031 -0.04306,0 -0.07149,-0.0284 -0.02842,-0.0284 -0.02842,-0.0775 0,-0.0594 0.0267,-0.12403 0.0267,-0.0646 0.07924,-0.11713 0.0534,-0.0525 0.134358,-0.0844 0.08182,-0.0327 0.191203,-0.0327 0.131775,0 0.224793,0.0413 0.06029,0.0276 0.105937,0.0758 0.04565,0.0482 0.07062,0.11197 0.02584,0.0629 0.02584,0.13091 0,0.1068 -0.0534,0.19465 -0.05254,0.087 -0.107659,0.13694 -0.05512,0.0491 -0.185174,0.15503 -0.129191,0.10594 -0.177422,0.1645 -0.02067,0.0233 -0.0422,0.056 z"
         style="font-size:1.76388919px"
         id="path3479"
         inkscape:connector-curvature="0" />
    </g>
  </g>
  <g
     inkscape:groupmode="layer"
     id="layer2"
     inkscape:label="SFONDO 1"
     style="display:inline" />
  <g
     inkscape:groupmode="layer"
     id="layer9"
     inkscape:label="NFH"
     style="display:inline">
    <g
       style="font-style:normal;font-weight:normal;font-size:11.28889084px;line-height:125%;font-family:sans-serif;letter-spacing:0px;word-spacing:0px;fill:#ececec;fill-opacity:0.94117647;stroke:none;stroke-width:1px;stroke-linecap:butt;stroke-linejoin:miter;stroke-opacity:1"
       id="text4228">
      <path
         d="m 42.46813,82.559623 0.491787,0.74414 0,-0.751031 q 0,-0.07321 0.03101,-0.109381 0.03187,-0.03704 0.08527,-0.03704 0.05512,0 0.08699,0.03704 0.03187,0.03617 0.03187,0.109381 l 0,0.993049 q 0,0.166226 -0.137804,0.166226 -0.03445,0 -0.06201,-0.01033 -0.02756,-0.0095 -0.05168,-0.03101 -0.02412,-0.02153 -0.04479,-0.04995 -0.02067,-0.02928 -0.04134,-0.05943 l -0.47973,-0.735528 0,0.739835 q 0,0.07235 -0.03359,0.109382 -0.03359,0.03703 -0.08613,0.03703 -0.05426,0 -0.08699,-0.03703 -0.03273,-0.0379 -0.03273,-0.109382 l 0,-0.974101 q 0,-0.06201 0.01378,-0.09732 0.01637,-0.03876 0.05426,-0.06287 0.0379,-0.02498 0.08182,-0.02498 0.03445,0 0.05857,0.0112 0.02498,0.0112 0.04306,0.03015 0.01895,0.01895 0.0379,0.04909 0.01981,0.03014 0.04048,0.06287 z"
         style="font-style:normal;font-variant:normal;font-weight:normal;font-stretch:normal;font-size:1.76388919px;font-family:'Arial Rounded MT Bold';-inkscape-font-specification:'Arial Rounded MT Bold, ';fill:#ececec;fill-opacity:0.94117647"
         id="path4235"
         inkscape:connector-curvature="0" />
      <path
         d="m 44.030481,82.406316 q 0.196371,0 0.336758,0.0801 0.141249,0.07924 0.213596,0.226515 0.07235,0.146417 0.07235,0.34451 0,0.146417 -0.03962,0.266134 -0.03962,0.119717 -0.118856,0.207567 -0.07924,0.08785 -0.194648,0.134359 -0.115411,0.04651 -0.264411,0.04651 -0.148139,0 -0.265273,-0.04737 -0.117133,-0.04823 -0.195509,-0.13522 -0.07838,-0.08699 -0.118856,-0.209289 -0.03962,-0.122301 -0.03962,-0.264411 0,-0.145556 0.04134,-0.266995 0.0422,-0.12144 0.121439,-0.206706 0.07924,-0.08527 0.192926,-0.130053 0.113688,-0.04565 0.258382,-0.04565 z m 0.363458,0.649401 q 0,-0.138666 -0.04479,-0.240296 -0.04479,-0.10163 -0.128329,-0.153307 -0.08268,-0.05254 -0.190342,-0.05254 -0.07665,0 -0.14211,0.02928 -0.0646,0.02842 -0.111966,0.08354 -0.04651,0.05512 -0.07407,0.141249 -0.0267,0.08527 -0.0267,0.192065 0,0.107659 0.0267,0.194647 0.02756,0.08699 0.07665,0.144694 0.04995,0.05684 0.113688,0.08527 0.0646,0.02842 0.141249,0.02842 0.09819,0 0.180006,-0.04909 0.08268,-0.04909 0.130914,-0.151584 0.04909,-0.102492 0.04909,-0.252353 z"
         style="font-style:normal;font-variant:normal;font-weight:normal;font-stretch:normal;font-size:1.76388919px;font-family:'Arial Rounded MT Bold';-inkscape-font-specification:'Arial Rounded MT Bold, ';fill:#ececec;fill-opacity:0.94117647"
         id="path4237"
         inkscape:connector-curvature="0" />
      <path
         d="m 45.628144,82.63886 -0.279052,0 0,0.917257 q 0,0.07924 -0.03531,0.117994 -0.03531,0.0379 -0.09129,0.0379 -0.05684,0 -0.09302,-0.03876 -0.03531,-0.03876 -0.03531,-0.117133 l 0,-0.917257 -0.279053,0 q -0.06546,0 -0.09732,-0.02842 -0.03187,-0.02928 -0.03187,-0.07665 0,-0.04909 0.03273,-0.07751 0.03359,-0.02842 0.09646,-0.02842 l 0.813042,0 q 0.06632,0 0.09819,0.02928 0.03273,0.02928 0.03273,0.07665 0,0.04737 -0.03273,0.07665 -0.03273,0.02842 -0.09819,0.02842 z"
         style="font-style:normal;font-variant:normal;font-weight:normal;font-stretch:normal;font-size:1.76388919px;font-family:'Arial Rounded MT Bold';-inkscape-font-specification:'Arial Rounded MT Bold, ';fill:#ececec;fill-opacity:0.94117647"
         id="path4239"
         inkscape:connector-curvature="0" />
      <path
         d="m 46.941587,83.291706 q 0,0.06029 -0.03014,0.130913 -0.02928,0.06976 -0.09302,0.137804 -0.06373,0.06718 -0.162781,0.109382 -0.09905,0.0422 -0.230821,0.0422 -0.09991,0 -0.181729,-0.01895 -0.08182,-0.01895 -0.149,-0.05857 -0.06632,-0.04048 -0.122301,-0.105937 -0.04995,-0.05943 -0.08527,-0.132636 -0.03531,-0.07407 -0.0534,-0.157613 -0.01723,-0.08354 -0.01723,-0.177423 0,-0.152445 0.04393,-0.273024 0.04479,-0.120578 0.127469,-0.205844 0.08268,-0.08613 0.193786,-0.130914 0.111105,-0.04479 0.236851,-0.04479 0.153306,0 0.273023,0.06115 0.119718,0.06115 0.183452,0.151585 0.06373,0.08957 0.06373,0.169671 0,0.04392 -0.03101,0.07751 -0.03101,0.03359 -0.07493,0.03359 -0.04909,0 -0.07407,-0.02325 -0.02412,-0.02325 -0.05426,-0.0801 -0.04995,-0.09388 -0.117995,-0.140388 -0.06718,-0.04651 -0.166226,-0.04651 -0.157613,0 -0.251492,0.119717 -0.09302,0.119717 -0.09302,0.340203 0,0.147278 0.04134,0.245463 0.04134,0.09732 0.117133,0.145555 0.07579,0.04823 0.177422,0.04823 0.110244,0 0.186036,-0.05426 0.07665,-0.05512 0.11541,-0.161058 0.01637,-0.04995 0.04048,-0.08096 0.02412,-0.03187 0.07751,-0.03187 0.04565,0 0.07838,0.03187 0.03273,0.03187 0.03273,0.07924 z"
         style="font-style:normal;font-variant:normal;font-weight:normal;font-stretch:normal;font-size:1.76388919px;font-family:'Arial Rounded MT Bold';-inkscape-font-specification:'Arial Rounded MT Bold, ';fill:#ececec;fill-opacity:0.94117647"
         id="path4241"
         inkscape:connector-curvature="0" />
      <path
         d="m 47.429068,82.561345 0,0.361735 0.552077,0 0,-0.361735 q 0,-0.07751 0.03445,-0.116272 0.03531,-0.03876 0.09216,-0.03876 0.05771,0 0.09302,0.03876 0.03617,0.0379 0.03617,0.116272 l 0,0.994772 q 0,0.07838 -0.03617,0.117133 -0.03617,0.03876 -0.09302,0.03876 -0.0577,0 -0.09216,-0.03876 -0.03445,-0.03962 -0.03445,-0.117133 l 0,-0.424608 -0.552077,0 0,0.424608 q 0,0.07838 -0.03617,0.117133 -0.03617,0.03876 -0.09302,0.03876 -0.05771,0 -0.09216,-0.03876 -0.03445,-0.03962 -0.03445,-0.117133 l 0,-0.994772 q 0,-0.07751 0.03359,-0.116272 0.03445,-0.03876 0.09302,-0.03876 0.0577,0 0.09302,0.03876 0.03617,0.0379 0.03617,0.116272 z"
         style="font-style:normal;font-variant:normal;font-weight:normal;font-stretch:normal;font-size:1.76388919px;font-family:'Arial Rounded MT Bold';-inkscape-font-specification:'Arial Rounded MT Bold, ';fill:#ececec;fill-opacity:0.94117647"
         id="path4243"
         inkscape:connector-curvature="0" />
    </g>
  </g>
  <g
     inkscape:groupmode="layer"
     id="layer6"
     inkscape:label="LOGO"
     style="display:inline">
    <g
       transform="translate(-41.933578,-57.7366)"
       style="font-style:normal;font-weight:normal;font-size:11.28888893px;line-height:125%;font-family:sans-serif;letter-spacing:0px;word-spacing:0px;display:inline;opacity:1;fill:#000000;fill-opacity:1;stroke:none;stroke-width:1px;stroke-linecap:butt;stroke-linejoin:miter;stroke-opacity:1"
       id="text3433">
      <path
         inkscape:connector-curvature="0"
         d="m 66.316772,151.70085 q 0.0069,0.0138 0.02067,0.0482 0.0069,0.0207 0.0069,0.0345 0,0.0344 -0.03445,0.0551 -0.02067,0.007 -0.03445,0.007 -0.02756,0 -0.04823,-0.0344 -0.01378,-0.0345 -0.02067,-0.0413 0.04134,-0.0276 0.110244,-0.0689 0.06201,0.0965 0.09646,0.17914 0.130914,0.28939 0.130914,0.54433 0,0.21359 -0.09646,0.40652 -0.206706,0.40652 -0.682129,0.54432 -0.213596,0.062 -0.413411,0.062 -0.241157,0 -0.461643,-0.0896 -0.406521,-0.17225 -0.516764,-0.58566 -0.03445,-0.12403 -0.03445,-0.24116 0,-0.31006 0.220486,-0.60634 0.241157,-0.34451 0.689019,-0.58566 0.3514,-0.19293 1.005968,-0.38585 0.310058,-0.0896 0.606337,-0.15848 0.413411,-0.10335 0.599446,-0.11713 0.07579,-0.007 0.172255,-0.007 0.192925,0 0.447862,0.0207 0.502984,0.0413 0.564996,0.0551 0.496094,0.0827 0.923286,0.4203 0.440972,0.34451 0.661458,0.77859 0.234266,0.47543 0.282498,0.9853 0.01378,0.1378 0.01378,0.3514 0,0.31006 -0.02756,0.79237 -0.0069,0.0965 -0.01378,0.2825 0,0.19293 -0.0069,0.2825 -0.02756,0.54432 -0.02756,0.62011 0,0.29628 0.0689,0.59256 0.06201,0.26872 0.151584,0.37896 0.151584,0.17226 0.413412,0.2136 l 0.05512,0 q 0.124024,0 0.434082,-0.0345 l 0.01378,0 q 0.04823,0 0.04823,0.0551 0,0.0689 -0.06201,0.0758 -0.316949,0.0345 -0.413411,0.0345 l -0.02067,0 q -0.220486,-0.0138 -0.392741,-0.11713 -0.254937,-0.15159 -0.3514,-0.57189 -0.0689,-0.2825 -0.07579,-0.50987 l 0,-0.11025 q 0,-0.16536 0.01378,-0.39963 0.01378,-0.18603 0.02756,-0.4892 0.01378,-0.35829 0.02067,-0.48231 0.01378,-0.29628 0.01378,-0.53744 0,-0.37896 -0.03445,-0.60633 -0.08957,-0.53055 -0.365181,-0.95085 -0.289388,-0.44097 -0.764811,-0.70969 -0.234266,-0.13091 -0.475423,-0.19293 -0.130914,-0.0344 -0.558105,-0.062 -0.372071,-0.0345 -0.558106,-0.0345 l -0.05512,0 q -0.248047,0.007 -0.620118,0.0965 -0.757921,0.18604 -1.185112,0.34451 -0.544325,0.19982 -0.854384,0.47543 -0.434082,0.37896 -0.454753,0.7717 l 0,0.0482 q 0,0.41341 0.33073,0.62701 0.241156,0.15847 0.544325,0.15847 0.151584,0 0.316948,-0.0413 0.530545,-0.13091 0.69591,-0.54433 0.06201,-0.15847 0.06201,-0.31694 0,-0.31006 -0.213596,-0.64079 -0.01378,-0.0207 -0.01378,-0.0413 0,-0.0276 0.03445,-0.0413 0.02067,-0.0138 0.04134,-0.0138 0.02756,0 0.04823,0.0276 z m 0.861273,-0.20671 q -0.420301,0.0207 -0.950846,0.33073 -0.01378,0.007 -0.02756,0.007 -0.03445,0 -0.05512,-0.0344 -0.01378,-0.0207 -0.01378,-0.0413 0,-0.0276 0.03445,-0.0413 0.558106,-0.33073 0.992188,-0.3514 l 0.04823,0 q 0.475423,0 0.744141,0.36518 0.220486,0.29628 0.254937,0.77859 0.0069,0.0689 0.0069,0.13091 0,0.19293 -0.03445,0.33073 -0.06201,0.2825 -0.206706,0.41341 -0.124023,0.11025 -0.392741,0.1447 -0.206705,0.0276 -0.468533,0.0965 -0.868164,0.22049 -1.150661,0.3514 -0.792372,0.36518 -0.909506,0.44097 -0.37207,0.23427 -0.654568,0.75103 -0.206705,0.38585 -0.206705,0.79926 0,0.0758 0.0069,0.15848 0.04823,0.49609 0.37207,0.86816 0.172255,0.19293 0.35829,0.2825 0.227376,0.11713 0.516764,0.2136 0.482314,0.15847 0.861274,0.15847 0.124024,0 0.234267,-0.0138 0.282497,-0.0413 0.509874,-0.1378 0.206705,-0.0827 0.454752,-0.27561 0.282498,-0.20671 0.454753,-0.31695 0.268717,-0.15847 0.330729,-0.31006 0.01378,-0.0345 0.04134,-0.0345 0.02067,0 0.04134,0.0138 0.04134,0.0207 0.04134,0.062 0,0.0138 -0.0069,0.0276 -0.07579,0.17226 -0.36518,0.34451 -0.165364,0.10336 -0.489203,0.34451 -0.261828,0.19293 -0.509874,0.28939 -0.261828,0.0965 -0.551216,0.12402 -0.103353,0.0138 -0.206705,0.0138 -0.399631,0 -0.875055,-0.16536 -0.633897,-0.2136 -0.881944,-0.47542 -0.337619,-0.35829 -0.434082,-0.8475 -0.03445,-0.17914 -0.03445,-0.35829 0,-0.30316 0.110243,-0.59255 0.08957,-0.22049 0.234267,-0.42719 0.186035,-0.2825 0.310058,-0.39964 0.241157,-0.22737 0.840603,-0.4892 0.05512,-0.0276 0.248047,-0.11713 0.151584,-0.0689 0.241157,-0.11025 0.248047,-0.0965 0.571886,-0.17914 0.08957,-0.0276 0.289388,-0.0758 0.192925,-0.0482 0.289388,-0.0758 0.08268,-0.0207 0.220486,-0.0413 0.179145,-0.0276 0.220486,-0.0345 0.144694,-0.0276 0.206706,-0.0689 0.07579,-0.0551 0.137804,-0.16536 0.103352,-0.19982 0.103352,-0.47543 -0.0069,-0.50987 -0.186035,-0.80615 -0.234266,-0.37896 -0.668348,-0.37896 l -0.04823,0 z m 1.226454,5.33301 q -0.08268,-0.1447 -0.117133,-0.17915 -0.02067,-0.0207 -0.02067,-0.0413 0,-0.0207 0.02756,-0.0482 0.02067,-0.0276 0.04134,-0.0276 0.02756,0 0.04823,0.0276 0.04823,0.0551 0.124023,0.18604 0.0689,0.13091 0.124024,0.18603 0.151584,0.15848 0.351399,0.25494 0.35829,0.18603 0.875055,0.21359 l 0.144694,0 q 0.413411,0 0.819932,-0.0965 0.310059,-0.0758 0.468533,-0.16536 0.261828,-0.13781 0.378961,-0.1447 0.06201,0 0.06201,0.062 0,0.0689 -0.06201,0.0689 l -0.392741,0.16536 q -0.213596,0.0965 -0.516764,0.15848 -0.372071,0.0827 -0.737251,0.0827 -0.117133,0 -0.227376,-0.007 -0.544325,-0.0413 -0.902615,-0.23427 -0.213596,-0.11713 -0.3514,-0.26872 -0.08957,-0.0896 -0.137804,-0.19292 z m 3.190159,-0.0827 q -0.103353,-0.29628 -0.110243,-0.35829 l 0,-0.0138 q 0,-0.0482 0.06201,-0.0482 0.06201,0 0.0689,0.062 0,0.0138 0.0069,0.0276 0.0069,0.0207 0.01378,0.0345 0.0069,0.0413 0.02756,0.10335 0.05512,0.17226 0.07579,0.23427 0.05512,0.17914 0.05512,0.2756 0,0.0551 -0.02067,0.0827 -0.02067,0.0276 -0.04823,0.0276 -0.02067,0 -0.04134,-0.0207 -0.02756,-0.0276 -0.02756,-0.0482 0,-0.0276 0.02067,-0.0482 -0.0069,0.007 -0.0069,0.0138 l 0,-0.0345 q 0,-0.0276 -0.01378,-0.0758 -0.02067,-0.0758 -0.06201,-0.21359 z m -3.527778,-2.61828 q -0.03445,-0.0276 -0.03445,-0.0551 0,-0.0207 0.01378,-0.0413 0.02067,-0.0344 0.04823,-0.0344 0.01378,0 0.03445,0.0138 0.04134,0.0344 0.04823,0.14469 0.0069,0.0413 0.0069,0.10336 0,0.0551 -0.0069,0.1378 0,0.17226 -0.02067,0.59256 -0.0069,0.15847 -0.0069,0.18603 l -0.04823,0.53744 q -0.04134,0.41341 -0.04823,0.57877 0,0.062 -0.06201,0.062 -0.0689,0 -0.0689,-0.062 0.0069,-0.22048 0.05512,-0.63389 0.04134,-0.4272 0.04823,-0.6339 0.02067,-0.52366 0.02067,-0.565 0.0069,-0.0827 0.0069,-0.14469 0,-0.062 -0.0069,-0.10335 l 0,-0.10336 0.02067,0.0207 z m -0.537435,0.23427 q 0.330729,-0.15158 0.502984,-0.26183 0.02067,-0.0138 0.04134,-0.0138 0.02756,0 0.04134,0.0345 0.01378,0.0207 0.01378,0.0413 0,0.0276 -0.02756,0.0482 -0.158474,0.0965 -0.35829,0.19292 -0.751031,0.35829 -0.937066,0.54433 -0.399631,0.38585 -0.399631,0.81993 l 0,0.0551 q 0.01378,0.26872 0.165365,0.41341 0.158474,0.1447 0.37896,0.18604 0.103353,0.0207 0.206706,0.0207 0.137804,0 0.275607,-0.0413 0.05512,-0.0207 0.482314,-0.22049 0.01378,-0.007 0.02756,-0.007 0.03445,0 0.06201,0.0413 0.01378,0.0207 0.01378,0.0344 0,0.0276 -0.04134,0.0482 -0.599447,0.27561 -0.826823,0.27561 -0.502984,0 -0.744141,-0.33762 -0.144694,-0.19981 -0.144694,-0.44097 0,-0.2136 0.110243,-0.46164 0.199816,-0.44787 0.647678,-0.71658 0.144694,-0.0896 0.509874,-0.25494 z m -2.88699,2.41157 q 0.475423,0.50298 0.599447,0.72347 l 0,0.007 q 0,0.0138 -0.0069,0.0207 l -0.02756,0 q -0.08268,-0.0827 -0.192926,-0.22049 -0.151584,-0.19981 -0.179144,-0.23426 -0.241157,-0.2825 -0.35829,-0.39275 -0.01378,-0.007 -0.06201,-0.0482 -0.04823,-0.0413 -0.08268,-0.0689 -0.08268,-0.0827 -0.08268,-0.13091 l 0,-0.0138 q 0.0069,-0.0138 0.02067,-0.0138 l 0.02756,0 q 0.01378,0.007 0.01378,0.0138 0,0.007 -0.01378,0.0138 0,0.007 0.0069,0.0138 0.02067,0.0207 0.03445,0.0344 0.04823,0.0482 0.08957,0.0827 0.130914,0.12402 0.213596,0.2136 z m 1.212674,0.86816 q 0.01378,0.007 0.01378,0.0207 0,0.0138 -0.01378,0.0276 -0.0069,0.007 -0.02067,0.007 -0.0069,0 -0.02067,-0.007 -0.585667,-0.57877 -0.937066,-1.04731 -0.130914,-0.17914 -0.406522,-0.4892 -0.241156,-0.26872 -0.296278,-0.37207 l 0,-0.0276 0.0069,0 q 0.0069,0 0.01378,0.007 1.660536,1.87413 1.660536,1.88102 z m -1.557183,-2.26687 q 1.295356,1.13688 2.246202,2.21175 0.01378,0.0138 0.01378,0.0276 0,0.007 -0.01378,0.0207 -0.01378,0.0138 -0.02756,0.0138 -0.0069,0 -0.02067,-0.0138 -0.461643,-0.50987 -2.211752,-2.23931 -0.0069,-0.007 -0.0069,-0.0138 0,-0.007 0.0069,-0.007 l 0.0069,-0.007 q 0.0069,0 0.0069,0.007 z m 1.750108,1.15066 q 0.530545,0.62701 0.916395,1.11621 0.01378,0.0138 0.01378,0.0276 0,0.007 -0.01378,0.0207 -0.01378,0.0138 -0.02756,0.0138 -0.0069,0 -0.02067,-0.0138 -1.178222,-1.46072 -1.619195,-1.86724 -0.447862,-0.4203 -0.620117,-0.62701 -0.199815,-0.24115 -0.199815,-0.34451 0,-0.0207 0.0069,-0.0344 0.0069,-0.007 0.01378,-0.007 l 0.0069,0 q 0.01378,0.007 0.01378,0.0138 l 0,0.0207 q 0,0.0689 0.08957,0.18604 0.09646,0.12402 0.261827,0.28939 0.172255,0.18603 0.585667,0.56499 0.220486,0.20671 0.592556,0.64079 z m -0.03445,-0.61323 q 0.751031,0.65457 1.274685,1.54341 0.0069,0.007 0.0069,0.0207 0,0.0138 -0.02067,0.0276 -0.0069,0.007 -0.02067,0.007 -0.01378,0 -0.02756,-0.0207 -0.544325,-0.9164 -1.364258,-1.6192 -1.005968,-0.86816 -1.185113,-1.29535 l -0.0069,0 0,-0.0138 q 0,-0.0138 0.01378,-0.0207 l 0.01378,0 q 0.0069,0 0.01378,0.007 l 0.0069,0 0,0.007 q 0.0069,0.007 0.0069,0.0138 0.03445,0.062 0.08268,0.10335 0.0069,0.007 0.0069,0.0138 -0.0069,0.007 -0.02067,0.007 0.179145,0.30317 1.219564,1.21956 z m 0.999078,0.52366 q 0.399631,0.35829 0.564995,0.68902 l 0,0.0138 q 0,0.0138 -0.0069,0.0207 -0.0069,0.007 -0.02067,0.007 -0.0069,0 -0.01378,-0.007 -0.06201,-0.0689 -0.144694,-0.18604 -0.110243,-0.15158 -0.144694,-0.18603 -0.04823,-0.0551 -0.268717,-0.31695 -0.0069,-0.007 -0.0069,-0.0138 0,-0.0138 0.0069,-0.0207 0.0069,-0.007 0.01378,-0.007 0.01378,0 0.02067,0.007 z m 0.868164,0.37207 q 0.110243,0.11713 0.117133,0.12402 0.0069,0.007 0.0069,0.0138 0,0.007 -0.0069,0.0138 -0.0069,0.007 -0.02067,0.007 l -0.0069,0 q -0.04823,-0.007 -0.234266,-0.2067 -0.186035,-0.20671 -0.186035,-0.22049 l -0.02067,0 q -0.0069,-0.007 -0.0069,-0.0138 l 0,-0.007 q 0.0069,-0.0138 0.02067,-0.0138 0.04134,0 0.165365,0.12402 0.02756,0.0276 0.08268,0.0896 0.05512,0.0551 0.08957,0.0896 z m 0.213596,-0.4203 q 0.04823,0.0551 0.234266,0.2067 0.01378,0.007 0.01378,0.0207 0,0.007 -0.0069,0.0138 -0.0069,0.0138 -0.02756,0.0138 l -0.0069,0 q -0.110243,-0.0276 -0.241156,-0.18603 -0.151584,-0.19293 -0.192926,-0.25494 l 0,-0.007 q 0,-0.0138 0.0069,-0.0207 0.0069,-0.007 0.01378,-0.007 0.0069,0 0.01378,0.007 0.02756,0.0207 0.192926,0.2136 z m -2.067057,-0.9164 q 0.220486,0.17915 0.248046,0.22049 l 0,0.007 q 0,0.007 -0.0069,0.0138 -0.0069,0.007 -0.01378,0.007 l -0.0069,0 q -0.04823,-0.0207 -0.34451,-0.26872 -0.282498,-0.22049 -0.434082,-0.37207 -0.241157,-0.22049 -0.337619,-0.3514 -0.110243,-0.14469 -0.110243,-0.22738 0,-0.0207 0.0069,-0.0344 0.0069,-0.007 0.01378,-0.007 0.01378,0 0.02067,0.007 0.09646,0.27561 0.564995,0.67524 0.144694,0.12403 0.399632,0.33073 z m -0.613227,-1.34359 q 0.05512,0.10336 1.08865,1.18512 0.01378,0.0138 0.01378,0.0207 0,0.0138 -0.0069,0.0207 -0.0069,0.007 -0.02067,0.007 -0.01378,0 -0.02756,-0.007 -0.378961,-0.31695 -0.661459,-0.61323 -0.399631,-0.40652 -0.420301,-0.60634 0,-0.007 0.01378,-0.0138 0.01378,0 0.02067,0.007 z m 0.778591,0.33073 q 0.303169,0.27561 0.385851,0.45476 l 0,0.0138 q 0,0.0138 -0.01378,0.0207 -0.0069,0.007 -0.01378,0.007 -0.0069,0 -0.02067,-0.0138 -0.220486,-0.29628 -0.454752,-0.50299 -0.261827,-0.24115 -0.330729,-0.32384 l -0.0069,0 q -0.02756,-0.0276 -0.04134,-0.0551 -0.0069,-0.007 -0.0069,-0.0138 0,-0.007 0.0069,-0.007 0.01378,-0.007 0.02067,-0.007 0.0069,0 0.0069,0.007 0.07579,0.0689 0.234267,0.20671 0.158474,0.1378 0.234266,0.21359 z m 0.482313,0.0344 q 0.151585,0.17226 0.165365,0.2136 0.0069,0.007 0.0069,0.0138 0,0.0138 -0.01378,0.0207 -0.0069,0.007 -0.01378,0.007 -0.0069,0 -0.02067,-0.0138 l -0.392741,-0.45475 q -0.144694,-0.16537 -0.248047,-0.26872 l -0.124023,-0.1378 -0.0069,0 q -0.0069,0 -0.01378,-0.007 l 0,-0.0138 q 0,-0.007 0.0069,-0.007 0.0069,-0.007 0.02067,-0.007 0.05512,0 0.172255,0.12402 0.04134,0.0482 0.103353,0.11713 l 0.06201,0.0758 q 0.158475,0.17226 0.296278,0.33762 z m 0.282498,-0.36518 q 0.227377,0.22049 0.372071,0.35829 0.0069,0.007 0.0069,0.0207 0,0.007 -0.0069,0.0138 -0.0069,0.0138 -0.02067,0.0138 -0.0069,0 -0.01378,-0.007 -0.310059,-0.21359 -0.737251,-0.72347 -0.0069,-0.0138 -0.0069,-0.0207 0,-0.007 0.0069,-0.0138 0.0069,-0.007 0.01378,-0.007 0.0069,0 0.01378,0.007 0.0689,0.0689 0.37207,0.35829 z m 0.323839,-0.13091 q 0.310059,0.2825 0.310059,0.28939 0.0069,0 0.0069,0.007 0,0.007 -0.0069,0.0138 -0.0069,0.0138 -0.01378,0.0138 -0.0069,0 -0.01378,-0.007 -0.130914,-0.0827 -0.3514,-0.30317 -0.206705,-0.20671 -0.268717,-0.3514 -0.0069,-0.007 -0.0069,-0.0138 0,-0.007 0.01378,-0.0138 0.0069,-0.007 0.01378,-0.007 0.0069,0 0.01378,0.0138 0.09646,0.16536 0.303168,0.35829 z m 0.461643,-0.14469 q 0.172255,0.1378 0.220486,0.2067 l 0,0.007 q 0,0.0138 -0.0069,0.0207 -0.0069,0.007 -0.01378,0.007 -0.0069,0 -0.01378,-0.007 -0.07579,-0.0482 -0.454752,-0.37207 -0.08268,-0.062 -0.151585,-0.17225 l 0,-0.007 q 0,-0.0138 0.0069,-0.0207 l 0.0069,-0.007 q 0.0069,0 0.01378,0.007 0.02756,0.0207 0.08268,0.0827 0.04823,0.0551 0.08268,0.0758 0.0069,0 0.227376,0.17915 z m 0.930176,2.67339 q 0.04823,0.0482 0.74414,0.85438 0.01378,0.007 0.01378,0.0207 0,0.0138 -0.01378,0.0276 -0.0069,0.007 -0.02067,0.007 -0.0069,0 -0.02067,-0.007 -0.72347,-0.84061 -0.785482,-0.89573 -0.544325,-0.50298 -0.613226,-0.66146 -0.0069,-0.007 -0.0069,-0.0138 0,-0.0138 0.01378,-0.0207 l 0.01378,0 q 0.0069,0 0.01378,0.007 0.04134,0.0758 0.661459,0.68213 z m 0.496094,-0.14469 q 0.682128,0.60633 0.957736,1.02663 0.0069,0.007 0.0069,0.0138 0,0.0138 -0.01378,0.0207 -0.01378,0.007 -0.02067,0.007 -0.01378,0 -0.02756,-0.0138 -0.392741,-0.51677 -0.985298,-1.04042 -0.847493,-0.75792 -1.019748,-0.96463 l 0,-0.0207 q 0.0069,-0.007 0.01378,-0.007 0.0069,0 0.01378,0.007 0.248047,0.22738 1.07487,0.97152 z m 0.654568,0.22048 q 0.454752,0.48232 0.72347,0.81304 0.0069,0.0138 0.0069,0.0207 0,0.0138 -0.01378,0.0276 -0.0069,0.007 -0.02067,0.007 -0.0069,0 -0.02067,-0.007 -0.434082,-0.52366 -1.378038,-1.51585 -0.248047,-0.25493 -0.682129,-0.61322 -0.04823,-0.0413 -0.199815,-0.18604 -0.124024,-0.11024 -0.124024,-0.13091 0,0.007 -0.01378,0.0138 -0.01378,0 -0.01378,-0.007 -0.0069,-0.0138 -0.0069,-0.0207 0,-0.0138 0.01378,-0.0207 l 0.0069,0 q 0.05512,0 0.158474,0.0965 0.02756,0.0276 0.07579,0.0827 0.04823,0.0482 0.06201,0.062 0.06201,0.0482 0.323839,0.26872 0.199816,0.16537 0.316949,0.2825 0.02067,0.0207 0.785482,0.82682 z m -0.275608,-0.9095 q 1.129991,1.07487 1.467611,1.46072 0.01378,0.007 0.01378,0.0207 0,0.0138 -0.01378,0.0276 -0.0069,0.007 -0.02067,0.007 -0.0069,0 -0.02067,-0.007 -1.040418,-1.0542 -1.46761,-1.46072 -0.999078,-0.95085 -1.474501,-1.46761 -0.0069,-0.007 -0.0069,-0.0138 0,-0.007 0.0069,-0.0138 0.0069,-0.007 0.01378,-0.007 0.0069,0 0.01378,0.007 0.475423,0.4892 1.488281,1.44694 z m 1.626085,1.12999 q 0.144694,0.15158 0.248047,0.24115 0.01378,0.007 0.01378,0.0207 0,0.007 -0.01378,0.0207 -0.01378,0.0138 -0.02756,0.0138 -0.0069,0 -0.02067,-0.007 -0.186036,-0.15848 -0.606337,-0.64079 -0.0069,-0.007 -0.0069,-0.0138 0,-0.0138 0.0069,-0.0207 0.0069,-0.007 0.01378,-0.007 0.01378,0 0.02067,0.007 l 0.06201,0.062 q -0.01378,-0.007 0.103353,0.0482 0.0069,0.007 0.0069,0.0207 -0.0069,0.007 -0.02067,0.007 -0.0069,-0.007 -0.02067,-0.007 0.03445,0.0276 0.241157,0.25494 z m 0.385851,-0.0896 q 0,0.0138 -0.0069,0.0207 -0.0069,0.007 -0.01378,0.007 -0.0069,0 -0.01378,-0.007 -0.07579,-0.0551 -0.289388,-0.33762 -0.0069,-0.007 -0.0069,-0.0138 0,-0.0138 0.01378,-0.0207 0.0069,-0.007 0.01378,-0.007 0.01378,0 0.02067,0.0138 0.0069,0.007 0.144694,0.17225 0.130914,0.16537 0.137804,0.16537 l 0,0.007 z m -1.846571,-1.46072 q 0.413411,0.36518 0.606336,0.627 0.0069,0.007 0.0069,0.0138 0,0.0138 -0.01378,0.0207 -0.01378,0.007 -0.02067,0.007 -0.01378,0 -0.02067,-0.007 -0.206706,-0.26182 -0.647678,-0.64767 -0.248047,-0.22738 -0.620117,-0.61323 -0.172255,-0.19293 -0.627007,-0.59945 -0.420302,-0.37207 -0.627008,-0.60633 l 0,-0.007 q 0,-0.0138 0.0069,-0.0207 l 0.0069,-0.007 q 0.0069,0 0.01378,0.007 0.165365,0.16537 0.661458,0.60634 0.420302,0.37207 0.647678,0.62701 0.151584,0.17225 0.627008,0.59945 z m -0.165365,-0.565 q 0.427192,0.50987 0.73036,0.77859 0.01378,0.0138 0.01378,0.0207 0,0.0138 -0.0069,0.0207 -0.01378,0.0138 -0.02756,0.0138 -0.01378,0 -0.02067,-0.007 -0.254937,-0.21359 -0.689019,-0.73036 -0.427192,-0.50987 -0.689019,-0.72347 -0.482313,-0.40652 -0.585666,-0.50298 -0.261828,-0.24805 -0.261828,-0.34451 l 0,-0.007 q 0,-0.0138 0.01378,-0.0138 l 0.0069,0 q 0.0069,0 0.01378,0.007 0.02756,0.11713 0.372071,0.41341 0.09646,0.0758 0.282498,0.22738 0.192925,0.15847 0.282497,0.23426 0.165365,0.1447 0.564996,0.61323 z m -0.37207,-0.88883 q 0.38585,0.37207 1.143771,1.20578 0.0069,0.0138 0.0069,0.0207 0,0.0207 -0.01378,0.0345 -0.0069,0.007 -0.02067,0.007 -0.0069,0 -0.02067,-0.007 -1.033529,-1.10932 -1.178223,-1.25401 -0.950846,-0.86817 -1.074869,-1.04731 -0.0069,-0.007 -0.0069,-0.0138 0,-0.007 0.0069,-0.007 l 0.0069,0 q 0.0069,0 0.01378,0.007 0.186035,0.24804 0.544325,0.55121 0.530545,0.44097 0.592557,0.50299 z m 1.09554,0.52365 q 0.117133,0.0207 0.179145,0.0965 0.0069,0.007 0.0069,0.0138 0,0.007 -0.0069,0.0138 -0.0069,0.0138 -0.01378,0.0138 l -0.0069,0 -0.124023,-0.0758 -0.02067,-0.007 0,0.007 q 0,0.0207 -0.02067,0.0276 l -0.0069,0 q -0.02067,0 -0.02756,-0.0207 -0.103353,-0.26183 -0.420302,-0.54432 -0.07579,-0.062 -0.268717,-0.22738 -0.172255,-0.1378 -0.261827,-0.22049 -1.033529,-0.98529 -1.267796,-1.26779 -0.0069,-0.007 -0.0069,-0.0138 0,-0.007 0.0069,-0.0138 0.01378,-0.0138 0.02067,-0.0138 0.0069,0 0.01378,0.0138 0.261828,0.29628 0.689019,0.68902 0.08268,0.0689 0.323839,0.30317 0.199816,0.19292 0.323839,0.30316 0.592557,0.51677 0.558106,0.48232 0.261827,0.25493 0.330729,0.44097 z M 69.4587,152.74117 q 0.261827,0.33072 0.38585,0.45475 -0.0069,0 0.33762,0.28939 0.206705,0.17225 0.261827,0.34451 0.0069,0.007 0.0069,0.0138 0,0.0138 -0.02067,0.0207 -0.01378,0.007 -0.02067,0.007 -0.01378,0 -0.02067,-0.0138 -0.08957,-0.17915 -0.330729,-0.38585 -0.303168,-0.26183 -0.37207,-0.34451 -0.627008,-0.75792 -0.744141,-0.86817 l -1.564073,-1.42627 q -0.0069,0 -0.0069,-0.007 -0.0069,0 -0.0069,-0.0138 l -0.05512,-0.0758 0,-0.0138 q 0.0069,-0.0138 0.02067,-0.0138 l 0.01378,0 q 0.01378,0.007 0.02067,0.0207 l 0.0069,0.0207 q 0.36518,0.4203 0.799262,0.78548 0.785482,0.64768 0.895725,0.75103 0.158474,0.15159 0.392741,0.45476 z m -0.310059,-0.83372 q 0.902615,0.87506 1.226454,1.38493 0.0069,0.007 0.0069,0.0207 0,0.0138 -0.02067,0.0207 -0.01378,0.007 -0.02067,0.007 -0.01378,0 -0.02067,-0.0138 -0.544325,-0.7717 -1.295355,-1.44694 -0.110244,-0.10335 -0.316949,-0.26872 -0.241157,-0.19292 -0.323839,-0.26182 -0.372071,-0.31695 -0.544325,-0.60634 l 0,-0.007 q 0,-0.0138 0.0069,-0.0207 l 0.0069,0 q 0.0069,0 0.01378,0.007 0.206706,0.26872 0.613227,0.61323 0.564996,0.46853 0.668349,0.57188 z m 0.310059,-0.14469 q 0.771701,0.81304 0.854383,0.87505 0.01378,0.0138 0.01378,0.0276 0,0.007 -0.0069,0.0138 -0.01378,0.0207 -0.02756,0.0207 -0.0069,0 -0.01378,-0.007 -0.03445,-0.0276 -0.868164,-0.88883 -0.248047,-0.25494 -1.08176,-0.97152 -0.0069,-0.007 -0.0069,-0.0138 0,-0.007 0.0069,-0.0138 0.0069,-0.007 0.01378,-0.007 0.0069,0 0.01378,0.007 0.854384,0.69591 1.102431,0.95774 z m 0.144694,-0.2825 q 0.447862,0.37207 0.592556,0.57189 l 0,0.0138 q 0,0.0138 -0.0069,0.0207 -0.0069,0.007 -0.02067,0.007 -0.0069,0 -0.01378,-0.007 -0.413412,-0.41341 -0.592557,-0.55811 -0.585666,-0.4892 -0.620117,-0.51676 l 0,-0.0276 q 0.0069,-0.0138 0.01378,-0.0138 0.0069,0 0.01378,0.007 0.296278,0.22048 0.633898,0.50298 z m -2.446018,-0.24805 q 0.05512,0.062 0.08268,0.0965 0.0069,0.007 0.0069,0.0138 0,0.007 -0.0069,0.0207 -0.0069,0.0138 -0.02067,0.0138 -0.0069,0 -0.01378,-0.007 -0.06201,-0.0413 -0.179145,-0.18604 -0.02756,-0.0344 -0.172255,-0.2067 -0.0069,-0.0138 -0.0069,-0.0207 0,-0.007 0.0069,-0.0138 0.0069,-0.0138 0.01378,-0.0138 0.01378,0 0.02067,0.0138 0.04823,0.0413 0.179145,0.19292 0.02756,0.0344 0.08957,0.0965 z m -0.303169,0.2136 q 0,0.0138 -0.0069,0.0207 l -0.02067,0 q -0.103353,-0.0482 -0.234267,-0.20671 -0.09646,-0.11024 -0.144694,-0.22737 l 0,-0.007 q 0,-0.007 0.01378,-0.0138 l 0.0069,0 q 0.0069,0 0.01378,0.007 0.06201,0.13091 0.179145,0.24115 0.186035,0.17915 0.192925,0.17915 l 0,0.007 z m -0.475423,0.007 q 0.110243,0.0965 0.124024,0.13091 l 0,0.007 q 0,0.007 -0.0069,0.0138 -0.0069,0.007 -0.01378,0.007 l -0.0069,0 q -0.02067,-0.0138 -0.137804,-0.11713 -0.08268,-0.0758 -0.172255,-0.15847 -0.117133,-0.0965 -0.158474,-0.13781 -0.08268,-0.0758 -0.08957,-0.0758 -0.01378,-0.007 -0.01378,-0.0207 l 0,-0.007 q 0.0069,-0.0138 0.02067,-0.0138 l 0.0069,0 q 0.04134,0.0138 0.254937,0.19981 0.103353,0.0827 0.192925,0.17226 z m -0.399631,0.17225 q 0.151584,0.13092 0.34451,0.2825 0.0069,0.007 0.0069,0.0138 0,0.007 -0.0069,0.0138 -0.0069,0.007 -0.01378,0.007 l -0.01378,0 q -0.144694,-0.062 -0.475423,-0.38585 -0.186035,-0.17914 -0.186035,-0.23426 0,-0.0207 0.02067,-0.0276 0.01378,0 0.02067,0.0138 0,0.007 -0.0069,0.0138 l 0,0.007 q 0,0.0276 0.310058,0.29627 z m 0.03445,0.46165 q 0.440972,0.35829 0.516764,0.50987 l 0,0.007 q 0,0.0207 -0.01378,0.0344 -0.0069,0.007 -0.02067,0.007 -0.01378,0 -0.02067,-0.0207 -0.04823,-0.0896 -0.537435,-0.52365 -0.36518,-0.32384 -0.661458,-0.6339 -0.01378,-0.007 -0.01378,-0.0138 0,-0.007 0.0069,-0.0138 0.0069,-0.007 0.02067,-0.007 l 0.01378,0 q 0.01378,0.007 0.04823,0.0207 0.03445,0.0138 0.04823,0.0207 0.0069,0.007 0.0069,0.0138 l 0,0.007 q 0,0.007 -0.01378,0.007 -0.02067,-0.007 -0.01378,-0.007 0.08957,0.0827 0.316948,0.30317 0.192926,0.19292 0.316949,0.28939 z m -0.37896,0.30317 q 0.578776,0.60633 0.647678,0.71658 0.0069,0.007 0.0069,0.0138 0,0.0138 -0.02067,0.0207 -0.0069,0.007 -0.01378,0.007 -0.01378,0 -0.02067,-0.0138 -0.04823,-0.0689 -0.764811,-0.82683 -0.289388,-0.30317 -0.385851,-0.42719 -0.08957,-0.11713 -0.08957,-0.17225 l 0,-0.0138 q 0.0069,-0.0138 0.02067,-0.0138 0.01378,0 0.01378,0.0138 0,0.0413 0.192925,0.26182 0.137804,0.15159 0.413412,0.43409 z m -0.0069,0.54432 q 0.213596,0.2136 0.227377,0.24116 l 0,0.0138 q 0,0.007 -0.0069,0.0138 -0.0069,0.007 -0.01378,0.007 l -0.0069,0 q -0.04134,-0.0207 -0.275608,-0.26183 -0.206705,-0.2067 -0.344509,-0.36518 -0.399631,-0.45475 -0.461643,-0.65457 0,-0.0138 0.01378,-0.0207 0.01378,0 0.02067,0.007 0.310059,0.45476 0.530545,0.69591 0.137804,0.1447 0.316948,0.32384 z m -0.930175,-0.43408 q 0.01378,0.0207 0.268717,0.33762 0.35829,0.45475 0.385851,0.52365 l 0,0.007 q 0,0.007 -0.01378,0.0138 -0.0069,0.007 -0.01378,0.007 -0.0069,0 -0.01378,-0.007 -0.02067,-0.0276 -0.516765,-0.66146 -0.0069,-0.007 -0.0689,-0.0827 -0.06201,-0.0689 -0.103352,-0.12402 -0.103353,-0.1378 -0.103353,-0.19293 0,-0.0138 0.0069,-0.0207 l 0.0069,-0.007 q 0.0069,0 0.01378,0.007 0.0069,0.007 0.0069,0.0207 0.0069,0 0.144694,0.17915 z"
         style="font-style:normal;font-variant:normal;font-weight:normal;font-stretch:normal;font-size:14.11111069px;font-family:Archistico;-inkscape-font-specification:Archistico;fill:#cccccc"
         id="path3438" />
    </g>
    <g
       style="font-style:normal;font-weight:normal;font-size:11.28889084px;line-height:125%;font-family:sans-serif;letter-spacing:0px;word-spacing:0px;fill:#000000;fill-opacity:1;stroke:none;stroke-width:1px;stroke-linecap:butt;stroke-linejoin:miter;stroke-opacity:1"
       id="text9518"
       transform="translate(6.5327853,-2.2577782)">
      <path
         d="M 9.8655398,4.9525259 9.460741,3.3436661 l 0,1.7432186 q 0,0.144694 -0.065457,0.217041 -0.063734,0.072347 -0.1705323,0.072347 -0.1033528,0 -0.1688097,-0.070624 Q 8.990485,5.2333017 8.990485,5.0868851 l 0,-1.9981558 q 0,-0.1653646 0.086127,-0.2222087 0.086127,-0.058567 0.232544,-0.058567 l 0.1584744,0 q 0.1429715,0 0.2067058,0.025838 0.065457,0.025838 0.096463,0.093018 0.031006,0.067179 0.070624,0.2187636 L 10.208327,4.5287791 10.57523,3.145573 q 0.03962,-0.1515842 0.07062,-0.2187636 0.03101,-0.067179 0.09474,-0.093018 0.06546,-0.025838 0.208429,-0.025838 l 0.158474,0 q 0.146417,0 0.232544,0.058567 0.08613,0.056844 0.08613,0.2222087 l 0,1.9981558 q 0,0.144694 -0.06546,0.217041 -0.06373,0.072347 -0.172255,0.072347 -0.101631,0 -0.167087,-0.072347 -0.06546,-0.072347 -0.06546,-0.217041 l 0,-1.7432186 -0.404799,1.6088598 q -0.03962,0.1567519 -0.06546,0.2308215 -0.02412,0.072347 -0.0913,0.1326362 -0.06718,0.060289 -0.186035,0.060289 -0.08957,0 -0.151584,-0.039619 Q 9.9947309,5.2987581 9.96028,5.2384689 9.925829,5.1781797 9.9051584,5.1058327 9.8862104,5.0317631 9.8655398,4.9525259 Z"
         style="font-style:normal;font-variant:normal;font-weight:normal;font-stretch:normal;font-size:3.52777839px;font-family:'Arial Rounded MT Bold';-inkscape-font-specification:'Arial Rounded MT Bold, ';text-align:center;text-anchor:middle"
         id="path9525"
         inkscape:connector-curvature="0" />
      <path
         d="m 11.958436,4.2893449 0,-1.2143963 q 0,-0.1550294 0.0689,-0.232544 0.07062,-0.077515 0.184312,-0.077515 0.118856,0 0.187758,0.077515 0.07062,0.077515 0.07062,0.232544 l 0,1.2419571 q 0,0.2118734 0.04651,0.3548449 0.04823,0.1412489 0.16881,0.2204861 0.120578,0.077515 0.337619,0.077515 0.299724,0 0.423747,-0.1584744 0.124024,-0.160197 0.124024,-0.484036 l 0,-1.2522924 q 0,-0.1567519 0.0689,-0.232544 0.0689,-0.077515 0.184313,-0.077515 0.115411,0 0.186035,0.077515 0.07235,0.075792 0.07235,0.232544 l 0,1.2143963 q 0,0.2962783 -0.05857,0.4943713 -0.05684,0.198093 -0.217041,0.3479547 -0.137804,0.1274686 -0.320394,0.1860352 -0.18259,0.058567 -0.427192,0.058567 -0.291111,0 -0.501262,-0.062012 -0.210144,-0.063735 -0.34278,-0.1946483 -0.132636,-0.1326362 -0.194648,-0.3376194 -0.06201,-0.2067058 -0.06201,-0.4926488 z"
         style="font-style:normal;font-variant:normal;font-weight:normal;font-stretch:normal;font-size:3.52777839px;font-family:'Arial Rounded MT Bold';-inkscape-font-specification:'Arial Rounded MT Bold, ';text-align:center;text-anchor:middle"
         id="path9527"
         inkscape:connector-curvature="0" />
      <path
         d="m 15.136536,3.0749486 0,1.8379587 1.036974,0 q 0.124024,0 0.189481,0.060289 0.06718,0.060289 0.06718,0.1515842 0,0.093018 -0.06546,0.1515843 -0.06546,0.056844 -0.191203,0.056844 l -1.235067,0 q -0.167087,0 -0.241156,-0.07407 -0.07235,-0.07407 -0.07235,-0.2394342 l 0,-1.9447567 q 0,-0.1550294 0.0689,-0.232544 0.07062,-0.077515 0.184312,-0.077515 0.115411,0 0.186035,0.077515 0.07235,0.075792 0.07235,0.232544 z"
         style="font-style:normal;font-variant:normal;font-weight:normal;font-stretch:normal;font-size:3.52777839px;font-family:'Arial Rounded MT Bold';-inkscape-font-specification:'Arial Rounded MT Bold, ';text-align:center;text-anchor:middle"
         id="path9529"
         inkscape:connector-curvature="0" />
      <path
         d="m 17.963238,3.2299779 -0.558105,0 0,1.8345136 q 0,0.1584745 -0.07062,0.2359891 -0.07062,0.075792 -0.18259,0.075792 -0.113688,0 -0.186035,-0.077515 -0.07063,-0.077515 -0.07063,-0.2342666 l 0,-1.8345136 -0.558105,0 q -0.130914,0 -0.194648,-0.056844 -0.06373,-0.058567 -0.06373,-0.1533068 0,-0.098185 0.06546,-0.1550293 0.06718,-0.056844 0.192926,-0.056844 l 1.626085,0 q 0.132636,0 0.196371,0.058567 0.06546,0.058567 0.06546,0.1533068 0,0.09474 -0.06546,0.1533068 -0.06546,0.056844 -0.196371,0.056844 z"
         style="font-style:normal;font-variant:normal;font-weight:normal;font-stretch:normal;font-size:3.52777839px;font-family:'Arial Rounded MT Bold';-inkscape-font-specification:'Arial Rounded MT Bold, ';text-align:center;text-anchor:middle"
         id="path9531"
         inkscape:connector-curvature="0" />
      <path
         d="m 18.548904,5.0644915 0,-1.9895429 q 0,-0.1550294 0.07062,-0.232544 0.07062,-0.077515 0.18259,-0.077515 0.11541,0 0.186035,0.077515 0.07235,0.075792 0.07235,0.232544 l 0,1.9895429 q 0,0.1567519 -0.07235,0.2342666 -0.07063,0.077515 -0.186035,0.077515 -0.110243,0 -0.18259,-0.077515 -0.07062,-0.079237 -0.07062,-0.2342666 z"
         style="font-style:normal;font-variant:normal;font-weight:normal;font-stretch:normal;font-size:3.52777839px;font-family:'Arial Rounded MT Bold';-inkscape-font-specification:'Arial Rounded MT Bold, ';text-align:center;text-anchor:middle"
         id="path9533"
         inkscape:connector-curvature="0" />
      <path
         d="m 20.483326,4.9525259 -0.404799,-1.6088598 0,1.7432186 q 0,0.144694 -0.06546,0.217041 -0.06374,0.072347 -0.170533,0.072347 -0.103353,0 -0.168809,-0.070624 -0.06546,-0.072347 -0.06546,-0.2187636 l 0,-1.9981558 q 0,-0.1653646 0.08613,-0.2222087 0.08613,-0.058567 0.232544,-0.058567 l 0.158475,0 q 0.142971,0 0.206705,0.025838 0.06546,0.025838 0.09646,0.093018 0.03101,0.067179 0.07062,0.2187636 l 0.366902,1.3832061 0.366903,-1.3832061 q 0.03962,-0.1515842 0.07062,-0.2187636 0.03101,-0.067179 0.09474,-0.093018 0.06546,-0.025838 0.208428,-0.025838 l 0.158474,0 q 0.146417,0 0.232544,0.058567 0.08613,0.056844 0.08613,0.2222087 l 0,1.9981558 q 0,0.144694 -0.06546,0.217041 -0.06373,0.072347 -0.172255,0.072347 -0.10163,0 -0.167087,-0.072347 -0.06546,-0.072347 -0.06546,-0.217041 l 0,-1.7432186 -0.404799,1.6088598 q -0.03962,0.1567519 -0.06546,0.2308215 -0.02412,0.072347 -0.0913,0.1326362 -0.06718,0.060289 -0.186035,0.060289 -0.08957,0 -0.151584,-0.039619 Q 20.61249,5.298758 20.57804,5.238469 20.54359,5.17818 20.52292,5.1058328 20.50397,5.0317628 20.4833,4.952526 Z"
         style="font-style:normal;font-variant:normal;font-weight:normal;font-stretch:normal;font-size:3.52777839px;font-family:'Arial Rounded MT Bold';-inkscape-font-specification:'Arial Rounded MT Bold, ';text-align:center;text-anchor:middle"
         id="path9535"
         inkscape:connector-curvature="0" />
      <path
         d="m 23.68382,2.7648899 q 0.392741,0 0.673517,0.160197 0.282498,0.1584744 0.427192,0.4530301 0.144694,0.2928332 0.144694,0.6890192 0,0.2928332 -0.07924,0.5322674 -0.07924,0.2394342 -0.237711,0.4151341 -0.158475,0.1756999 -0.389296,0.2687174 -0.230822,0.093018 -0.528822,0.093018 -0.296279,0 -0.530545,-0.09474 -0.234267,-0.096463 -0.391019,-0.27044 -0.156751,-0.1739774 -0.237711,-0.4185792 -0.07924,-0.2446018 -0.07924,-0.5288223 0,-0.2911106 0.08268,-0.5339899 0.08441,-0.2428792 0.242879,-0.4134115 0.158475,-0.1705322 0.385851,-0.2601047 0.227376,-0.091295 0.516764,-0.091295 z m 0.726916,1.2988012 q 0,-0.2773302 -0.08957,-0.4805909 -0.08957,-0.2032606 -0.256659,-0.3066135 -0.165365,-0.1050755 -0.380684,-0.1050755 -0.153306,0 -0.28422,0.058567 -0.129191,0.056844 -0.223931,0.1670871 -0.09302,0.1102431 -0.148139,0.2824979 -0.0534,0.1705323 -0.0534,0.3841282 0,0.2153185 0.0534,0.3892959 0.05512,0.1739773 0.153306,0.2893881 0.09991,0.1136881 0.227377,0.1705322 0.129191,0.056844 0.282498,0.056844 0.19637,0 0.360012,-0.098185 0.165365,-0.098185 0.261827,-0.3031685 0.09819,-0.2049832 0.09819,-0.5047066 z"
         style="font-style:normal;font-variant:normal;font-weight:normal;font-stretch:normal;font-size:3.52777839px;font-family:'Arial Rounded MT Bold';-inkscape-font-specification:'Arial Rounded MT Bold, ';text-align:center;text-anchor:middle"
         id="path9537"
         inkscape:connector-curvature="0" />
      <path
         d="m 25.687142,2.8079536 0.666627,0 q 0.260104,0 0.446139,0.048231 0.186036,0.048231 0.33762,0.1808675 0.394463,0.3376194 0.394463,1.0266386 0,0.2273764 -0.03962,0.4151341 -0.03962,0.1877577 -0.122301,0.339342 -0.08268,0.1498617 -0.211874,0.2687175 -0.10163,0.091295 -0.222208,0.1464166 -0.120579,0.055122 -0.260105,0.077515 -0.137804,0.022393 -0.311781,0.022393 l -0.666626,0 q -0.139527,0 -0.210151,-0.041341 -0.07062,-0.043064 -0.09302,-0.1188558 -0.02067,-0.077515 -0.02067,-0.1998156 l 0,-1.8517391 q 0,-0.1653647 0.07407,-0.2394342 0.07407,-0.07407 0.239434,-0.07407 z m 0.198093,0.4047988 0,1.7139353 0.387574,0 q 0.127468,0 0.199815,-0.00689 0.07235,-0.00689 0.149862,-0.034451 0.07752,-0.027561 0.134359,-0.077515 0.256659,-0.2170411 0.256659,-0.7475859 0,-0.3737929 -0.113688,-0.5598281 -0.111965,-0.1860352 -0.27733,-0.2359891 -0.165365,-0.051676 -0.399631,-0.051676 l -0.33762,0 z"
         style="font-style:normal;font-variant:normal;font-weight:normal;font-stretch:normal;font-size:3.52777839px;font-family:'Arial Rounded MT Bold';-inkscape-font-specification:'Arial Rounded MT Bold, ';text-align:center;text-anchor:middle"
         id="path9539"
         inkscape:connector-curvature="0" />
      <path
         d="m 29.645558,3.2024171 -1.152384,0 0,0.6201173 1.061089,0 q 0.117134,0 0.173978,0.053399 0.05857,0.051676 0.05857,0.1378038 0,0.086127 -0.05684,0.141249 -0.05684,0.053399 -0.1757,0.053399 l -1.061089,0 0,0.7183025 1.192003,0 q 0.120578,0 0.180868,0.056844 0.06201,0.055122 0.06201,0.1481391 0,0.089573 -0.06201,0.1464166 -0.06029,0.055122 -0.180868,0.055122 l -1.390096,0 q -0.167087,0 -0.241157,-0.07407 -0.07235,-0.07407 -0.07235,-0.2394342 l 0,-1.8982479 q 0,-0.1102431 0.03273,-0.179145 0.03273,-0.070625 0.101631,-0.1016304 0.07062,-0.032728 0.179145,-0.032728 l 1.350477,0 q 0.122301,0 0.180868,0.055122 0.06029,0.053399 0.06029,0.141249 0,0.089573 -0.06029,0.144694 -0.05857,0.053399 -0.180868,0.053399 z"
         style="font-style:normal;font-variant:normal;font-weight:normal;font-stretch:normal;font-size:3.52777839px;font-family:'Arial Rounded MT Bold';-inkscape-font-specification:'Arial Rounded MT Bold, ';text-align:center;text-anchor:middle"
         id="path9541"
         inkscape:connector-curvature="0" />
      <path
         d="m 15.176155,7.6121401 -1.00769,0 0,0.6459555 0.842326,0 q 0.117133,0 0.173977,0.053399 0.05857,0.051676 0.05857,0.1395264 0,0.08785 -0.05857,0.1395264 -0.05857,0.051676 -0.173977,0.051676 l -0.842326,0 0,0.8319907 q 0,0.1584744 -0.07235,0.2359891 -0.07062,0.075792 -0.18259,0.075792 -0.113688,0 -0.186035,-0.077515 -0.07063,-0.077515 -0.07063,-0.2342666 l 0,-1.9430342 q 0,-0.110243 0.03273,-0.179145 0.03273,-0.070624 0.101631,-0.1016303 0.07062,-0.032728 0.179145,-0.032728 l 1.205783,0 q 0.122301,0 0.180868,0.055122 0.06029,0.053399 0.06029,0.141249 0,0.089573 -0.06029,0.144694 -0.05857,0.053399 -0.180868,0.053399 z"
         style="font-style:normal;font-variant:normal;font-weight:normal;font-stretch:normal;font-size:3.52777839px;font-family:'Arial Rounded MT Bold';-inkscape-font-specification:'Arial Rounded MT Bold, ';text-align:center;text-anchor:middle"
         id="path9543"
         inkscape:connector-curvature="0" />
      <path
         d="m 15.816943,9.4742145 0,-1.989543 q 0,-0.1550293 0.07062,-0.2325439 0.07062,-0.077515 0.18259,-0.077515 0.115411,0 0.186035,0.077515 0.07235,0.075792 0.07235,0.2325439 l 0,1.989543 q 0,0.1567519 -0.07235,0.2342666 -0.07062,0.077515 -0.186035,0.077515 -0.110243,0 -0.18259,-0.077515 -0.07062,-0.079237 -0.07062,-0.2342666 z"
         style="font-style:normal;font-variant:normal;font-weight:normal;font-stretch:normal;font-size:3.52777839px;font-family:'Arial Rounded MT Bold';-inkscape-font-specification:'Arial Rounded MT Bold, ';text-align:center;text-anchor:middle"
         id="path9545"
         inkscape:connector-curvature="0" />
      <path
         d="m 17.399965,7.4846715 0,1.8379588 1.036974,0 q 0.124023,0 0.18948,0.060289 0.06718,0.060289 0.06718,0.1515842 0,0.093018 -0.06546,0.1515842 -0.06546,0.056844 -0.191203,0.056844 l -1.235067,0 q -0.167087,0 -0.241157,-0.07407 -0.07235,-0.07407 -0.07235,-0.2394342 l 0,-1.9447568 q 0,-0.1550293 0.0689,-0.2325439 0.07062,-0.077515 0.184313,-0.077515 0.11541,0 0.186035,0.077515 0.07235,0.075792 0.07235,0.2325439 z"
         style="font-style:normal;font-variant:normal;font-weight:normal;font-stretch:normal;font-size:3.52777839px;font-family:'Arial Rounded MT Bold';-inkscape-font-specification:'Arial Rounded MT Bold, ';text-align:center;text-anchor:middle"
         id="path9547"
         inkscape:connector-curvature="0" />
      <path
         d="m 20.226666,7.6397009 -0.558105,0 0,1.8345136 q 0,0.1584744 -0.07062,0.2359891 -0.07062,0.075792 -0.18259,0.075792 -0.113688,0 -0.186035,-0.077515 -0.07062,-0.077515 -0.07062,-0.2342666 l 0,-1.8345136 -0.558105,0 q -0.130914,0 -0.194648,-0.056844 -0.06373,-0.058567 -0.06373,-0.1533068 0,-0.098185 0.06546,-0.1550293 0.06718,-0.056844 0.192926,-0.056844 l 1.626085,0 q 0.132636,0 0.196371,0.058567 0.06546,0.058567 0.06546,0.1533068 0,0.09474 -0.06546,0.1533068 -0.06546,0.056844 -0.196371,0.056844 z"
         style="font-style:normal;font-variant:normal;font-weight:normal;font-stretch:normal;font-size:3.52777839px;font-family:'Arial Rounded MT Bold';-inkscape-font-specification:'Arial Rounded MT Bold, ';text-align:center;text-anchor:middle"
         id="path9549"
         inkscape:connector-curvature="0" />
      <path
         d="m 22.455643,7.6121401 -1.152385,0 0,0.6201173 1.06109,0 q 0.117133,0 0.173977,0.053399 0.05857,0.051676 0.05857,0.1378038 0,0.086127 -0.05684,0.141249 -0.05684,0.053399 -0.1757,0.053399 l -1.06109,0 0,0.7183025 1.192004,0 q 0.120578,0 0.180867,0.056844 0.06201,0.055122 0.06201,0.1481391 0,0.089573 -0.06201,0.1464166 -0.06029,0.055122 -0.180867,0.055122 l -1.390097,0 q -0.167087,0 -0.241156,-0.07407 -0.07235,-0.07407 -0.07235,-0.2394342 l 0,-1.898248 q 0,-0.110243 0.03273,-0.179145 0.03273,-0.070624 0.10163,-0.1016303 0.07062,-0.032728 0.179145,-0.032728 l 1.350478,0 q 0.122301,0 0.180868,0.055122 0.06029,0.053399 0.06029,0.141249 0,0.089573 -0.06029,0.144694 -0.05857,0.053399 -0.180868,0.053399 z"
         style="font-style:normal;font-variant:normal;font-weight:normal;font-stretch:normal;font-size:3.52777839px;font-family:'Arial Rounded MT Bold';-inkscape-font-specification:'Arial Rounded MT Bold, ';text-align:center;text-anchor:middle"
         id="path9551"
         inkscape:connector-curvature="0" />
      <path
         d="m 23.835405,8.6628944 -0.179145,0 0,0.8113201 q 0,0.160197 -0.07062,0.2359891 -0.07062,0.075792 -0.184313,0.075792 -0.1223,0 -0.18948,-0.079237 -0.06718,-0.079237 -0.06718,-0.232544 l 0,-1.9430342 q 0,-0.1653646 0.07407,-0.2394341 0.07407,-0.07407 0.239435,-0.07407 l 0.83199,0 q 0.172255,0 0.294556,0.015503 0.122301,0.01378 0.220486,0.058567 0.118856,0.049954 0.210151,0.1429714 0.09129,0.093018 0.137804,0.2170411 0.04823,0.1223009 0.04823,0.2601048 0,0.2824978 -0.160197,0.4513075 -0.158474,0.1688097 -0.482313,0.2394342 0.136081,0.072347 0.260105,0.213596 0.124023,0.1412489 0.220486,0.3014459 0.09819,0.1584744 0.151584,0.2876655 0.05512,0.1274686 0.05512,0.1756999 0,0.049954 -0.03273,0.099908 -0.03101,0.048231 -0.08613,0.075792 -0.05512,0.029283 -0.127469,0.029283 -0.08613,0 -0.144694,-0.041341 -0.05857,-0.039619 -0.10163,-0.1016304 -0.04134,-0.062012 -0.113688,-0.1825901 L 24.434851,9.1193696 q -0.110243,-0.1877577 -0.198093,-0.2859429 -0.08613,-0.098185 -0.1757,-0.1343588 -0.08957,-0.036173 -0.225653,-0.036173 z m 0.292833,-1.0610896 -0.471978,0 0,0.6941869 0.458197,0 q 0.184313,0 0.310059,-0.031006 0.125746,-0.032728 0.191203,-0.1085205 0.06718,-0.077515 0.06718,-0.2118734 0,-0.1050755 -0.0534,-0.1843127 -0.0534,-0.08096 -0.148139,-0.1205783 -0.08957,-0.037896 -0.353122,-0.037896 z"
         style="font-style:normal;font-variant:normal;font-weight:normal;font-stretch:normal;font-size:3.52777839px;font-family:'Arial Rounded MT Bold';-inkscape-font-specification:'Arial Rounded MT Bold, ';text-align:center;text-anchor:middle"
         id="path9553"
         inkscape:connector-curvature="0" />
    </g>
  </g>
</svg>
